G04 EAGLE Gerber RS-274X export*
G75*
%MOMM*%
%FSLAX34Y34*%
%LPD*%
%INSolderpaste Bottom*%
%IPPOS*%
%AMOC8*
5,1,8,0,0,1.08239X$1,22.5*%
G01*
%ADD10R,0.630000X0.830000*%
%ADD11R,0.600000X1.200000*%
%ADD12R,1.100000X1.000000*%
%ADD13R,0.830000X0.630000*%
%ADD14R,0.300000X0.600000*%
%ADD15R,0.600000X0.300000*%
%ADD16R,1.000000X1.100000*%


D10*
X1802200Y685800D03*
X1779200Y685800D03*
X1802200Y495300D03*
X1779200Y495300D03*
X1802200Y304800D03*
X1779200Y304800D03*
D11*
X1809750Y607000D03*
X1797050Y607000D03*
X1784350Y607000D03*
X1771650Y607000D03*
X1771650Y663000D03*
X1784350Y663000D03*
X1797050Y663000D03*
X1809750Y663000D03*
X1809750Y416500D03*
X1797050Y416500D03*
X1784350Y416500D03*
X1771650Y416500D03*
X1771650Y472500D03*
X1784350Y472500D03*
X1797050Y472500D03*
X1809750Y472500D03*
X1809750Y226000D03*
X1797050Y226000D03*
X1784350Y226000D03*
X1771650Y226000D03*
X1771650Y282000D03*
X1784350Y282000D03*
X1797050Y282000D03*
X1809750Y282000D03*
D12*
X1799200Y590550D03*
X1782200Y590550D03*
X1799200Y571500D03*
X1782200Y571500D03*
X1799200Y381000D03*
X1782200Y381000D03*
X1799200Y400050D03*
X1782200Y400050D03*
X1799200Y190500D03*
X1782200Y190500D03*
X1799200Y209550D03*
X1782200Y209550D03*
D13*
X704850Y786200D03*
X704850Y763200D03*
D12*
X664600Y787400D03*
X681600Y787400D03*
X681600Y768350D03*
X664600Y768350D03*
D13*
X628650Y786200D03*
X628650Y763200D03*
D12*
X588400Y787400D03*
X605400Y787400D03*
X605400Y768350D03*
X588400Y768350D03*
D13*
X552450Y786200D03*
X552450Y763200D03*
D12*
X512200Y787400D03*
X529200Y787400D03*
X529200Y768350D03*
X512200Y768350D03*
D13*
X476250Y786200D03*
X476250Y763200D03*
D12*
X436000Y787400D03*
X453000Y787400D03*
X453000Y768350D03*
X436000Y768350D03*
D14*
X4259200Y664600D03*
X4259200Y681600D03*
X4267200Y681600D03*
X4275200Y681600D03*
X4275200Y664600D03*
X4267200Y664600D03*
D15*
X4474600Y325500D03*
X4491600Y325500D03*
X4491600Y317500D03*
X4491600Y309500D03*
X4474600Y309500D03*
X4474600Y317500D03*
D14*
X3983100Y389500D03*
X3983100Y372500D03*
X3975100Y372500D03*
X3967100Y372500D03*
X3967100Y389500D03*
X3975100Y389500D03*
D16*
X635000Y436000D03*
X635000Y453000D03*
M02*
