M48
;GenerationSoftware,Autodesk,EAGLE,9.6.2*%
;CreationDate,2022-12-14T04:05:28Z*%
FMAT,2
ICI,OFF
METRIC,TZ,000.000
T10C0.305
T9C0.350
T8C0.381
T7C0.813
T6C1.016
T5C1.092
T4C1.707
T3C1.753
T2C4.089
T1C5.080
%
G90
M71
T1
X473837Y22225
X8763Y66675
X8763Y22225
X473837Y66675
T2
X258445Y27305
X103505Y27305
X287655Y56515
X258445Y56515
X103505Y56515
X210185Y41275
X287655Y27305
T3
X290195Y32385
X99695Y29845
X290195Y61595
X283845Y59055
X283845Y29845
X260985Y32385
X254635Y29845
X212725Y46355
X206375Y43815
X260985Y61595
X254635Y59055
X106045Y32385
X106045Y61595
X99695Y59055
T4
X98425Y56515
X108585Y56515
X98425Y27305
X108585Y27305
X263525Y56515
X205105Y41275
X215265Y41275
X253365Y27305
X263525Y27305
X282575Y56515
X292735Y56515
X282575Y27305
X292735Y27305
X253365Y56515
T5
X286385Y51435
X211455Y36195
X102235Y51435
X288925Y22225
X286385Y22225
X259715Y51435
X257175Y51435
X259715Y22225
X104775Y22225
X102235Y22225
X257175Y22225
X288925Y51435
X104775Y51435
X208915Y36195
T6
X73660Y49530
X73660Y46990
X73660Y44450
X73660Y41910
X73660Y39370
X73660Y36830
X73660Y34290
X73660Y31750
X73660Y29210
X25400Y40640
X25400Y38100
X54610Y44450
X52070Y44450
X36830Y81280
X39370Y81280
X24130Y81280
X26670Y81280
X29210Y81280
X175260Y81280
X172720Y81280
X82550Y81280
X85090Y81280
X74930Y81280
X77470Y81280
X185420Y64770
X185420Y62230
X185420Y59690
X185420Y46990
X185420Y44450
X185420Y41910
X185420Y27940
X185420Y25400
X185420Y22860
X34290Y81280
X38100Y46990
X38100Y44450
X38100Y41910
X67310Y81280
X69850Y81280
X59690Y81280
X62230Y81280
X52070Y81280
X54610Y81280
X44450Y81280
X46990Y81280
X25400Y43180
X25400Y45720
X25400Y48260
X25400Y50800
X25400Y53340
X25400Y55880
X25400Y60960
X25400Y63500
X25400Y66040
X25400Y68580
X25400Y71120
X25400Y73660
X73660Y73660
X73660Y71120
X73660Y68580
X73660Y66040
X73660Y63500
X73660Y60960
X73660Y58420
X73660Y55880
X73660Y52070
T7
X66675Y43180
X66675Y45720
T8
X462280Y86360
X480060Y2540
X128905Y56515
X433070Y53340
X447675Y66675
X446405Y31750
X397510Y40005
X397510Y49530
X426720Y69215
X448310Y31750
X450215Y55880
X400685Y53340
X401320Y52070
X447040Y33655
X431165Y50800
X433070Y48260
X434975Y53975
X432435Y52705
X400050Y50546
T9
X356235Y44450
X242570Y71120
X278130Y67310
X401955Y20955
X312420Y41910
X402590Y19685
X312420Y40005
X307340Y18415
X309880Y40005
X309880Y32385
X309880Y24765
X403860Y19685
X306070Y40005
X129540Y17145
X283845Y68580
X242570Y69850
X121920Y41910
X129540Y15240
X308610Y16510
X206375Y72390
X120650Y44450
X93980Y35560
X93980Y64135
X183515Y19050
X182245Y38100
X181610Y59055
T10
X125730Y60960
X125730Y53340
X125730Y45720
X125730Y38100
X125730Y30480
X125730Y22860
X125730Y15240
M30