G04 EAGLE Gerber RS-274X export*
G75*
%MOMM*%
%FSLAX34Y34*%
%LPD*%
%IN*%
%IPPOS*%
%AMOC8*
5,1,8,0,0,1.08239X$1,22.5*%
G01*
%ADD10C,0.254000*%
%ADD11C,0.000000*%
%ADD12C,0.254000*%


D10*
X0Y0D02*
X4826000Y0D01*
X4826000Y889000D01*
X0Y889000D01*
X0Y0D01*
D11*
X62230Y666750D02*
X62238Y667373D01*
X62261Y667996D01*
X62299Y668619D01*
X62352Y669240D01*
X62421Y669859D01*
X62505Y670477D01*
X62604Y671092D01*
X62718Y671705D01*
X62847Y672315D01*
X62991Y672922D01*
X63150Y673525D01*
X63324Y674123D01*
X63512Y674718D01*
X63715Y675307D01*
X63932Y675891D01*
X64163Y676470D01*
X64409Y677043D01*
X64669Y677610D01*
X64942Y678170D01*
X65229Y678723D01*
X65530Y679270D01*
X65844Y679808D01*
X66171Y680339D01*
X66511Y680861D01*
X66863Y681376D01*
X67229Y681881D01*
X67606Y682377D01*
X67996Y682864D01*
X68397Y683341D01*
X68810Y683808D01*
X69234Y684264D01*
X69669Y684711D01*
X70116Y685146D01*
X70572Y685570D01*
X71039Y685983D01*
X71516Y686384D01*
X72003Y686774D01*
X72499Y687151D01*
X73004Y687517D01*
X73519Y687869D01*
X74041Y688209D01*
X74572Y688536D01*
X75110Y688850D01*
X75657Y689151D01*
X76210Y689438D01*
X76770Y689711D01*
X77337Y689971D01*
X77910Y690217D01*
X78489Y690448D01*
X79073Y690665D01*
X79662Y690868D01*
X80257Y691056D01*
X80855Y691230D01*
X81458Y691389D01*
X82065Y691533D01*
X82675Y691662D01*
X83288Y691776D01*
X83903Y691875D01*
X84521Y691959D01*
X85140Y692028D01*
X85761Y692081D01*
X86384Y692119D01*
X87007Y692142D01*
X87630Y692150D01*
X88253Y692142D01*
X88876Y692119D01*
X89499Y692081D01*
X90120Y692028D01*
X90739Y691959D01*
X91357Y691875D01*
X91972Y691776D01*
X92585Y691662D01*
X93195Y691533D01*
X93802Y691389D01*
X94405Y691230D01*
X95003Y691056D01*
X95598Y690868D01*
X96187Y690665D01*
X96771Y690448D01*
X97350Y690217D01*
X97923Y689971D01*
X98490Y689711D01*
X99050Y689438D01*
X99603Y689151D01*
X100150Y688850D01*
X100688Y688536D01*
X101219Y688209D01*
X101741Y687869D01*
X102256Y687517D01*
X102761Y687151D01*
X103257Y686774D01*
X103744Y686384D01*
X104221Y685983D01*
X104688Y685570D01*
X105144Y685146D01*
X105591Y684711D01*
X106026Y684264D01*
X106450Y683808D01*
X106863Y683341D01*
X107264Y682864D01*
X107654Y682377D01*
X108031Y681881D01*
X108397Y681376D01*
X108749Y680861D01*
X109089Y680339D01*
X109416Y679808D01*
X109730Y679270D01*
X110031Y678723D01*
X110318Y678170D01*
X110591Y677610D01*
X110851Y677043D01*
X111097Y676470D01*
X111328Y675891D01*
X111545Y675307D01*
X111748Y674718D01*
X111936Y674123D01*
X112110Y673525D01*
X112269Y672922D01*
X112413Y672315D01*
X112542Y671705D01*
X112656Y671092D01*
X112755Y670477D01*
X112839Y669859D01*
X112908Y669240D01*
X112961Y668619D01*
X112999Y667996D01*
X113022Y667373D01*
X113030Y666750D01*
X113022Y666127D01*
X112999Y665504D01*
X112961Y664881D01*
X112908Y664260D01*
X112839Y663641D01*
X112755Y663023D01*
X112656Y662408D01*
X112542Y661795D01*
X112413Y661185D01*
X112269Y660578D01*
X112110Y659975D01*
X111936Y659377D01*
X111748Y658782D01*
X111545Y658193D01*
X111328Y657609D01*
X111097Y657030D01*
X110851Y656457D01*
X110591Y655890D01*
X110318Y655330D01*
X110031Y654777D01*
X109730Y654230D01*
X109416Y653692D01*
X109089Y653161D01*
X108749Y652639D01*
X108397Y652124D01*
X108031Y651619D01*
X107654Y651123D01*
X107264Y650636D01*
X106863Y650159D01*
X106450Y649692D01*
X106026Y649236D01*
X105591Y648789D01*
X105144Y648354D01*
X104688Y647930D01*
X104221Y647517D01*
X103744Y647116D01*
X103257Y646726D01*
X102761Y646349D01*
X102256Y645983D01*
X101741Y645631D01*
X101219Y645291D01*
X100688Y644964D01*
X100150Y644650D01*
X99603Y644349D01*
X99050Y644062D01*
X98490Y643789D01*
X97923Y643529D01*
X97350Y643283D01*
X96771Y643052D01*
X96187Y642835D01*
X95598Y642632D01*
X95003Y642444D01*
X94405Y642270D01*
X93802Y642111D01*
X93195Y641967D01*
X92585Y641838D01*
X91972Y641724D01*
X91357Y641625D01*
X90739Y641541D01*
X90120Y641472D01*
X89499Y641419D01*
X88876Y641381D01*
X88253Y641358D01*
X87630Y641350D01*
X87007Y641358D01*
X86384Y641381D01*
X85761Y641419D01*
X85140Y641472D01*
X84521Y641541D01*
X83903Y641625D01*
X83288Y641724D01*
X82675Y641838D01*
X82065Y641967D01*
X81458Y642111D01*
X80855Y642270D01*
X80257Y642444D01*
X79662Y642632D01*
X79073Y642835D01*
X78489Y643052D01*
X77910Y643283D01*
X77337Y643529D01*
X76770Y643789D01*
X76210Y644062D01*
X75657Y644349D01*
X75110Y644650D01*
X74572Y644964D01*
X74041Y645291D01*
X73519Y645631D01*
X73004Y645983D01*
X72499Y646349D01*
X72003Y646726D01*
X71516Y647116D01*
X71039Y647517D01*
X70572Y647930D01*
X70116Y648354D01*
X69669Y648789D01*
X69234Y649236D01*
X68810Y649692D01*
X68397Y650159D01*
X67996Y650636D01*
X67606Y651123D01*
X67229Y651619D01*
X66863Y652124D01*
X66511Y652639D01*
X66171Y653161D01*
X65844Y653692D01*
X65530Y654230D01*
X65229Y654777D01*
X64942Y655330D01*
X64669Y655890D01*
X64409Y656457D01*
X64163Y657030D01*
X63932Y657609D01*
X63715Y658193D01*
X63512Y658782D01*
X63324Y659377D01*
X63150Y659975D01*
X62991Y660578D01*
X62847Y661185D01*
X62718Y661795D01*
X62604Y662408D01*
X62505Y663023D01*
X62421Y663641D01*
X62352Y664260D01*
X62299Y664881D01*
X62261Y665504D01*
X62238Y666127D01*
X62230Y666750D01*
X62230Y222250D02*
X62238Y222873D01*
X62261Y223496D01*
X62299Y224119D01*
X62352Y224740D01*
X62421Y225359D01*
X62505Y225977D01*
X62604Y226592D01*
X62718Y227205D01*
X62847Y227815D01*
X62991Y228422D01*
X63150Y229025D01*
X63324Y229623D01*
X63512Y230218D01*
X63715Y230807D01*
X63932Y231391D01*
X64163Y231970D01*
X64409Y232543D01*
X64669Y233110D01*
X64942Y233670D01*
X65229Y234223D01*
X65530Y234770D01*
X65844Y235308D01*
X66171Y235839D01*
X66511Y236361D01*
X66863Y236876D01*
X67229Y237381D01*
X67606Y237877D01*
X67996Y238364D01*
X68397Y238841D01*
X68810Y239308D01*
X69234Y239764D01*
X69669Y240211D01*
X70116Y240646D01*
X70572Y241070D01*
X71039Y241483D01*
X71516Y241884D01*
X72003Y242274D01*
X72499Y242651D01*
X73004Y243017D01*
X73519Y243369D01*
X74041Y243709D01*
X74572Y244036D01*
X75110Y244350D01*
X75657Y244651D01*
X76210Y244938D01*
X76770Y245211D01*
X77337Y245471D01*
X77910Y245717D01*
X78489Y245948D01*
X79073Y246165D01*
X79662Y246368D01*
X80257Y246556D01*
X80855Y246730D01*
X81458Y246889D01*
X82065Y247033D01*
X82675Y247162D01*
X83288Y247276D01*
X83903Y247375D01*
X84521Y247459D01*
X85140Y247528D01*
X85761Y247581D01*
X86384Y247619D01*
X87007Y247642D01*
X87630Y247650D01*
X88253Y247642D01*
X88876Y247619D01*
X89499Y247581D01*
X90120Y247528D01*
X90739Y247459D01*
X91357Y247375D01*
X91972Y247276D01*
X92585Y247162D01*
X93195Y247033D01*
X93802Y246889D01*
X94405Y246730D01*
X95003Y246556D01*
X95598Y246368D01*
X96187Y246165D01*
X96771Y245948D01*
X97350Y245717D01*
X97923Y245471D01*
X98490Y245211D01*
X99050Y244938D01*
X99603Y244651D01*
X100150Y244350D01*
X100688Y244036D01*
X101219Y243709D01*
X101741Y243369D01*
X102256Y243017D01*
X102761Y242651D01*
X103257Y242274D01*
X103744Y241884D01*
X104221Y241483D01*
X104688Y241070D01*
X105144Y240646D01*
X105591Y240211D01*
X106026Y239764D01*
X106450Y239308D01*
X106863Y238841D01*
X107264Y238364D01*
X107654Y237877D01*
X108031Y237381D01*
X108397Y236876D01*
X108749Y236361D01*
X109089Y235839D01*
X109416Y235308D01*
X109730Y234770D01*
X110031Y234223D01*
X110318Y233670D01*
X110591Y233110D01*
X110851Y232543D01*
X111097Y231970D01*
X111328Y231391D01*
X111545Y230807D01*
X111748Y230218D01*
X111936Y229623D01*
X112110Y229025D01*
X112269Y228422D01*
X112413Y227815D01*
X112542Y227205D01*
X112656Y226592D01*
X112755Y225977D01*
X112839Y225359D01*
X112908Y224740D01*
X112961Y224119D01*
X112999Y223496D01*
X113022Y222873D01*
X113030Y222250D01*
X113022Y221627D01*
X112999Y221004D01*
X112961Y220381D01*
X112908Y219760D01*
X112839Y219141D01*
X112755Y218523D01*
X112656Y217908D01*
X112542Y217295D01*
X112413Y216685D01*
X112269Y216078D01*
X112110Y215475D01*
X111936Y214877D01*
X111748Y214282D01*
X111545Y213693D01*
X111328Y213109D01*
X111097Y212530D01*
X110851Y211957D01*
X110591Y211390D01*
X110318Y210830D01*
X110031Y210277D01*
X109730Y209730D01*
X109416Y209192D01*
X109089Y208661D01*
X108749Y208139D01*
X108397Y207624D01*
X108031Y207119D01*
X107654Y206623D01*
X107264Y206136D01*
X106863Y205659D01*
X106450Y205192D01*
X106026Y204736D01*
X105591Y204289D01*
X105144Y203854D01*
X104688Y203430D01*
X104221Y203017D01*
X103744Y202616D01*
X103257Y202226D01*
X102761Y201849D01*
X102256Y201483D01*
X101741Y201131D01*
X101219Y200791D01*
X100688Y200464D01*
X100150Y200150D01*
X99603Y199849D01*
X99050Y199562D01*
X98490Y199289D01*
X97923Y199029D01*
X97350Y198783D01*
X96771Y198552D01*
X96187Y198335D01*
X95598Y198132D01*
X95003Y197944D01*
X94405Y197770D01*
X93802Y197611D01*
X93195Y197467D01*
X92585Y197338D01*
X91972Y197224D01*
X91357Y197125D01*
X90739Y197041D01*
X90120Y196972D01*
X89499Y196919D01*
X88876Y196881D01*
X88253Y196858D01*
X87630Y196850D01*
X87007Y196858D01*
X86384Y196881D01*
X85761Y196919D01*
X85140Y196972D01*
X84521Y197041D01*
X83903Y197125D01*
X83288Y197224D01*
X82675Y197338D01*
X82065Y197467D01*
X81458Y197611D01*
X80855Y197770D01*
X80257Y197944D01*
X79662Y198132D01*
X79073Y198335D01*
X78489Y198552D01*
X77910Y198783D01*
X77337Y199029D01*
X76770Y199289D01*
X76210Y199562D01*
X75657Y199849D01*
X75110Y200150D01*
X74572Y200464D01*
X74041Y200791D01*
X73519Y201131D01*
X73004Y201483D01*
X72499Y201849D01*
X72003Y202226D01*
X71516Y202616D01*
X71039Y203017D01*
X70572Y203430D01*
X70116Y203854D01*
X69669Y204289D01*
X69234Y204736D01*
X68810Y205192D01*
X68397Y205659D01*
X67996Y206136D01*
X67606Y206623D01*
X67229Y207119D01*
X66863Y207624D01*
X66511Y208139D01*
X66171Y208661D01*
X65844Y209192D01*
X65530Y209730D01*
X65229Y210277D01*
X64942Y210830D01*
X64669Y211390D01*
X64409Y211957D01*
X64163Y212530D01*
X63932Y213109D01*
X63715Y213693D01*
X63512Y214282D01*
X63324Y214877D01*
X63150Y215475D01*
X62991Y216078D01*
X62847Y216685D01*
X62718Y217295D01*
X62604Y217908D01*
X62505Y218523D01*
X62421Y219141D01*
X62352Y219760D01*
X62299Y220381D01*
X62261Y221004D01*
X62238Y221627D01*
X62230Y222250D01*
X4712970Y666750D02*
X4712978Y667373D01*
X4713001Y667996D01*
X4713039Y668619D01*
X4713092Y669240D01*
X4713161Y669859D01*
X4713245Y670477D01*
X4713344Y671092D01*
X4713458Y671705D01*
X4713587Y672315D01*
X4713731Y672922D01*
X4713890Y673525D01*
X4714064Y674123D01*
X4714252Y674718D01*
X4714455Y675307D01*
X4714672Y675891D01*
X4714903Y676470D01*
X4715149Y677043D01*
X4715409Y677610D01*
X4715682Y678170D01*
X4715969Y678723D01*
X4716270Y679270D01*
X4716584Y679808D01*
X4716911Y680339D01*
X4717251Y680861D01*
X4717603Y681376D01*
X4717969Y681881D01*
X4718346Y682377D01*
X4718736Y682864D01*
X4719137Y683341D01*
X4719550Y683808D01*
X4719974Y684264D01*
X4720409Y684711D01*
X4720856Y685146D01*
X4721312Y685570D01*
X4721779Y685983D01*
X4722256Y686384D01*
X4722743Y686774D01*
X4723239Y687151D01*
X4723744Y687517D01*
X4724259Y687869D01*
X4724781Y688209D01*
X4725312Y688536D01*
X4725850Y688850D01*
X4726397Y689151D01*
X4726950Y689438D01*
X4727510Y689711D01*
X4728077Y689971D01*
X4728650Y690217D01*
X4729229Y690448D01*
X4729813Y690665D01*
X4730402Y690868D01*
X4730997Y691056D01*
X4731595Y691230D01*
X4732198Y691389D01*
X4732805Y691533D01*
X4733415Y691662D01*
X4734028Y691776D01*
X4734643Y691875D01*
X4735261Y691959D01*
X4735880Y692028D01*
X4736501Y692081D01*
X4737124Y692119D01*
X4737747Y692142D01*
X4738370Y692150D01*
X4738993Y692142D01*
X4739616Y692119D01*
X4740239Y692081D01*
X4740860Y692028D01*
X4741479Y691959D01*
X4742097Y691875D01*
X4742712Y691776D01*
X4743325Y691662D01*
X4743935Y691533D01*
X4744542Y691389D01*
X4745145Y691230D01*
X4745743Y691056D01*
X4746338Y690868D01*
X4746927Y690665D01*
X4747511Y690448D01*
X4748090Y690217D01*
X4748663Y689971D01*
X4749230Y689711D01*
X4749790Y689438D01*
X4750343Y689151D01*
X4750890Y688850D01*
X4751428Y688536D01*
X4751959Y688209D01*
X4752481Y687869D01*
X4752996Y687517D01*
X4753501Y687151D01*
X4753997Y686774D01*
X4754484Y686384D01*
X4754961Y685983D01*
X4755428Y685570D01*
X4755884Y685146D01*
X4756331Y684711D01*
X4756766Y684264D01*
X4757190Y683808D01*
X4757603Y683341D01*
X4758004Y682864D01*
X4758394Y682377D01*
X4758771Y681881D01*
X4759137Y681376D01*
X4759489Y680861D01*
X4759829Y680339D01*
X4760156Y679808D01*
X4760470Y679270D01*
X4760771Y678723D01*
X4761058Y678170D01*
X4761331Y677610D01*
X4761591Y677043D01*
X4761837Y676470D01*
X4762068Y675891D01*
X4762285Y675307D01*
X4762488Y674718D01*
X4762676Y674123D01*
X4762850Y673525D01*
X4763009Y672922D01*
X4763153Y672315D01*
X4763282Y671705D01*
X4763396Y671092D01*
X4763495Y670477D01*
X4763579Y669859D01*
X4763648Y669240D01*
X4763701Y668619D01*
X4763739Y667996D01*
X4763762Y667373D01*
X4763770Y666750D01*
X4763762Y666127D01*
X4763739Y665504D01*
X4763701Y664881D01*
X4763648Y664260D01*
X4763579Y663641D01*
X4763495Y663023D01*
X4763396Y662408D01*
X4763282Y661795D01*
X4763153Y661185D01*
X4763009Y660578D01*
X4762850Y659975D01*
X4762676Y659377D01*
X4762488Y658782D01*
X4762285Y658193D01*
X4762068Y657609D01*
X4761837Y657030D01*
X4761591Y656457D01*
X4761331Y655890D01*
X4761058Y655330D01*
X4760771Y654777D01*
X4760470Y654230D01*
X4760156Y653692D01*
X4759829Y653161D01*
X4759489Y652639D01*
X4759137Y652124D01*
X4758771Y651619D01*
X4758394Y651123D01*
X4758004Y650636D01*
X4757603Y650159D01*
X4757190Y649692D01*
X4756766Y649236D01*
X4756331Y648789D01*
X4755884Y648354D01*
X4755428Y647930D01*
X4754961Y647517D01*
X4754484Y647116D01*
X4753997Y646726D01*
X4753501Y646349D01*
X4752996Y645983D01*
X4752481Y645631D01*
X4751959Y645291D01*
X4751428Y644964D01*
X4750890Y644650D01*
X4750343Y644349D01*
X4749790Y644062D01*
X4749230Y643789D01*
X4748663Y643529D01*
X4748090Y643283D01*
X4747511Y643052D01*
X4746927Y642835D01*
X4746338Y642632D01*
X4745743Y642444D01*
X4745145Y642270D01*
X4744542Y642111D01*
X4743935Y641967D01*
X4743325Y641838D01*
X4742712Y641724D01*
X4742097Y641625D01*
X4741479Y641541D01*
X4740860Y641472D01*
X4740239Y641419D01*
X4739616Y641381D01*
X4738993Y641358D01*
X4738370Y641350D01*
X4737747Y641358D01*
X4737124Y641381D01*
X4736501Y641419D01*
X4735880Y641472D01*
X4735261Y641541D01*
X4734643Y641625D01*
X4734028Y641724D01*
X4733415Y641838D01*
X4732805Y641967D01*
X4732198Y642111D01*
X4731595Y642270D01*
X4730997Y642444D01*
X4730402Y642632D01*
X4729813Y642835D01*
X4729229Y643052D01*
X4728650Y643283D01*
X4728077Y643529D01*
X4727510Y643789D01*
X4726950Y644062D01*
X4726397Y644349D01*
X4725850Y644650D01*
X4725312Y644964D01*
X4724781Y645291D01*
X4724259Y645631D01*
X4723744Y645983D01*
X4723239Y646349D01*
X4722743Y646726D01*
X4722256Y647116D01*
X4721779Y647517D01*
X4721312Y647930D01*
X4720856Y648354D01*
X4720409Y648789D01*
X4719974Y649236D01*
X4719550Y649692D01*
X4719137Y650159D01*
X4718736Y650636D01*
X4718346Y651123D01*
X4717969Y651619D01*
X4717603Y652124D01*
X4717251Y652639D01*
X4716911Y653161D01*
X4716584Y653692D01*
X4716270Y654230D01*
X4715969Y654777D01*
X4715682Y655330D01*
X4715409Y655890D01*
X4715149Y656457D01*
X4714903Y657030D01*
X4714672Y657609D01*
X4714455Y658193D01*
X4714252Y658782D01*
X4714064Y659377D01*
X4713890Y659975D01*
X4713731Y660578D01*
X4713587Y661185D01*
X4713458Y661795D01*
X4713344Y662408D01*
X4713245Y663023D01*
X4713161Y663641D01*
X4713092Y664260D01*
X4713039Y664881D01*
X4713001Y665504D01*
X4712978Y666127D01*
X4712970Y666750D01*
X4712970Y222250D02*
X4712978Y222873D01*
X4713001Y223496D01*
X4713039Y224119D01*
X4713092Y224740D01*
X4713161Y225359D01*
X4713245Y225977D01*
X4713344Y226592D01*
X4713458Y227205D01*
X4713587Y227815D01*
X4713731Y228422D01*
X4713890Y229025D01*
X4714064Y229623D01*
X4714252Y230218D01*
X4714455Y230807D01*
X4714672Y231391D01*
X4714903Y231970D01*
X4715149Y232543D01*
X4715409Y233110D01*
X4715682Y233670D01*
X4715969Y234223D01*
X4716270Y234770D01*
X4716584Y235308D01*
X4716911Y235839D01*
X4717251Y236361D01*
X4717603Y236876D01*
X4717969Y237381D01*
X4718346Y237877D01*
X4718736Y238364D01*
X4719137Y238841D01*
X4719550Y239308D01*
X4719974Y239764D01*
X4720409Y240211D01*
X4720856Y240646D01*
X4721312Y241070D01*
X4721779Y241483D01*
X4722256Y241884D01*
X4722743Y242274D01*
X4723239Y242651D01*
X4723744Y243017D01*
X4724259Y243369D01*
X4724781Y243709D01*
X4725312Y244036D01*
X4725850Y244350D01*
X4726397Y244651D01*
X4726950Y244938D01*
X4727510Y245211D01*
X4728077Y245471D01*
X4728650Y245717D01*
X4729229Y245948D01*
X4729813Y246165D01*
X4730402Y246368D01*
X4730997Y246556D01*
X4731595Y246730D01*
X4732198Y246889D01*
X4732805Y247033D01*
X4733415Y247162D01*
X4734028Y247276D01*
X4734643Y247375D01*
X4735261Y247459D01*
X4735880Y247528D01*
X4736501Y247581D01*
X4737124Y247619D01*
X4737747Y247642D01*
X4738370Y247650D01*
X4738993Y247642D01*
X4739616Y247619D01*
X4740239Y247581D01*
X4740860Y247528D01*
X4741479Y247459D01*
X4742097Y247375D01*
X4742712Y247276D01*
X4743325Y247162D01*
X4743935Y247033D01*
X4744542Y246889D01*
X4745145Y246730D01*
X4745743Y246556D01*
X4746338Y246368D01*
X4746927Y246165D01*
X4747511Y245948D01*
X4748090Y245717D01*
X4748663Y245471D01*
X4749230Y245211D01*
X4749790Y244938D01*
X4750343Y244651D01*
X4750890Y244350D01*
X4751428Y244036D01*
X4751959Y243709D01*
X4752481Y243369D01*
X4752996Y243017D01*
X4753501Y242651D01*
X4753997Y242274D01*
X4754484Y241884D01*
X4754961Y241483D01*
X4755428Y241070D01*
X4755884Y240646D01*
X4756331Y240211D01*
X4756766Y239764D01*
X4757190Y239308D01*
X4757603Y238841D01*
X4758004Y238364D01*
X4758394Y237877D01*
X4758771Y237381D01*
X4759137Y236876D01*
X4759489Y236361D01*
X4759829Y235839D01*
X4760156Y235308D01*
X4760470Y234770D01*
X4760771Y234223D01*
X4761058Y233670D01*
X4761331Y233110D01*
X4761591Y232543D01*
X4761837Y231970D01*
X4762068Y231391D01*
X4762285Y230807D01*
X4762488Y230218D01*
X4762676Y229623D01*
X4762850Y229025D01*
X4763009Y228422D01*
X4763153Y227815D01*
X4763282Y227205D01*
X4763396Y226592D01*
X4763495Y225977D01*
X4763579Y225359D01*
X4763648Y224740D01*
X4763701Y224119D01*
X4763739Y223496D01*
X4763762Y222873D01*
X4763770Y222250D01*
X4763762Y221627D01*
X4763739Y221004D01*
X4763701Y220381D01*
X4763648Y219760D01*
X4763579Y219141D01*
X4763495Y218523D01*
X4763396Y217908D01*
X4763282Y217295D01*
X4763153Y216685D01*
X4763009Y216078D01*
X4762850Y215475D01*
X4762676Y214877D01*
X4762488Y214282D01*
X4762285Y213693D01*
X4762068Y213109D01*
X4761837Y212530D01*
X4761591Y211957D01*
X4761331Y211390D01*
X4761058Y210830D01*
X4760771Y210277D01*
X4760470Y209730D01*
X4760156Y209192D01*
X4759829Y208661D01*
X4759489Y208139D01*
X4759137Y207624D01*
X4758771Y207119D01*
X4758394Y206623D01*
X4758004Y206136D01*
X4757603Y205659D01*
X4757190Y205192D01*
X4756766Y204736D01*
X4756331Y204289D01*
X4755884Y203854D01*
X4755428Y203430D01*
X4754961Y203017D01*
X4754484Y202616D01*
X4753997Y202226D01*
X4753501Y201849D01*
X4752996Y201483D01*
X4752481Y201131D01*
X4751959Y200791D01*
X4751428Y200464D01*
X4750890Y200150D01*
X4750343Y199849D01*
X4749790Y199562D01*
X4749230Y199289D01*
X4748663Y199029D01*
X4748090Y198783D01*
X4747511Y198552D01*
X4746927Y198335D01*
X4746338Y198132D01*
X4745743Y197944D01*
X4745145Y197770D01*
X4744542Y197611D01*
X4743935Y197467D01*
X4743325Y197338D01*
X4742712Y197224D01*
X4742097Y197125D01*
X4741479Y197041D01*
X4740860Y196972D01*
X4740239Y196919D01*
X4739616Y196881D01*
X4738993Y196858D01*
X4738370Y196850D01*
X4737747Y196858D01*
X4737124Y196881D01*
X4736501Y196919D01*
X4735880Y196972D01*
X4735261Y197041D01*
X4734643Y197125D01*
X4734028Y197224D01*
X4733415Y197338D01*
X4732805Y197467D01*
X4732198Y197611D01*
X4731595Y197770D01*
X4730997Y197944D01*
X4730402Y198132D01*
X4729813Y198335D01*
X4729229Y198552D01*
X4728650Y198783D01*
X4728077Y199029D01*
X4727510Y199289D01*
X4726950Y199562D01*
X4726397Y199849D01*
X4725850Y200150D01*
X4725312Y200464D01*
X4724781Y200791D01*
X4724259Y201131D01*
X4723744Y201483D01*
X4723239Y201849D01*
X4722743Y202226D01*
X4722256Y202616D01*
X4721779Y203017D01*
X4721312Y203430D01*
X4720856Y203854D01*
X4720409Y204289D01*
X4719974Y204736D01*
X4719550Y205192D01*
X4719137Y205659D01*
X4718736Y206136D01*
X4718346Y206623D01*
X4717969Y207119D01*
X4717603Y207624D01*
X4717251Y208139D01*
X4716911Y208661D01*
X4716584Y209192D01*
X4716270Y209730D01*
X4715969Y210277D01*
X4715682Y210830D01*
X4715409Y211390D01*
X4715149Y211957D01*
X4714903Y212530D01*
X4714672Y213109D01*
X4714455Y213693D01*
X4714252Y214282D01*
X4714064Y214877D01*
X4713890Y215475D01*
X4713731Y216078D01*
X4713587Y216685D01*
X4713458Y217295D01*
X4713344Y217908D01*
X4713245Y218523D01*
X4713161Y219141D01*
X4713092Y219760D01*
X4713039Y220381D01*
X4713001Y221004D01*
X4712978Y221627D01*
X4712970Y222250D01*
X1014603Y565150D02*
X1014609Y565652D01*
X1014628Y566153D01*
X1014658Y566654D01*
X1014701Y567154D01*
X1014757Y567653D01*
X1014824Y568150D01*
X1014904Y568646D01*
X1014996Y569139D01*
X1015100Y569630D01*
X1015216Y570118D01*
X1015344Y570603D01*
X1015483Y571085D01*
X1015635Y571564D01*
X1015798Y572038D01*
X1015973Y572509D01*
X1016159Y572975D01*
X1016357Y573436D01*
X1016566Y573892D01*
X1016786Y574343D01*
X1017017Y574789D01*
X1017259Y575228D01*
X1017512Y575662D01*
X1017775Y576089D01*
X1018049Y576510D01*
X1018333Y576924D01*
X1018627Y577330D01*
X1018931Y577730D01*
X1019244Y578121D01*
X1019567Y578505D01*
X1019900Y578881D01*
X1020241Y579249D01*
X1020592Y579608D01*
X1020951Y579959D01*
X1021319Y580300D01*
X1021695Y580633D01*
X1022079Y580956D01*
X1022470Y581269D01*
X1022870Y581573D01*
X1023276Y581867D01*
X1023690Y582151D01*
X1024111Y582425D01*
X1024538Y582688D01*
X1024972Y582941D01*
X1025411Y583183D01*
X1025857Y583414D01*
X1026308Y583634D01*
X1026764Y583843D01*
X1027225Y584041D01*
X1027691Y584227D01*
X1028162Y584402D01*
X1028636Y584565D01*
X1029115Y584717D01*
X1029597Y584856D01*
X1030082Y584984D01*
X1030570Y585100D01*
X1031061Y585204D01*
X1031554Y585296D01*
X1032050Y585376D01*
X1032547Y585443D01*
X1033046Y585499D01*
X1033546Y585542D01*
X1034047Y585572D01*
X1034548Y585591D01*
X1035050Y585597D01*
X1035552Y585591D01*
X1036053Y585572D01*
X1036554Y585542D01*
X1037054Y585499D01*
X1037553Y585443D01*
X1038050Y585376D01*
X1038546Y585296D01*
X1039039Y585204D01*
X1039530Y585100D01*
X1040018Y584984D01*
X1040503Y584856D01*
X1040985Y584717D01*
X1041464Y584565D01*
X1041938Y584402D01*
X1042409Y584227D01*
X1042875Y584041D01*
X1043336Y583843D01*
X1043792Y583634D01*
X1044243Y583414D01*
X1044689Y583183D01*
X1045128Y582941D01*
X1045562Y582688D01*
X1045989Y582425D01*
X1046410Y582151D01*
X1046824Y581867D01*
X1047230Y581573D01*
X1047630Y581269D01*
X1048021Y580956D01*
X1048405Y580633D01*
X1048781Y580300D01*
X1049149Y579959D01*
X1049508Y579608D01*
X1049859Y579249D01*
X1050200Y578881D01*
X1050533Y578505D01*
X1050856Y578121D01*
X1051169Y577730D01*
X1051473Y577330D01*
X1051767Y576924D01*
X1052051Y576510D01*
X1052325Y576089D01*
X1052588Y575662D01*
X1052841Y575228D01*
X1053083Y574789D01*
X1053314Y574343D01*
X1053534Y573892D01*
X1053743Y573436D01*
X1053941Y572975D01*
X1054127Y572509D01*
X1054302Y572038D01*
X1054465Y571564D01*
X1054617Y571085D01*
X1054756Y570603D01*
X1054884Y570118D01*
X1055000Y569630D01*
X1055104Y569139D01*
X1055196Y568646D01*
X1055276Y568150D01*
X1055343Y567653D01*
X1055399Y567154D01*
X1055442Y566654D01*
X1055472Y566153D01*
X1055491Y565652D01*
X1055497Y565150D01*
X1055491Y564648D01*
X1055472Y564147D01*
X1055442Y563646D01*
X1055399Y563146D01*
X1055343Y562647D01*
X1055276Y562150D01*
X1055196Y561654D01*
X1055104Y561161D01*
X1055000Y560670D01*
X1054884Y560182D01*
X1054756Y559697D01*
X1054617Y559215D01*
X1054465Y558736D01*
X1054302Y558262D01*
X1054127Y557791D01*
X1053941Y557325D01*
X1053743Y556864D01*
X1053534Y556408D01*
X1053314Y555957D01*
X1053083Y555511D01*
X1052841Y555072D01*
X1052588Y554638D01*
X1052325Y554211D01*
X1052051Y553790D01*
X1051767Y553376D01*
X1051473Y552970D01*
X1051169Y552570D01*
X1050856Y552179D01*
X1050533Y551795D01*
X1050200Y551419D01*
X1049859Y551051D01*
X1049508Y550692D01*
X1049149Y550341D01*
X1048781Y550000D01*
X1048405Y549667D01*
X1048021Y549344D01*
X1047630Y549031D01*
X1047230Y548727D01*
X1046824Y548433D01*
X1046410Y548149D01*
X1045989Y547875D01*
X1045562Y547612D01*
X1045128Y547359D01*
X1044689Y547117D01*
X1044243Y546886D01*
X1043792Y546666D01*
X1043336Y546457D01*
X1042875Y546259D01*
X1042409Y546073D01*
X1041938Y545898D01*
X1041464Y545735D01*
X1040985Y545583D01*
X1040503Y545444D01*
X1040018Y545316D01*
X1039530Y545200D01*
X1039039Y545096D01*
X1038546Y545004D01*
X1038050Y544924D01*
X1037553Y544857D01*
X1037054Y544801D01*
X1036554Y544758D01*
X1036053Y544728D01*
X1035552Y544709D01*
X1035050Y544703D01*
X1034548Y544709D01*
X1034047Y544728D01*
X1033546Y544758D01*
X1033046Y544801D01*
X1032547Y544857D01*
X1032050Y544924D01*
X1031554Y545004D01*
X1031061Y545096D01*
X1030570Y545200D01*
X1030082Y545316D01*
X1029597Y545444D01*
X1029115Y545583D01*
X1028636Y545735D01*
X1028162Y545898D01*
X1027691Y546073D01*
X1027225Y546259D01*
X1026764Y546457D01*
X1026308Y546666D01*
X1025857Y546886D01*
X1025411Y547117D01*
X1024972Y547359D01*
X1024538Y547612D01*
X1024111Y547875D01*
X1023690Y548149D01*
X1023276Y548433D01*
X1022870Y548727D01*
X1022470Y549031D01*
X1022079Y549344D01*
X1021695Y549667D01*
X1021319Y550000D01*
X1020951Y550341D01*
X1020592Y550692D01*
X1020241Y551051D01*
X1019900Y551419D01*
X1019567Y551795D01*
X1019244Y552179D01*
X1018931Y552570D01*
X1018627Y552970D01*
X1018333Y553376D01*
X1018049Y553790D01*
X1017775Y554211D01*
X1017512Y554638D01*
X1017259Y555072D01*
X1017017Y555511D01*
X1016786Y555957D01*
X1016566Y556408D01*
X1016357Y556864D01*
X1016159Y557325D01*
X1015973Y557791D01*
X1015798Y558262D01*
X1015635Y558736D01*
X1015483Y559215D01*
X1015344Y559697D01*
X1015216Y560182D01*
X1015100Y560670D01*
X1014996Y561161D01*
X1014904Y561654D01*
X1014824Y562150D01*
X1014757Y562647D01*
X1014701Y563146D01*
X1014658Y563646D01*
X1014628Y564147D01*
X1014609Y564648D01*
X1014603Y565150D01*
X975716Y565150D02*
X975719Y565359D01*
X975726Y565569D01*
X975739Y565778D01*
X975757Y565986D01*
X975780Y566195D01*
X975808Y566402D01*
X975842Y566609D01*
X975880Y566815D01*
X975923Y567020D01*
X975972Y567224D01*
X976025Y567426D01*
X976083Y567627D01*
X976147Y567827D01*
X976215Y568025D01*
X976288Y568221D01*
X976366Y568416D01*
X976448Y568608D01*
X976535Y568799D01*
X976627Y568987D01*
X976724Y569173D01*
X976825Y569356D01*
X976930Y569537D01*
X977040Y569716D01*
X977154Y569891D01*
X977273Y570064D01*
X977395Y570234D01*
X977522Y570400D01*
X977653Y570564D01*
X977788Y570724D01*
X977927Y570881D01*
X978069Y571035D01*
X978216Y571184D01*
X978365Y571331D01*
X978519Y571473D01*
X978676Y571612D01*
X978836Y571747D01*
X979000Y571878D01*
X979166Y572005D01*
X979336Y572127D01*
X979509Y572246D01*
X979684Y572360D01*
X979863Y572470D01*
X980044Y572575D01*
X980227Y572676D01*
X980413Y572773D01*
X980601Y572865D01*
X980792Y572952D01*
X980984Y573034D01*
X981179Y573112D01*
X981375Y573185D01*
X981573Y573253D01*
X981773Y573317D01*
X981974Y573375D01*
X982176Y573428D01*
X982380Y573477D01*
X982585Y573520D01*
X982791Y573558D01*
X982998Y573592D01*
X983205Y573620D01*
X983414Y573643D01*
X983622Y573661D01*
X983831Y573674D01*
X984041Y573681D01*
X984250Y573684D01*
X984459Y573681D01*
X984669Y573674D01*
X984878Y573661D01*
X985086Y573643D01*
X985295Y573620D01*
X985502Y573592D01*
X985709Y573558D01*
X985915Y573520D01*
X986120Y573477D01*
X986324Y573428D01*
X986526Y573375D01*
X986727Y573317D01*
X986927Y573253D01*
X987125Y573185D01*
X987321Y573112D01*
X987516Y573034D01*
X987708Y572952D01*
X987899Y572865D01*
X988087Y572773D01*
X988273Y572676D01*
X988456Y572575D01*
X988637Y572470D01*
X988816Y572360D01*
X988991Y572246D01*
X989164Y572127D01*
X989334Y572005D01*
X989500Y571878D01*
X989664Y571747D01*
X989824Y571612D01*
X989981Y571473D01*
X990135Y571331D01*
X990284Y571184D01*
X990431Y571035D01*
X990573Y570881D01*
X990712Y570724D01*
X990847Y570564D01*
X990978Y570400D01*
X991105Y570234D01*
X991227Y570064D01*
X991346Y569891D01*
X991460Y569716D01*
X991570Y569537D01*
X991675Y569356D01*
X991776Y569173D01*
X991873Y568987D01*
X991965Y568799D01*
X992052Y568608D01*
X992134Y568416D01*
X992212Y568221D01*
X992285Y568025D01*
X992353Y567827D01*
X992417Y567627D01*
X992475Y567426D01*
X992528Y567224D01*
X992577Y567020D01*
X992620Y566815D01*
X992658Y566609D01*
X992692Y566402D01*
X992720Y566195D01*
X992743Y565986D01*
X992761Y565778D01*
X992774Y565569D01*
X992781Y565359D01*
X992784Y565150D01*
X992781Y564941D01*
X992774Y564731D01*
X992761Y564522D01*
X992743Y564314D01*
X992720Y564105D01*
X992692Y563898D01*
X992658Y563691D01*
X992620Y563485D01*
X992577Y563280D01*
X992528Y563076D01*
X992475Y562874D01*
X992417Y562673D01*
X992353Y562473D01*
X992285Y562275D01*
X992212Y562079D01*
X992134Y561884D01*
X992052Y561692D01*
X991965Y561501D01*
X991873Y561313D01*
X991776Y561127D01*
X991675Y560944D01*
X991570Y560763D01*
X991460Y560584D01*
X991346Y560409D01*
X991227Y560236D01*
X991105Y560066D01*
X990978Y559900D01*
X990847Y559736D01*
X990712Y559576D01*
X990573Y559419D01*
X990431Y559265D01*
X990284Y559116D01*
X990135Y558969D01*
X989981Y558827D01*
X989824Y558688D01*
X989664Y558553D01*
X989500Y558422D01*
X989334Y558295D01*
X989164Y558173D01*
X988991Y558054D01*
X988816Y557940D01*
X988637Y557830D01*
X988456Y557725D01*
X988273Y557624D01*
X988087Y557527D01*
X987899Y557435D01*
X987708Y557348D01*
X987516Y557266D01*
X987321Y557188D01*
X987125Y557115D01*
X986927Y557047D01*
X986727Y556983D01*
X986526Y556925D01*
X986324Y556872D01*
X986120Y556823D01*
X985915Y556780D01*
X985709Y556742D01*
X985502Y556708D01*
X985295Y556680D01*
X985086Y556657D01*
X984878Y556639D01*
X984669Y556626D01*
X984459Y556619D01*
X984250Y556616D01*
X984041Y556619D01*
X983831Y556626D01*
X983622Y556639D01*
X983414Y556657D01*
X983205Y556680D01*
X982998Y556708D01*
X982791Y556742D01*
X982585Y556780D01*
X982380Y556823D01*
X982176Y556872D01*
X981974Y556925D01*
X981773Y556983D01*
X981573Y557047D01*
X981375Y557115D01*
X981179Y557188D01*
X980984Y557266D01*
X980792Y557348D01*
X980601Y557435D01*
X980413Y557527D01*
X980227Y557624D01*
X980044Y557725D01*
X979863Y557830D01*
X979684Y557940D01*
X979509Y558054D01*
X979336Y558173D01*
X979166Y558295D01*
X979000Y558422D01*
X978836Y558553D01*
X978676Y558688D01*
X978519Y558827D01*
X978365Y558969D01*
X978216Y559116D01*
X978069Y559265D01*
X977927Y559419D01*
X977788Y559576D01*
X977653Y559736D01*
X977522Y559900D01*
X977395Y560066D01*
X977273Y560236D01*
X977154Y560409D01*
X977040Y560584D01*
X976930Y560763D01*
X976825Y560944D01*
X976724Y561127D01*
X976627Y561313D01*
X976535Y561501D01*
X976448Y561692D01*
X976366Y561884D01*
X976288Y562079D01*
X976215Y562275D01*
X976147Y562473D01*
X976083Y562673D01*
X976025Y562874D01*
X975972Y563076D01*
X975923Y563280D01*
X975880Y563485D01*
X975842Y563691D01*
X975808Y563898D01*
X975780Y564105D01*
X975757Y564314D01*
X975739Y564522D01*
X975726Y564731D01*
X975719Y564941D01*
X975716Y565150D01*
X1077316Y565150D02*
X1077319Y565359D01*
X1077326Y565569D01*
X1077339Y565778D01*
X1077357Y565986D01*
X1077380Y566195D01*
X1077408Y566402D01*
X1077442Y566609D01*
X1077480Y566815D01*
X1077523Y567020D01*
X1077572Y567224D01*
X1077625Y567426D01*
X1077683Y567627D01*
X1077747Y567827D01*
X1077815Y568025D01*
X1077888Y568221D01*
X1077966Y568416D01*
X1078048Y568608D01*
X1078135Y568799D01*
X1078227Y568987D01*
X1078324Y569173D01*
X1078425Y569356D01*
X1078530Y569537D01*
X1078640Y569716D01*
X1078754Y569891D01*
X1078873Y570064D01*
X1078995Y570234D01*
X1079122Y570400D01*
X1079253Y570564D01*
X1079388Y570724D01*
X1079527Y570881D01*
X1079669Y571035D01*
X1079816Y571184D01*
X1079965Y571331D01*
X1080119Y571473D01*
X1080276Y571612D01*
X1080436Y571747D01*
X1080600Y571878D01*
X1080766Y572005D01*
X1080936Y572127D01*
X1081109Y572246D01*
X1081284Y572360D01*
X1081463Y572470D01*
X1081644Y572575D01*
X1081827Y572676D01*
X1082013Y572773D01*
X1082201Y572865D01*
X1082392Y572952D01*
X1082584Y573034D01*
X1082779Y573112D01*
X1082975Y573185D01*
X1083173Y573253D01*
X1083373Y573317D01*
X1083574Y573375D01*
X1083776Y573428D01*
X1083980Y573477D01*
X1084185Y573520D01*
X1084391Y573558D01*
X1084598Y573592D01*
X1084805Y573620D01*
X1085014Y573643D01*
X1085222Y573661D01*
X1085431Y573674D01*
X1085641Y573681D01*
X1085850Y573684D01*
X1086059Y573681D01*
X1086269Y573674D01*
X1086478Y573661D01*
X1086686Y573643D01*
X1086895Y573620D01*
X1087102Y573592D01*
X1087309Y573558D01*
X1087515Y573520D01*
X1087720Y573477D01*
X1087924Y573428D01*
X1088126Y573375D01*
X1088327Y573317D01*
X1088527Y573253D01*
X1088725Y573185D01*
X1088921Y573112D01*
X1089116Y573034D01*
X1089308Y572952D01*
X1089499Y572865D01*
X1089687Y572773D01*
X1089873Y572676D01*
X1090056Y572575D01*
X1090237Y572470D01*
X1090416Y572360D01*
X1090591Y572246D01*
X1090764Y572127D01*
X1090934Y572005D01*
X1091100Y571878D01*
X1091264Y571747D01*
X1091424Y571612D01*
X1091581Y571473D01*
X1091735Y571331D01*
X1091884Y571184D01*
X1092031Y571035D01*
X1092173Y570881D01*
X1092312Y570724D01*
X1092447Y570564D01*
X1092578Y570400D01*
X1092705Y570234D01*
X1092827Y570064D01*
X1092946Y569891D01*
X1093060Y569716D01*
X1093170Y569537D01*
X1093275Y569356D01*
X1093376Y569173D01*
X1093473Y568987D01*
X1093565Y568799D01*
X1093652Y568608D01*
X1093734Y568416D01*
X1093812Y568221D01*
X1093885Y568025D01*
X1093953Y567827D01*
X1094017Y567627D01*
X1094075Y567426D01*
X1094128Y567224D01*
X1094177Y567020D01*
X1094220Y566815D01*
X1094258Y566609D01*
X1094292Y566402D01*
X1094320Y566195D01*
X1094343Y565986D01*
X1094361Y565778D01*
X1094374Y565569D01*
X1094381Y565359D01*
X1094384Y565150D01*
X1094381Y564941D01*
X1094374Y564731D01*
X1094361Y564522D01*
X1094343Y564314D01*
X1094320Y564105D01*
X1094292Y563898D01*
X1094258Y563691D01*
X1094220Y563485D01*
X1094177Y563280D01*
X1094128Y563076D01*
X1094075Y562874D01*
X1094017Y562673D01*
X1093953Y562473D01*
X1093885Y562275D01*
X1093812Y562079D01*
X1093734Y561884D01*
X1093652Y561692D01*
X1093565Y561501D01*
X1093473Y561313D01*
X1093376Y561127D01*
X1093275Y560944D01*
X1093170Y560763D01*
X1093060Y560584D01*
X1092946Y560409D01*
X1092827Y560236D01*
X1092705Y560066D01*
X1092578Y559900D01*
X1092447Y559736D01*
X1092312Y559576D01*
X1092173Y559419D01*
X1092031Y559265D01*
X1091884Y559116D01*
X1091735Y558969D01*
X1091581Y558827D01*
X1091424Y558688D01*
X1091264Y558553D01*
X1091100Y558422D01*
X1090934Y558295D01*
X1090764Y558173D01*
X1090591Y558054D01*
X1090416Y557940D01*
X1090237Y557830D01*
X1090056Y557725D01*
X1089873Y557624D01*
X1089687Y557527D01*
X1089499Y557435D01*
X1089308Y557348D01*
X1089116Y557266D01*
X1088921Y557188D01*
X1088725Y557115D01*
X1088527Y557047D01*
X1088327Y556983D01*
X1088126Y556925D01*
X1087924Y556872D01*
X1087720Y556823D01*
X1087515Y556780D01*
X1087309Y556742D01*
X1087102Y556708D01*
X1086895Y556680D01*
X1086686Y556657D01*
X1086478Y556639D01*
X1086269Y556626D01*
X1086059Y556619D01*
X1085850Y556616D01*
X1085641Y556619D01*
X1085431Y556626D01*
X1085222Y556639D01*
X1085014Y556657D01*
X1084805Y556680D01*
X1084598Y556708D01*
X1084391Y556742D01*
X1084185Y556780D01*
X1083980Y556823D01*
X1083776Y556872D01*
X1083574Y556925D01*
X1083373Y556983D01*
X1083173Y557047D01*
X1082975Y557115D01*
X1082779Y557188D01*
X1082584Y557266D01*
X1082392Y557348D01*
X1082201Y557435D01*
X1082013Y557527D01*
X1081827Y557624D01*
X1081644Y557725D01*
X1081463Y557830D01*
X1081284Y557940D01*
X1081109Y558054D01*
X1080936Y558173D01*
X1080766Y558295D01*
X1080600Y558422D01*
X1080436Y558553D01*
X1080276Y558688D01*
X1080119Y558827D01*
X1079965Y558969D01*
X1079816Y559116D01*
X1079669Y559265D01*
X1079527Y559419D01*
X1079388Y559576D01*
X1079253Y559736D01*
X1079122Y559900D01*
X1078995Y560066D01*
X1078873Y560236D01*
X1078754Y560409D01*
X1078640Y560584D01*
X1078530Y560763D01*
X1078425Y560944D01*
X1078324Y561127D01*
X1078227Y561313D01*
X1078135Y561501D01*
X1078048Y561692D01*
X1077966Y561884D01*
X1077888Y562079D01*
X1077815Y562275D01*
X1077747Y562473D01*
X1077683Y562673D01*
X1077625Y562874D01*
X1077572Y563076D01*
X1077523Y563280D01*
X1077480Y563485D01*
X1077442Y563691D01*
X1077408Y563898D01*
X1077380Y564105D01*
X1077357Y564314D01*
X1077339Y564522D01*
X1077326Y564731D01*
X1077319Y564941D01*
X1077316Y565150D01*
X1014603Y273050D02*
X1014609Y273552D01*
X1014628Y274053D01*
X1014658Y274554D01*
X1014701Y275054D01*
X1014757Y275553D01*
X1014824Y276050D01*
X1014904Y276546D01*
X1014996Y277039D01*
X1015100Y277530D01*
X1015216Y278018D01*
X1015344Y278503D01*
X1015483Y278985D01*
X1015635Y279464D01*
X1015798Y279938D01*
X1015973Y280409D01*
X1016159Y280875D01*
X1016357Y281336D01*
X1016566Y281792D01*
X1016786Y282243D01*
X1017017Y282689D01*
X1017259Y283128D01*
X1017512Y283562D01*
X1017775Y283989D01*
X1018049Y284410D01*
X1018333Y284824D01*
X1018627Y285230D01*
X1018931Y285630D01*
X1019244Y286021D01*
X1019567Y286405D01*
X1019900Y286781D01*
X1020241Y287149D01*
X1020592Y287508D01*
X1020951Y287859D01*
X1021319Y288200D01*
X1021695Y288533D01*
X1022079Y288856D01*
X1022470Y289169D01*
X1022870Y289473D01*
X1023276Y289767D01*
X1023690Y290051D01*
X1024111Y290325D01*
X1024538Y290588D01*
X1024972Y290841D01*
X1025411Y291083D01*
X1025857Y291314D01*
X1026308Y291534D01*
X1026764Y291743D01*
X1027225Y291941D01*
X1027691Y292127D01*
X1028162Y292302D01*
X1028636Y292465D01*
X1029115Y292617D01*
X1029597Y292756D01*
X1030082Y292884D01*
X1030570Y293000D01*
X1031061Y293104D01*
X1031554Y293196D01*
X1032050Y293276D01*
X1032547Y293343D01*
X1033046Y293399D01*
X1033546Y293442D01*
X1034047Y293472D01*
X1034548Y293491D01*
X1035050Y293497D01*
X1035552Y293491D01*
X1036053Y293472D01*
X1036554Y293442D01*
X1037054Y293399D01*
X1037553Y293343D01*
X1038050Y293276D01*
X1038546Y293196D01*
X1039039Y293104D01*
X1039530Y293000D01*
X1040018Y292884D01*
X1040503Y292756D01*
X1040985Y292617D01*
X1041464Y292465D01*
X1041938Y292302D01*
X1042409Y292127D01*
X1042875Y291941D01*
X1043336Y291743D01*
X1043792Y291534D01*
X1044243Y291314D01*
X1044689Y291083D01*
X1045128Y290841D01*
X1045562Y290588D01*
X1045989Y290325D01*
X1046410Y290051D01*
X1046824Y289767D01*
X1047230Y289473D01*
X1047630Y289169D01*
X1048021Y288856D01*
X1048405Y288533D01*
X1048781Y288200D01*
X1049149Y287859D01*
X1049508Y287508D01*
X1049859Y287149D01*
X1050200Y286781D01*
X1050533Y286405D01*
X1050856Y286021D01*
X1051169Y285630D01*
X1051473Y285230D01*
X1051767Y284824D01*
X1052051Y284410D01*
X1052325Y283989D01*
X1052588Y283562D01*
X1052841Y283128D01*
X1053083Y282689D01*
X1053314Y282243D01*
X1053534Y281792D01*
X1053743Y281336D01*
X1053941Y280875D01*
X1054127Y280409D01*
X1054302Y279938D01*
X1054465Y279464D01*
X1054617Y278985D01*
X1054756Y278503D01*
X1054884Y278018D01*
X1055000Y277530D01*
X1055104Y277039D01*
X1055196Y276546D01*
X1055276Y276050D01*
X1055343Y275553D01*
X1055399Y275054D01*
X1055442Y274554D01*
X1055472Y274053D01*
X1055491Y273552D01*
X1055497Y273050D01*
X1055491Y272548D01*
X1055472Y272047D01*
X1055442Y271546D01*
X1055399Y271046D01*
X1055343Y270547D01*
X1055276Y270050D01*
X1055196Y269554D01*
X1055104Y269061D01*
X1055000Y268570D01*
X1054884Y268082D01*
X1054756Y267597D01*
X1054617Y267115D01*
X1054465Y266636D01*
X1054302Y266162D01*
X1054127Y265691D01*
X1053941Y265225D01*
X1053743Y264764D01*
X1053534Y264308D01*
X1053314Y263857D01*
X1053083Y263411D01*
X1052841Y262972D01*
X1052588Y262538D01*
X1052325Y262111D01*
X1052051Y261690D01*
X1051767Y261276D01*
X1051473Y260870D01*
X1051169Y260470D01*
X1050856Y260079D01*
X1050533Y259695D01*
X1050200Y259319D01*
X1049859Y258951D01*
X1049508Y258592D01*
X1049149Y258241D01*
X1048781Y257900D01*
X1048405Y257567D01*
X1048021Y257244D01*
X1047630Y256931D01*
X1047230Y256627D01*
X1046824Y256333D01*
X1046410Y256049D01*
X1045989Y255775D01*
X1045562Y255512D01*
X1045128Y255259D01*
X1044689Y255017D01*
X1044243Y254786D01*
X1043792Y254566D01*
X1043336Y254357D01*
X1042875Y254159D01*
X1042409Y253973D01*
X1041938Y253798D01*
X1041464Y253635D01*
X1040985Y253483D01*
X1040503Y253344D01*
X1040018Y253216D01*
X1039530Y253100D01*
X1039039Y252996D01*
X1038546Y252904D01*
X1038050Y252824D01*
X1037553Y252757D01*
X1037054Y252701D01*
X1036554Y252658D01*
X1036053Y252628D01*
X1035552Y252609D01*
X1035050Y252603D01*
X1034548Y252609D01*
X1034047Y252628D01*
X1033546Y252658D01*
X1033046Y252701D01*
X1032547Y252757D01*
X1032050Y252824D01*
X1031554Y252904D01*
X1031061Y252996D01*
X1030570Y253100D01*
X1030082Y253216D01*
X1029597Y253344D01*
X1029115Y253483D01*
X1028636Y253635D01*
X1028162Y253798D01*
X1027691Y253973D01*
X1027225Y254159D01*
X1026764Y254357D01*
X1026308Y254566D01*
X1025857Y254786D01*
X1025411Y255017D01*
X1024972Y255259D01*
X1024538Y255512D01*
X1024111Y255775D01*
X1023690Y256049D01*
X1023276Y256333D01*
X1022870Y256627D01*
X1022470Y256931D01*
X1022079Y257244D01*
X1021695Y257567D01*
X1021319Y257900D01*
X1020951Y258241D01*
X1020592Y258592D01*
X1020241Y258951D01*
X1019900Y259319D01*
X1019567Y259695D01*
X1019244Y260079D01*
X1018931Y260470D01*
X1018627Y260870D01*
X1018333Y261276D01*
X1018049Y261690D01*
X1017775Y262111D01*
X1017512Y262538D01*
X1017259Y262972D01*
X1017017Y263411D01*
X1016786Y263857D01*
X1016566Y264308D01*
X1016357Y264764D01*
X1016159Y265225D01*
X1015973Y265691D01*
X1015798Y266162D01*
X1015635Y266636D01*
X1015483Y267115D01*
X1015344Y267597D01*
X1015216Y268082D01*
X1015100Y268570D01*
X1014996Y269061D01*
X1014904Y269554D01*
X1014824Y270050D01*
X1014757Y270547D01*
X1014701Y271046D01*
X1014658Y271546D01*
X1014628Y272047D01*
X1014609Y272548D01*
X1014603Y273050D01*
X975716Y273050D02*
X975719Y273259D01*
X975726Y273469D01*
X975739Y273678D01*
X975757Y273886D01*
X975780Y274095D01*
X975808Y274302D01*
X975842Y274509D01*
X975880Y274715D01*
X975923Y274920D01*
X975972Y275124D01*
X976025Y275326D01*
X976083Y275527D01*
X976147Y275727D01*
X976215Y275925D01*
X976288Y276121D01*
X976366Y276316D01*
X976448Y276508D01*
X976535Y276699D01*
X976627Y276887D01*
X976724Y277073D01*
X976825Y277256D01*
X976930Y277437D01*
X977040Y277616D01*
X977154Y277791D01*
X977273Y277964D01*
X977395Y278134D01*
X977522Y278300D01*
X977653Y278464D01*
X977788Y278624D01*
X977927Y278781D01*
X978069Y278935D01*
X978216Y279084D01*
X978365Y279231D01*
X978519Y279373D01*
X978676Y279512D01*
X978836Y279647D01*
X979000Y279778D01*
X979166Y279905D01*
X979336Y280027D01*
X979509Y280146D01*
X979684Y280260D01*
X979863Y280370D01*
X980044Y280475D01*
X980227Y280576D01*
X980413Y280673D01*
X980601Y280765D01*
X980792Y280852D01*
X980984Y280934D01*
X981179Y281012D01*
X981375Y281085D01*
X981573Y281153D01*
X981773Y281217D01*
X981974Y281275D01*
X982176Y281328D01*
X982380Y281377D01*
X982585Y281420D01*
X982791Y281458D01*
X982998Y281492D01*
X983205Y281520D01*
X983414Y281543D01*
X983622Y281561D01*
X983831Y281574D01*
X984041Y281581D01*
X984250Y281584D01*
X984459Y281581D01*
X984669Y281574D01*
X984878Y281561D01*
X985086Y281543D01*
X985295Y281520D01*
X985502Y281492D01*
X985709Y281458D01*
X985915Y281420D01*
X986120Y281377D01*
X986324Y281328D01*
X986526Y281275D01*
X986727Y281217D01*
X986927Y281153D01*
X987125Y281085D01*
X987321Y281012D01*
X987516Y280934D01*
X987708Y280852D01*
X987899Y280765D01*
X988087Y280673D01*
X988273Y280576D01*
X988456Y280475D01*
X988637Y280370D01*
X988816Y280260D01*
X988991Y280146D01*
X989164Y280027D01*
X989334Y279905D01*
X989500Y279778D01*
X989664Y279647D01*
X989824Y279512D01*
X989981Y279373D01*
X990135Y279231D01*
X990284Y279084D01*
X990431Y278935D01*
X990573Y278781D01*
X990712Y278624D01*
X990847Y278464D01*
X990978Y278300D01*
X991105Y278134D01*
X991227Y277964D01*
X991346Y277791D01*
X991460Y277616D01*
X991570Y277437D01*
X991675Y277256D01*
X991776Y277073D01*
X991873Y276887D01*
X991965Y276699D01*
X992052Y276508D01*
X992134Y276316D01*
X992212Y276121D01*
X992285Y275925D01*
X992353Y275727D01*
X992417Y275527D01*
X992475Y275326D01*
X992528Y275124D01*
X992577Y274920D01*
X992620Y274715D01*
X992658Y274509D01*
X992692Y274302D01*
X992720Y274095D01*
X992743Y273886D01*
X992761Y273678D01*
X992774Y273469D01*
X992781Y273259D01*
X992784Y273050D01*
X992781Y272841D01*
X992774Y272631D01*
X992761Y272422D01*
X992743Y272214D01*
X992720Y272005D01*
X992692Y271798D01*
X992658Y271591D01*
X992620Y271385D01*
X992577Y271180D01*
X992528Y270976D01*
X992475Y270774D01*
X992417Y270573D01*
X992353Y270373D01*
X992285Y270175D01*
X992212Y269979D01*
X992134Y269784D01*
X992052Y269592D01*
X991965Y269401D01*
X991873Y269213D01*
X991776Y269027D01*
X991675Y268844D01*
X991570Y268663D01*
X991460Y268484D01*
X991346Y268309D01*
X991227Y268136D01*
X991105Y267966D01*
X990978Y267800D01*
X990847Y267636D01*
X990712Y267476D01*
X990573Y267319D01*
X990431Y267165D01*
X990284Y267016D01*
X990135Y266869D01*
X989981Y266727D01*
X989824Y266588D01*
X989664Y266453D01*
X989500Y266322D01*
X989334Y266195D01*
X989164Y266073D01*
X988991Y265954D01*
X988816Y265840D01*
X988637Y265730D01*
X988456Y265625D01*
X988273Y265524D01*
X988087Y265427D01*
X987899Y265335D01*
X987708Y265248D01*
X987516Y265166D01*
X987321Y265088D01*
X987125Y265015D01*
X986927Y264947D01*
X986727Y264883D01*
X986526Y264825D01*
X986324Y264772D01*
X986120Y264723D01*
X985915Y264680D01*
X985709Y264642D01*
X985502Y264608D01*
X985295Y264580D01*
X985086Y264557D01*
X984878Y264539D01*
X984669Y264526D01*
X984459Y264519D01*
X984250Y264516D01*
X984041Y264519D01*
X983831Y264526D01*
X983622Y264539D01*
X983414Y264557D01*
X983205Y264580D01*
X982998Y264608D01*
X982791Y264642D01*
X982585Y264680D01*
X982380Y264723D01*
X982176Y264772D01*
X981974Y264825D01*
X981773Y264883D01*
X981573Y264947D01*
X981375Y265015D01*
X981179Y265088D01*
X980984Y265166D01*
X980792Y265248D01*
X980601Y265335D01*
X980413Y265427D01*
X980227Y265524D01*
X980044Y265625D01*
X979863Y265730D01*
X979684Y265840D01*
X979509Y265954D01*
X979336Y266073D01*
X979166Y266195D01*
X979000Y266322D01*
X978836Y266453D01*
X978676Y266588D01*
X978519Y266727D01*
X978365Y266869D01*
X978216Y267016D01*
X978069Y267165D01*
X977927Y267319D01*
X977788Y267476D01*
X977653Y267636D01*
X977522Y267800D01*
X977395Y267966D01*
X977273Y268136D01*
X977154Y268309D01*
X977040Y268484D01*
X976930Y268663D01*
X976825Y268844D01*
X976724Y269027D01*
X976627Y269213D01*
X976535Y269401D01*
X976448Y269592D01*
X976366Y269784D01*
X976288Y269979D01*
X976215Y270175D01*
X976147Y270373D01*
X976083Y270573D01*
X976025Y270774D01*
X975972Y270976D01*
X975923Y271180D01*
X975880Y271385D01*
X975842Y271591D01*
X975808Y271798D01*
X975780Y272005D01*
X975757Y272214D01*
X975739Y272422D01*
X975726Y272631D01*
X975719Y272841D01*
X975716Y273050D01*
X1077316Y273050D02*
X1077319Y273259D01*
X1077326Y273469D01*
X1077339Y273678D01*
X1077357Y273886D01*
X1077380Y274095D01*
X1077408Y274302D01*
X1077442Y274509D01*
X1077480Y274715D01*
X1077523Y274920D01*
X1077572Y275124D01*
X1077625Y275326D01*
X1077683Y275527D01*
X1077747Y275727D01*
X1077815Y275925D01*
X1077888Y276121D01*
X1077966Y276316D01*
X1078048Y276508D01*
X1078135Y276699D01*
X1078227Y276887D01*
X1078324Y277073D01*
X1078425Y277256D01*
X1078530Y277437D01*
X1078640Y277616D01*
X1078754Y277791D01*
X1078873Y277964D01*
X1078995Y278134D01*
X1079122Y278300D01*
X1079253Y278464D01*
X1079388Y278624D01*
X1079527Y278781D01*
X1079669Y278935D01*
X1079816Y279084D01*
X1079965Y279231D01*
X1080119Y279373D01*
X1080276Y279512D01*
X1080436Y279647D01*
X1080600Y279778D01*
X1080766Y279905D01*
X1080936Y280027D01*
X1081109Y280146D01*
X1081284Y280260D01*
X1081463Y280370D01*
X1081644Y280475D01*
X1081827Y280576D01*
X1082013Y280673D01*
X1082201Y280765D01*
X1082392Y280852D01*
X1082584Y280934D01*
X1082779Y281012D01*
X1082975Y281085D01*
X1083173Y281153D01*
X1083373Y281217D01*
X1083574Y281275D01*
X1083776Y281328D01*
X1083980Y281377D01*
X1084185Y281420D01*
X1084391Y281458D01*
X1084598Y281492D01*
X1084805Y281520D01*
X1085014Y281543D01*
X1085222Y281561D01*
X1085431Y281574D01*
X1085641Y281581D01*
X1085850Y281584D01*
X1086059Y281581D01*
X1086269Y281574D01*
X1086478Y281561D01*
X1086686Y281543D01*
X1086895Y281520D01*
X1087102Y281492D01*
X1087309Y281458D01*
X1087515Y281420D01*
X1087720Y281377D01*
X1087924Y281328D01*
X1088126Y281275D01*
X1088327Y281217D01*
X1088527Y281153D01*
X1088725Y281085D01*
X1088921Y281012D01*
X1089116Y280934D01*
X1089308Y280852D01*
X1089499Y280765D01*
X1089687Y280673D01*
X1089873Y280576D01*
X1090056Y280475D01*
X1090237Y280370D01*
X1090416Y280260D01*
X1090591Y280146D01*
X1090764Y280027D01*
X1090934Y279905D01*
X1091100Y279778D01*
X1091264Y279647D01*
X1091424Y279512D01*
X1091581Y279373D01*
X1091735Y279231D01*
X1091884Y279084D01*
X1092031Y278935D01*
X1092173Y278781D01*
X1092312Y278624D01*
X1092447Y278464D01*
X1092578Y278300D01*
X1092705Y278134D01*
X1092827Y277964D01*
X1092946Y277791D01*
X1093060Y277616D01*
X1093170Y277437D01*
X1093275Y277256D01*
X1093376Y277073D01*
X1093473Y276887D01*
X1093565Y276699D01*
X1093652Y276508D01*
X1093734Y276316D01*
X1093812Y276121D01*
X1093885Y275925D01*
X1093953Y275727D01*
X1094017Y275527D01*
X1094075Y275326D01*
X1094128Y275124D01*
X1094177Y274920D01*
X1094220Y274715D01*
X1094258Y274509D01*
X1094292Y274302D01*
X1094320Y274095D01*
X1094343Y273886D01*
X1094361Y273678D01*
X1094374Y273469D01*
X1094381Y273259D01*
X1094384Y273050D01*
X1094381Y272841D01*
X1094374Y272631D01*
X1094361Y272422D01*
X1094343Y272214D01*
X1094320Y272005D01*
X1094292Y271798D01*
X1094258Y271591D01*
X1094220Y271385D01*
X1094177Y271180D01*
X1094128Y270976D01*
X1094075Y270774D01*
X1094017Y270573D01*
X1093953Y270373D01*
X1093885Y270175D01*
X1093812Y269979D01*
X1093734Y269784D01*
X1093652Y269592D01*
X1093565Y269401D01*
X1093473Y269213D01*
X1093376Y269027D01*
X1093275Y268844D01*
X1093170Y268663D01*
X1093060Y268484D01*
X1092946Y268309D01*
X1092827Y268136D01*
X1092705Y267966D01*
X1092578Y267800D01*
X1092447Y267636D01*
X1092312Y267476D01*
X1092173Y267319D01*
X1092031Y267165D01*
X1091884Y267016D01*
X1091735Y266869D01*
X1091581Y266727D01*
X1091424Y266588D01*
X1091264Y266453D01*
X1091100Y266322D01*
X1090934Y266195D01*
X1090764Y266073D01*
X1090591Y265954D01*
X1090416Y265840D01*
X1090237Y265730D01*
X1090056Y265625D01*
X1089873Y265524D01*
X1089687Y265427D01*
X1089499Y265335D01*
X1089308Y265248D01*
X1089116Y265166D01*
X1088921Y265088D01*
X1088725Y265015D01*
X1088527Y264947D01*
X1088327Y264883D01*
X1088126Y264825D01*
X1087924Y264772D01*
X1087720Y264723D01*
X1087515Y264680D01*
X1087309Y264642D01*
X1087102Y264608D01*
X1086895Y264580D01*
X1086686Y264557D01*
X1086478Y264539D01*
X1086269Y264526D01*
X1086059Y264519D01*
X1085850Y264516D01*
X1085641Y264519D01*
X1085431Y264526D01*
X1085222Y264539D01*
X1085014Y264557D01*
X1084805Y264580D01*
X1084598Y264608D01*
X1084391Y264642D01*
X1084185Y264680D01*
X1083980Y264723D01*
X1083776Y264772D01*
X1083574Y264825D01*
X1083373Y264883D01*
X1083173Y264947D01*
X1082975Y265015D01*
X1082779Y265088D01*
X1082584Y265166D01*
X1082392Y265248D01*
X1082201Y265335D01*
X1082013Y265427D01*
X1081827Y265524D01*
X1081644Y265625D01*
X1081463Y265730D01*
X1081284Y265840D01*
X1081109Y265954D01*
X1080936Y266073D01*
X1080766Y266195D01*
X1080600Y266322D01*
X1080436Y266453D01*
X1080276Y266588D01*
X1080119Y266727D01*
X1079965Y266869D01*
X1079816Y267016D01*
X1079669Y267165D01*
X1079527Y267319D01*
X1079388Y267476D01*
X1079253Y267636D01*
X1079122Y267800D01*
X1078995Y267966D01*
X1078873Y268136D01*
X1078754Y268309D01*
X1078640Y268484D01*
X1078530Y268663D01*
X1078425Y268844D01*
X1078324Y269027D01*
X1078227Y269213D01*
X1078135Y269401D01*
X1078048Y269592D01*
X1077966Y269784D01*
X1077888Y269979D01*
X1077815Y270175D01*
X1077747Y270373D01*
X1077683Y270573D01*
X1077625Y270774D01*
X1077572Y270976D01*
X1077523Y271180D01*
X1077480Y271385D01*
X1077442Y271591D01*
X1077408Y271798D01*
X1077380Y272005D01*
X1077357Y272214D01*
X1077339Y272422D01*
X1077326Y272631D01*
X1077319Y272841D01*
X1077316Y273050D01*
X2564003Y565150D02*
X2564009Y565652D01*
X2564028Y566153D01*
X2564058Y566654D01*
X2564101Y567154D01*
X2564157Y567653D01*
X2564224Y568150D01*
X2564304Y568646D01*
X2564396Y569139D01*
X2564500Y569630D01*
X2564616Y570118D01*
X2564744Y570603D01*
X2564883Y571085D01*
X2565035Y571564D01*
X2565198Y572038D01*
X2565373Y572509D01*
X2565559Y572975D01*
X2565757Y573436D01*
X2565966Y573892D01*
X2566186Y574343D01*
X2566417Y574789D01*
X2566659Y575228D01*
X2566912Y575662D01*
X2567175Y576089D01*
X2567449Y576510D01*
X2567733Y576924D01*
X2568027Y577330D01*
X2568331Y577730D01*
X2568644Y578121D01*
X2568967Y578505D01*
X2569300Y578881D01*
X2569641Y579249D01*
X2569992Y579608D01*
X2570351Y579959D01*
X2570719Y580300D01*
X2571095Y580633D01*
X2571479Y580956D01*
X2571870Y581269D01*
X2572270Y581573D01*
X2572676Y581867D01*
X2573090Y582151D01*
X2573511Y582425D01*
X2573938Y582688D01*
X2574372Y582941D01*
X2574811Y583183D01*
X2575257Y583414D01*
X2575708Y583634D01*
X2576164Y583843D01*
X2576625Y584041D01*
X2577091Y584227D01*
X2577562Y584402D01*
X2578036Y584565D01*
X2578515Y584717D01*
X2578997Y584856D01*
X2579482Y584984D01*
X2579970Y585100D01*
X2580461Y585204D01*
X2580954Y585296D01*
X2581450Y585376D01*
X2581947Y585443D01*
X2582446Y585499D01*
X2582946Y585542D01*
X2583447Y585572D01*
X2583948Y585591D01*
X2584450Y585597D01*
X2584952Y585591D01*
X2585453Y585572D01*
X2585954Y585542D01*
X2586454Y585499D01*
X2586953Y585443D01*
X2587450Y585376D01*
X2587946Y585296D01*
X2588439Y585204D01*
X2588930Y585100D01*
X2589418Y584984D01*
X2589903Y584856D01*
X2590385Y584717D01*
X2590864Y584565D01*
X2591338Y584402D01*
X2591809Y584227D01*
X2592275Y584041D01*
X2592736Y583843D01*
X2593192Y583634D01*
X2593643Y583414D01*
X2594089Y583183D01*
X2594528Y582941D01*
X2594962Y582688D01*
X2595389Y582425D01*
X2595810Y582151D01*
X2596224Y581867D01*
X2596630Y581573D01*
X2597030Y581269D01*
X2597421Y580956D01*
X2597805Y580633D01*
X2598181Y580300D01*
X2598549Y579959D01*
X2598908Y579608D01*
X2599259Y579249D01*
X2599600Y578881D01*
X2599933Y578505D01*
X2600256Y578121D01*
X2600569Y577730D01*
X2600873Y577330D01*
X2601167Y576924D01*
X2601451Y576510D01*
X2601725Y576089D01*
X2601988Y575662D01*
X2602241Y575228D01*
X2602483Y574789D01*
X2602714Y574343D01*
X2602934Y573892D01*
X2603143Y573436D01*
X2603341Y572975D01*
X2603527Y572509D01*
X2603702Y572038D01*
X2603865Y571564D01*
X2604017Y571085D01*
X2604156Y570603D01*
X2604284Y570118D01*
X2604400Y569630D01*
X2604504Y569139D01*
X2604596Y568646D01*
X2604676Y568150D01*
X2604743Y567653D01*
X2604799Y567154D01*
X2604842Y566654D01*
X2604872Y566153D01*
X2604891Y565652D01*
X2604897Y565150D01*
X2604891Y564648D01*
X2604872Y564147D01*
X2604842Y563646D01*
X2604799Y563146D01*
X2604743Y562647D01*
X2604676Y562150D01*
X2604596Y561654D01*
X2604504Y561161D01*
X2604400Y560670D01*
X2604284Y560182D01*
X2604156Y559697D01*
X2604017Y559215D01*
X2603865Y558736D01*
X2603702Y558262D01*
X2603527Y557791D01*
X2603341Y557325D01*
X2603143Y556864D01*
X2602934Y556408D01*
X2602714Y555957D01*
X2602483Y555511D01*
X2602241Y555072D01*
X2601988Y554638D01*
X2601725Y554211D01*
X2601451Y553790D01*
X2601167Y553376D01*
X2600873Y552970D01*
X2600569Y552570D01*
X2600256Y552179D01*
X2599933Y551795D01*
X2599600Y551419D01*
X2599259Y551051D01*
X2598908Y550692D01*
X2598549Y550341D01*
X2598181Y550000D01*
X2597805Y549667D01*
X2597421Y549344D01*
X2597030Y549031D01*
X2596630Y548727D01*
X2596224Y548433D01*
X2595810Y548149D01*
X2595389Y547875D01*
X2594962Y547612D01*
X2594528Y547359D01*
X2594089Y547117D01*
X2593643Y546886D01*
X2593192Y546666D01*
X2592736Y546457D01*
X2592275Y546259D01*
X2591809Y546073D01*
X2591338Y545898D01*
X2590864Y545735D01*
X2590385Y545583D01*
X2589903Y545444D01*
X2589418Y545316D01*
X2588930Y545200D01*
X2588439Y545096D01*
X2587946Y545004D01*
X2587450Y544924D01*
X2586953Y544857D01*
X2586454Y544801D01*
X2585954Y544758D01*
X2585453Y544728D01*
X2584952Y544709D01*
X2584450Y544703D01*
X2583948Y544709D01*
X2583447Y544728D01*
X2582946Y544758D01*
X2582446Y544801D01*
X2581947Y544857D01*
X2581450Y544924D01*
X2580954Y545004D01*
X2580461Y545096D01*
X2579970Y545200D01*
X2579482Y545316D01*
X2578997Y545444D01*
X2578515Y545583D01*
X2578036Y545735D01*
X2577562Y545898D01*
X2577091Y546073D01*
X2576625Y546259D01*
X2576164Y546457D01*
X2575708Y546666D01*
X2575257Y546886D01*
X2574811Y547117D01*
X2574372Y547359D01*
X2573938Y547612D01*
X2573511Y547875D01*
X2573090Y548149D01*
X2572676Y548433D01*
X2572270Y548727D01*
X2571870Y549031D01*
X2571479Y549344D01*
X2571095Y549667D01*
X2570719Y550000D01*
X2570351Y550341D01*
X2569992Y550692D01*
X2569641Y551051D01*
X2569300Y551419D01*
X2568967Y551795D01*
X2568644Y552179D01*
X2568331Y552570D01*
X2568027Y552970D01*
X2567733Y553376D01*
X2567449Y553790D01*
X2567175Y554211D01*
X2566912Y554638D01*
X2566659Y555072D01*
X2566417Y555511D01*
X2566186Y555957D01*
X2565966Y556408D01*
X2565757Y556864D01*
X2565559Y557325D01*
X2565373Y557791D01*
X2565198Y558262D01*
X2565035Y558736D01*
X2564883Y559215D01*
X2564744Y559697D01*
X2564616Y560182D01*
X2564500Y560670D01*
X2564396Y561161D01*
X2564304Y561654D01*
X2564224Y562150D01*
X2564157Y562647D01*
X2564101Y563146D01*
X2564058Y563646D01*
X2564028Y564147D01*
X2564009Y564648D01*
X2564003Y565150D01*
X2525116Y565150D02*
X2525119Y565359D01*
X2525126Y565569D01*
X2525139Y565778D01*
X2525157Y565986D01*
X2525180Y566195D01*
X2525208Y566402D01*
X2525242Y566609D01*
X2525280Y566815D01*
X2525323Y567020D01*
X2525372Y567224D01*
X2525425Y567426D01*
X2525483Y567627D01*
X2525547Y567827D01*
X2525615Y568025D01*
X2525688Y568221D01*
X2525766Y568416D01*
X2525848Y568608D01*
X2525935Y568799D01*
X2526027Y568987D01*
X2526124Y569173D01*
X2526225Y569356D01*
X2526330Y569537D01*
X2526440Y569716D01*
X2526554Y569891D01*
X2526673Y570064D01*
X2526795Y570234D01*
X2526922Y570400D01*
X2527053Y570564D01*
X2527188Y570724D01*
X2527327Y570881D01*
X2527469Y571035D01*
X2527616Y571184D01*
X2527765Y571331D01*
X2527919Y571473D01*
X2528076Y571612D01*
X2528236Y571747D01*
X2528400Y571878D01*
X2528566Y572005D01*
X2528736Y572127D01*
X2528909Y572246D01*
X2529084Y572360D01*
X2529263Y572470D01*
X2529444Y572575D01*
X2529627Y572676D01*
X2529813Y572773D01*
X2530001Y572865D01*
X2530192Y572952D01*
X2530384Y573034D01*
X2530579Y573112D01*
X2530775Y573185D01*
X2530973Y573253D01*
X2531173Y573317D01*
X2531374Y573375D01*
X2531576Y573428D01*
X2531780Y573477D01*
X2531985Y573520D01*
X2532191Y573558D01*
X2532398Y573592D01*
X2532605Y573620D01*
X2532814Y573643D01*
X2533022Y573661D01*
X2533231Y573674D01*
X2533441Y573681D01*
X2533650Y573684D01*
X2533859Y573681D01*
X2534069Y573674D01*
X2534278Y573661D01*
X2534486Y573643D01*
X2534695Y573620D01*
X2534902Y573592D01*
X2535109Y573558D01*
X2535315Y573520D01*
X2535520Y573477D01*
X2535724Y573428D01*
X2535926Y573375D01*
X2536127Y573317D01*
X2536327Y573253D01*
X2536525Y573185D01*
X2536721Y573112D01*
X2536916Y573034D01*
X2537108Y572952D01*
X2537299Y572865D01*
X2537487Y572773D01*
X2537673Y572676D01*
X2537856Y572575D01*
X2538037Y572470D01*
X2538216Y572360D01*
X2538391Y572246D01*
X2538564Y572127D01*
X2538734Y572005D01*
X2538900Y571878D01*
X2539064Y571747D01*
X2539224Y571612D01*
X2539381Y571473D01*
X2539535Y571331D01*
X2539684Y571184D01*
X2539831Y571035D01*
X2539973Y570881D01*
X2540112Y570724D01*
X2540247Y570564D01*
X2540378Y570400D01*
X2540505Y570234D01*
X2540627Y570064D01*
X2540746Y569891D01*
X2540860Y569716D01*
X2540970Y569537D01*
X2541075Y569356D01*
X2541176Y569173D01*
X2541273Y568987D01*
X2541365Y568799D01*
X2541452Y568608D01*
X2541534Y568416D01*
X2541612Y568221D01*
X2541685Y568025D01*
X2541753Y567827D01*
X2541817Y567627D01*
X2541875Y567426D01*
X2541928Y567224D01*
X2541977Y567020D01*
X2542020Y566815D01*
X2542058Y566609D01*
X2542092Y566402D01*
X2542120Y566195D01*
X2542143Y565986D01*
X2542161Y565778D01*
X2542174Y565569D01*
X2542181Y565359D01*
X2542184Y565150D01*
X2542181Y564941D01*
X2542174Y564731D01*
X2542161Y564522D01*
X2542143Y564314D01*
X2542120Y564105D01*
X2542092Y563898D01*
X2542058Y563691D01*
X2542020Y563485D01*
X2541977Y563280D01*
X2541928Y563076D01*
X2541875Y562874D01*
X2541817Y562673D01*
X2541753Y562473D01*
X2541685Y562275D01*
X2541612Y562079D01*
X2541534Y561884D01*
X2541452Y561692D01*
X2541365Y561501D01*
X2541273Y561313D01*
X2541176Y561127D01*
X2541075Y560944D01*
X2540970Y560763D01*
X2540860Y560584D01*
X2540746Y560409D01*
X2540627Y560236D01*
X2540505Y560066D01*
X2540378Y559900D01*
X2540247Y559736D01*
X2540112Y559576D01*
X2539973Y559419D01*
X2539831Y559265D01*
X2539684Y559116D01*
X2539535Y558969D01*
X2539381Y558827D01*
X2539224Y558688D01*
X2539064Y558553D01*
X2538900Y558422D01*
X2538734Y558295D01*
X2538564Y558173D01*
X2538391Y558054D01*
X2538216Y557940D01*
X2538037Y557830D01*
X2537856Y557725D01*
X2537673Y557624D01*
X2537487Y557527D01*
X2537299Y557435D01*
X2537108Y557348D01*
X2536916Y557266D01*
X2536721Y557188D01*
X2536525Y557115D01*
X2536327Y557047D01*
X2536127Y556983D01*
X2535926Y556925D01*
X2535724Y556872D01*
X2535520Y556823D01*
X2535315Y556780D01*
X2535109Y556742D01*
X2534902Y556708D01*
X2534695Y556680D01*
X2534486Y556657D01*
X2534278Y556639D01*
X2534069Y556626D01*
X2533859Y556619D01*
X2533650Y556616D01*
X2533441Y556619D01*
X2533231Y556626D01*
X2533022Y556639D01*
X2532814Y556657D01*
X2532605Y556680D01*
X2532398Y556708D01*
X2532191Y556742D01*
X2531985Y556780D01*
X2531780Y556823D01*
X2531576Y556872D01*
X2531374Y556925D01*
X2531173Y556983D01*
X2530973Y557047D01*
X2530775Y557115D01*
X2530579Y557188D01*
X2530384Y557266D01*
X2530192Y557348D01*
X2530001Y557435D01*
X2529813Y557527D01*
X2529627Y557624D01*
X2529444Y557725D01*
X2529263Y557830D01*
X2529084Y557940D01*
X2528909Y558054D01*
X2528736Y558173D01*
X2528566Y558295D01*
X2528400Y558422D01*
X2528236Y558553D01*
X2528076Y558688D01*
X2527919Y558827D01*
X2527765Y558969D01*
X2527616Y559116D01*
X2527469Y559265D01*
X2527327Y559419D01*
X2527188Y559576D01*
X2527053Y559736D01*
X2526922Y559900D01*
X2526795Y560066D01*
X2526673Y560236D01*
X2526554Y560409D01*
X2526440Y560584D01*
X2526330Y560763D01*
X2526225Y560944D01*
X2526124Y561127D01*
X2526027Y561313D01*
X2525935Y561501D01*
X2525848Y561692D01*
X2525766Y561884D01*
X2525688Y562079D01*
X2525615Y562275D01*
X2525547Y562473D01*
X2525483Y562673D01*
X2525425Y562874D01*
X2525372Y563076D01*
X2525323Y563280D01*
X2525280Y563485D01*
X2525242Y563691D01*
X2525208Y563898D01*
X2525180Y564105D01*
X2525157Y564314D01*
X2525139Y564522D01*
X2525126Y564731D01*
X2525119Y564941D01*
X2525116Y565150D01*
X2626716Y565150D02*
X2626719Y565359D01*
X2626726Y565569D01*
X2626739Y565778D01*
X2626757Y565986D01*
X2626780Y566195D01*
X2626808Y566402D01*
X2626842Y566609D01*
X2626880Y566815D01*
X2626923Y567020D01*
X2626972Y567224D01*
X2627025Y567426D01*
X2627083Y567627D01*
X2627147Y567827D01*
X2627215Y568025D01*
X2627288Y568221D01*
X2627366Y568416D01*
X2627448Y568608D01*
X2627535Y568799D01*
X2627627Y568987D01*
X2627724Y569173D01*
X2627825Y569356D01*
X2627930Y569537D01*
X2628040Y569716D01*
X2628154Y569891D01*
X2628273Y570064D01*
X2628395Y570234D01*
X2628522Y570400D01*
X2628653Y570564D01*
X2628788Y570724D01*
X2628927Y570881D01*
X2629069Y571035D01*
X2629216Y571184D01*
X2629365Y571331D01*
X2629519Y571473D01*
X2629676Y571612D01*
X2629836Y571747D01*
X2630000Y571878D01*
X2630166Y572005D01*
X2630336Y572127D01*
X2630509Y572246D01*
X2630684Y572360D01*
X2630863Y572470D01*
X2631044Y572575D01*
X2631227Y572676D01*
X2631413Y572773D01*
X2631601Y572865D01*
X2631792Y572952D01*
X2631984Y573034D01*
X2632179Y573112D01*
X2632375Y573185D01*
X2632573Y573253D01*
X2632773Y573317D01*
X2632974Y573375D01*
X2633176Y573428D01*
X2633380Y573477D01*
X2633585Y573520D01*
X2633791Y573558D01*
X2633998Y573592D01*
X2634205Y573620D01*
X2634414Y573643D01*
X2634622Y573661D01*
X2634831Y573674D01*
X2635041Y573681D01*
X2635250Y573684D01*
X2635459Y573681D01*
X2635669Y573674D01*
X2635878Y573661D01*
X2636086Y573643D01*
X2636295Y573620D01*
X2636502Y573592D01*
X2636709Y573558D01*
X2636915Y573520D01*
X2637120Y573477D01*
X2637324Y573428D01*
X2637526Y573375D01*
X2637727Y573317D01*
X2637927Y573253D01*
X2638125Y573185D01*
X2638321Y573112D01*
X2638516Y573034D01*
X2638708Y572952D01*
X2638899Y572865D01*
X2639087Y572773D01*
X2639273Y572676D01*
X2639456Y572575D01*
X2639637Y572470D01*
X2639816Y572360D01*
X2639991Y572246D01*
X2640164Y572127D01*
X2640334Y572005D01*
X2640500Y571878D01*
X2640664Y571747D01*
X2640824Y571612D01*
X2640981Y571473D01*
X2641135Y571331D01*
X2641284Y571184D01*
X2641431Y571035D01*
X2641573Y570881D01*
X2641712Y570724D01*
X2641847Y570564D01*
X2641978Y570400D01*
X2642105Y570234D01*
X2642227Y570064D01*
X2642346Y569891D01*
X2642460Y569716D01*
X2642570Y569537D01*
X2642675Y569356D01*
X2642776Y569173D01*
X2642873Y568987D01*
X2642965Y568799D01*
X2643052Y568608D01*
X2643134Y568416D01*
X2643212Y568221D01*
X2643285Y568025D01*
X2643353Y567827D01*
X2643417Y567627D01*
X2643475Y567426D01*
X2643528Y567224D01*
X2643577Y567020D01*
X2643620Y566815D01*
X2643658Y566609D01*
X2643692Y566402D01*
X2643720Y566195D01*
X2643743Y565986D01*
X2643761Y565778D01*
X2643774Y565569D01*
X2643781Y565359D01*
X2643784Y565150D01*
X2643781Y564941D01*
X2643774Y564731D01*
X2643761Y564522D01*
X2643743Y564314D01*
X2643720Y564105D01*
X2643692Y563898D01*
X2643658Y563691D01*
X2643620Y563485D01*
X2643577Y563280D01*
X2643528Y563076D01*
X2643475Y562874D01*
X2643417Y562673D01*
X2643353Y562473D01*
X2643285Y562275D01*
X2643212Y562079D01*
X2643134Y561884D01*
X2643052Y561692D01*
X2642965Y561501D01*
X2642873Y561313D01*
X2642776Y561127D01*
X2642675Y560944D01*
X2642570Y560763D01*
X2642460Y560584D01*
X2642346Y560409D01*
X2642227Y560236D01*
X2642105Y560066D01*
X2641978Y559900D01*
X2641847Y559736D01*
X2641712Y559576D01*
X2641573Y559419D01*
X2641431Y559265D01*
X2641284Y559116D01*
X2641135Y558969D01*
X2640981Y558827D01*
X2640824Y558688D01*
X2640664Y558553D01*
X2640500Y558422D01*
X2640334Y558295D01*
X2640164Y558173D01*
X2639991Y558054D01*
X2639816Y557940D01*
X2639637Y557830D01*
X2639456Y557725D01*
X2639273Y557624D01*
X2639087Y557527D01*
X2638899Y557435D01*
X2638708Y557348D01*
X2638516Y557266D01*
X2638321Y557188D01*
X2638125Y557115D01*
X2637927Y557047D01*
X2637727Y556983D01*
X2637526Y556925D01*
X2637324Y556872D01*
X2637120Y556823D01*
X2636915Y556780D01*
X2636709Y556742D01*
X2636502Y556708D01*
X2636295Y556680D01*
X2636086Y556657D01*
X2635878Y556639D01*
X2635669Y556626D01*
X2635459Y556619D01*
X2635250Y556616D01*
X2635041Y556619D01*
X2634831Y556626D01*
X2634622Y556639D01*
X2634414Y556657D01*
X2634205Y556680D01*
X2633998Y556708D01*
X2633791Y556742D01*
X2633585Y556780D01*
X2633380Y556823D01*
X2633176Y556872D01*
X2632974Y556925D01*
X2632773Y556983D01*
X2632573Y557047D01*
X2632375Y557115D01*
X2632179Y557188D01*
X2631984Y557266D01*
X2631792Y557348D01*
X2631601Y557435D01*
X2631413Y557527D01*
X2631227Y557624D01*
X2631044Y557725D01*
X2630863Y557830D01*
X2630684Y557940D01*
X2630509Y558054D01*
X2630336Y558173D01*
X2630166Y558295D01*
X2630000Y558422D01*
X2629836Y558553D01*
X2629676Y558688D01*
X2629519Y558827D01*
X2629365Y558969D01*
X2629216Y559116D01*
X2629069Y559265D01*
X2628927Y559419D01*
X2628788Y559576D01*
X2628653Y559736D01*
X2628522Y559900D01*
X2628395Y560066D01*
X2628273Y560236D01*
X2628154Y560409D01*
X2628040Y560584D01*
X2627930Y560763D01*
X2627825Y560944D01*
X2627724Y561127D01*
X2627627Y561313D01*
X2627535Y561501D01*
X2627448Y561692D01*
X2627366Y561884D01*
X2627288Y562079D01*
X2627215Y562275D01*
X2627147Y562473D01*
X2627083Y562673D01*
X2627025Y562874D01*
X2626972Y563076D01*
X2626923Y563280D01*
X2626880Y563485D01*
X2626842Y563691D01*
X2626808Y563898D01*
X2626780Y564105D01*
X2626757Y564314D01*
X2626739Y564522D01*
X2626726Y564731D01*
X2626719Y564941D01*
X2626716Y565150D01*
X2081403Y412750D02*
X2081409Y413252D01*
X2081428Y413753D01*
X2081458Y414254D01*
X2081501Y414754D01*
X2081557Y415253D01*
X2081624Y415750D01*
X2081704Y416246D01*
X2081796Y416739D01*
X2081900Y417230D01*
X2082016Y417718D01*
X2082144Y418203D01*
X2082283Y418685D01*
X2082435Y419164D01*
X2082598Y419638D01*
X2082773Y420109D01*
X2082959Y420575D01*
X2083157Y421036D01*
X2083366Y421492D01*
X2083586Y421943D01*
X2083817Y422389D01*
X2084059Y422828D01*
X2084312Y423262D01*
X2084575Y423689D01*
X2084849Y424110D01*
X2085133Y424524D01*
X2085427Y424930D01*
X2085731Y425330D01*
X2086044Y425721D01*
X2086367Y426105D01*
X2086700Y426481D01*
X2087041Y426849D01*
X2087392Y427208D01*
X2087751Y427559D01*
X2088119Y427900D01*
X2088495Y428233D01*
X2088879Y428556D01*
X2089270Y428869D01*
X2089670Y429173D01*
X2090076Y429467D01*
X2090490Y429751D01*
X2090911Y430025D01*
X2091338Y430288D01*
X2091772Y430541D01*
X2092211Y430783D01*
X2092657Y431014D01*
X2093108Y431234D01*
X2093564Y431443D01*
X2094025Y431641D01*
X2094491Y431827D01*
X2094962Y432002D01*
X2095436Y432165D01*
X2095915Y432317D01*
X2096397Y432456D01*
X2096882Y432584D01*
X2097370Y432700D01*
X2097861Y432804D01*
X2098354Y432896D01*
X2098850Y432976D01*
X2099347Y433043D01*
X2099846Y433099D01*
X2100346Y433142D01*
X2100847Y433172D01*
X2101348Y433191D01*
X2101850Y433197D01*
X2102352Y433191D01*
X2102853Y433172D01*
X2103354Y433142D01*
X2103854Y433099D01*
X2104353Y433043D01*
X2104850Y432976D01*
X2105346Y432896D01*
X2105839Y432804D01*
X2106330Y432700D01*
X2106818Y432584D01*
X2107303Y432456D01*
X2107785Y432317D01*
X2108264Y432165D01*
X2108738Y432002D01*
X2109209Y431827D01*
X2109675Y431641D01*
X2110136Y431443D01*
X2110592Y431234D01*
X2111043Y431014D01*
X2111489Y430783D01*
X2111928Y430541D01*
X2112362Y430288D01*
X2112789Y430025D01*
X2113210Y429751D01*
X2113624Y429467D01*
X2114030Y429173D01*
X2114430Y428869D01*
X2114821Y428556D01*
X2115205Y428233D01*
X2115581Y427900D01*
X2115949Y427559D01*
X2116308Y427208D01*
X2116659Y426849D01*
X2117000Y426481D01*
X2117333Y426105D01*
X2117656Y425721D01*
X2117969Y425330D01*
X2118273Y424930D01*
X2118567Y424524D01*
X2118851Y424110D01*
X2119125Y423689D01*
X2119388Y423262D01*
X2119641Y422828D01*
X2119883Y422389D01*
X2120114Y421943D01*
X2120334Y421492D01*
X2120543Y421036D01*
X2120741Y420575D01*
X2120927Y420109D01*
X2121102Y419638D01*
X2121265Y419164D01*
X2121417Y418685D01*
X2121556Y418203D01*
X2121684Y417718D01*
X2121800Y417230D01*
X2121904Y416739D01*
X2121996Y416246D01*
X2122076Y415750D01*
X2122143Y415253D01*
X2122199Y414754D01*
X2122242Y414254D01*
X2122272Y413753D01*
X2122291Y413252D01*
X2122297Y412750D01*
X2122291Y412248D01*
X2122272Y411747D01*
X2122242Y411246D01*
X2122199Y410746D01*
X2122143Y410247D01*
X2122076Y409750D01*
X2121996Y409254D01*
X2121904Y408761D01*
X2121800Y408270D01*
X2121684Y407782D01*
X2121556Y407297D01*
X2121417Y406815D01*
X2121265Y406336D01*
X2121102Y405862D01*
X2120927Y405391D01*
X2120741Y404925D01*
X2120543Y404464D01*
X2120334Y404008D01*
X2120114Y403557D01*
X2119883Y403111D01*
X2119641Y402672D01*
X2119388Y402238D01*
X2119125Y401811D01*
X2118851Y401390D01*
X2118567Y400976D01*
X2118273Y400570D01*
X2117969Y400170D01*
X2117656Y399779D01*
X2117333Y399395D01*
X2117000Y399019D01*
X2116659Y398651D01*
X2116308Y398292D01*
X2115949Y397941D01*
X2115581Y397600D01*
X2115205Y397267D01*
X2114821Y396944D01*
X2114430Y396631D01*
X2114030Y396327D01*
X2113624Y396033D01*
X2113210Y395749D01*
X2112789Y395475D01*
X2112362Y395212D01*
X2111928Y394959D01*
X2111489Y394717D01*
X2111043Y394486D01*
X2110592Y394266D01*
X2110136Y394057D01*
X2109675Y393859D01*
X2109209Y393673D01*
X2108738Y393498D01*
X2108264Y393335D01*
X2107785Y393183D01*
X2107303Y393044D01*
X2106818Y392916D01*
X2106330Y392800D01*
X2105839Y392696D01*
X2105346Y392604D01*
X2104850Y392524D01*
X2104353Y392457D01*
X2103854Y392401D01*
X2103354Y392358D01*
X2102853Y392328D01*
X2102352Y392309D01*
X2101850Y392303D01*
X2101348Y392309D01*
X2100847Y392328D01*
X2100346Y392358D01*
X2099846Y392401D01*
X2099347Y392457D01*
X2098850Y392524D01*
X2098354Y392604D01*
X2097861Y392696D01*
X2097370Y392800D01*
X2096882Y392916D01*
X2096397Y393044D01*
X2095915Y393183D01*
X2095436Y393335D01*
X2094962Y393498D01*
X2094491Y393673D01*
X2094025Y393859D01*
X2093564Y394057D01*
X2093108Y394266D01*
X2092657Y394486D01*
X2092211Y394717D01*
X2091772Y394959D01*
X2091338Y395212D01*
X2090911Y395475D01*
X2090490Y395749D01*
X2090076Y396033D01*
X2089670Y396327D01*
X2089270Y396631D01*
X2088879Y396944D01*
X2088495Y397267D01*
X2088119Y397600D01*
X2087751Y397941D01*
X2087392Y398292D01*
X2087041Y398651D01*
X2086700Y399019D01*
X2086367Y399395D01*
X2086044Y399779D01*
X2085731Y400170D01*
X2085427Y400570D01*
X2085133Y400976D01*
X2084849Y401390D01*
X2084575Y401811D01*
X2084312Y402238D01*
X2084059Y402672D01*
X2083817Y403111D01*
X2083586Y403557D01*
X2083366Y404008D01*
X2083157Y404464D01*
X2082959Y404925D01*
X2082773Y405391D01*
X2082598Y405862D01*
X2082435Y406336D01*
X2082283Y406815D01*
X2082144Y407297D01*
X2082016Y407782D01*
X2081900Y408270D01*
X2081796Y408761D01*
X2081704Y409254D01*
X2081624Y409750D01*
X2081557Y410247D01*
X2081501Y410746D01*
X2081458Y411246D01*
X2081428Y411747D01*
X2081409Y412248D01*
X2081403Y412750D01*
X2042516Y412750D02*
X2042519Y412959D01*
X2042526Y413169D01*
X2042539Y413378D01*
X2042557Y413586D01*
X2042580Y413795D01*
X2042608Y414002D01*
X2042642Y414209D01*
X2042680Y414415D01*
X2042723Y414620D01*
X2042772Y414824D01*
X2042825Y415026D01*
X2042883Y415227D01*
X2042947Y415427D01*
X2043015Y415625D01*
X2043088Y415821D01*
X2043166Y416016D01*
X2043248Y416208D01*
X2043335Y416399D01*
X2043427Y416587D01*
X2043524Y416773D01*
X2043625Y416956D01*
X2043730Y417137D01*
X2043840Y417316D01*
X2043954Y417491D01*
X2044073Y417664D01*
X2044195Y417834D01*
X2044322Y418000D01*
X2044453Y418164D01*
X2044588Y418324D01*
X2044727Y418481D01*
X2044869Y418635D01*
X2045016Y418784D01*
X2045165Y418931D01*
X2045319Y419073D01*
X2045476Y419212D01*
X2045636Y419347D01*
X2045800Y419478D01*
X2045966Y419605D01*
X2046136Y419727D01*
X2046309Y419846D01*
X2046484Y419960D01*
X2046663Y420070D01*
X2046844Y420175D01*
X2047027Y420276D01*
X2047213Y420373D01*
X2047401Y420465D01*
X2047592Y420552D01*
X2047784Y420634D01*
X2047979Y420712D01*
X2048175Y420785D01*
X2048373Y420853D01*
X2048573Y420917D01*
X2048774Y420975D01*
X2048976Y421028D01*
X2049180Y421077D01*
X2049385Y421120D01*
X2049591Y421158D01*
X2049798Y421192D01*
X2050005Y421220D01*
X2050214Y421243D01*
X2050422Y421261D01*
X2050631Y421274D01*
X2050841Y421281D01*
X2051050Y421284D01*
X2051259Y421281D01*
X2051469Y421274D01*
X2051678Y421261D01*
X2051886Y421243D01*
X2052095Y421220D01*
X2052302Y421192D01*
X2052509Y421158D01*
X2052715Y421120D01*
X2052920Y421077D01*
X2053124Y421028D01*
X2053326Y420975D01*
X2053527Y420917D01*
X2053727Y420853D01*
X2053925Y420785D01*
X2054121Y420712D01*
X2054316Y420634D01*
X2054508Y420552D01*
X2054699Y420465D01*
X2054887Y420373D01*
X2055073Y420276D01*
X2055256Y420175D01*
X2055437Y420070D01*
X2055616Y419960D01*
X2055791Y419846D01*
X2055964Y419727D01*
X2056134Y419605D01*
X2056300Y419478D01*
X2056464Y419347D01*
X2056624Y419212D01*
X2056781Y419073D01*
X2056935Y418931D01*
X2057084Y418784D01*
X2057231Y418635D01*
X2057373Y418481D01*
X2057512Y418324D01*
X2057647Y418164D01*
X2057778Y418000D01*
X2057905Y417834D01*
X2058027Y417664D01*
X2058146Y417491D01*
X2058260Y417316D01*
X2058370Y417137D01*
X2058475Y416956D01*
X2058576Y416773D01*
X2058673Y416587D01*
X2058765Y416399D01*
X2058852Y416208D01*
X2058934Y416016D01*
X2059012Y415821D01*
X2059085Y415625D01*
X2059153Y415427D01*
X2059217Y415227D01*
X2059275Y415026D01*
X2059328Y414824D01*
X2059377Y414620D01*
X2059420Y414415D01*
X2059458Y414209D01*
X2059492Y414002D01*
X2059520Y413795D01*
X2059543Y413586D01*
X2059561Y413378D01*
X2059574Y413169D01*
X2059581Y412959D01*
X2059584Y412750D01*
X2059581Y412541D01*
X2059574Y412331D01*
X2059561Y412122D01*
X2059543Y411914D01*
X2059520Y411705D01*
X2059492Y411498D01*
X2059458Y411291D01*
X2059420Y411085D01*
X2059377Y410880D01*
X2059328Y410676D01*
X2059275Y410474D01*
X2059217Y410273D01*
X2059153Y410073D01*
X2059085Y409875D01*
X2059012Y409679D01*
X2058934Y409484D01*
X2058852Y409292D01*
X2058765Y409101D01*
X2058673Y408913D01*
X2058576Y408727D01*
X2058475Y408544D01*
X2058370Y408363D01*
X2058260Y408184D01*
X2058146Y408009D01*
X2058027Y407836D01*
X2057905Y407666D01*
X2057778Y407500D01*
X2057647Y407336D01*
X2057512Y407176D01*
X2057373Y407019D01*
X2057231Y406865D01*
X2057084Y406716D01*
X2056935Y406569D01*
X2056781Y406427D01*
X2056624Y406288D01*
X2056464Y406153D01*
X2056300Y406022D01*
X2056134Y405895D01*
X2055964Y405773D01*
X2055791Y405654D01*
X2055616Y405540D01*
X2055437Y405430D01*
X2055256Y405325D01*
X2055073Y405224D01*
X2054887Y405127D01*
X2054699Y405035D01*
X2054508Y404948D01*
X2054316Y404866D01*
X2054121Y404788D01*
X2053925Y404715D01*
X2053727Y404647D01*
X2053527Y404583D01*
X2053326Y404525D01*
X2053124Y404472D01*
X2052920Y404423D01*
X2052715Y404380D01*
X2052509Y404342D01*
X2052302Y404308D01*
X2052095Y404280D01*
X2051886Y404257D01*
X2051678Y404239D01*
X2051469Y404226D01*
X2051259Y404219D01*
X2051050Y404216D01*
X2050841Y404219D01*
X2050631Y404226D01*
X2050422Y404239D01*
X2050214Y404257D01*
X2050005Y404280D01*
X2049798Y404308D01*
X2049591Y404342D01*
X2049385Y404380D01*
X2049180Y404423D01*
X2048976Y404472D01*
X2048774Y404525D01*
X2048573Y404583D01*
X2048373Y404647D01*
X2048175Y404715D01*
X2047979Y404788D01*
X2047784Y404866D01*
X2047592Y404948D01*
X2047401Y405035D01*
X2047213Y405127D01*
X2047027Y405224D01*
X2046844Y405325D01*
X2046663Y405430D01*
X2046484Y405540D01*
X2046309Y405654D01*
X2046136Y405773D01*
X2045966Y405895D01*
X2045800Y406022D01*
X2045636Y406153D01*
X2045476Y406288D01*
X2045319Y406427D01*
X2045165Y406569D01*
X2045016Y406716D01*
X2044869Y406865D01*
X2044727Y407019D01*
X2044588Y407176D01*
X2044453Y407336D01*
X2044322Y407500D01*
X2044195Y407666D01*
X2044073Y407836D01*
X2043954Y408009D01*
X2043840Y408184D01*
X2043730Y408363D01*
X2043625Y408544D01*
X2043524Y408727D01*
X2043427Y408913D01*
X2043335Y409101D01*
X2043248Y409292D01*
X2043166Y409484D01*
X2043088Y409679D01*
X2043015Y409875D01*
X2042947Y410073D01*
X2042883Y410273D01*
X2042825Y410474D01*
X2042772Y410676D01*
X2042723Y410880D01*
X2042680Y411085D01*
X2042642Y411291D01*
X2042608Y411498D01*
X2042580Y411705D01*
X2042557Y411914D01*
X2042539Y412122D01*
X2042526Y412331D01*
X2042519Y412541D01*
X2042516Y412750D01*
X2144116Y412750D02*
X2144119Y412959D01*
X2144126Y413169D01*
X2144139Y413378D01*
X2144157Y413586D01*
X2144180Y413795D01*
X2144208Y414002D01*
X2144242Y414209D01*
X2144280Y414415D01*
X2144323Y414620D01*
X2144372Y414824D01*
X2144425Y415026D01*
X2144483Y415227D01*
X2144547Y415427D01*
X2144615Y415625D01*
X2144688Y415821D01*
X2144766Y416016D01*
X2144848Y416208D01*
X2144935Y416399D01*
X2145027Y416587D01*
X2145124Y416773D01*
X2145225Y416956D01*
X2145330Y417137D01*
X2145440Y417316D01*
X2145554Y417491D01*
X2145673Y417664D01*
X2145795Y417834D01*
X2145922Y418000D01*
X2146053Y418164D01*
X2146188Y418324D01*
X2146327Y418481D01*
X2146469Y418635D01*
X2146616Y418784D01*
X2146765Y418931D01*
X2146919Y419073D01*
X2147076Y419212D01*
X2147236Y419347D01*
X2147400Y419478D01*
X2147566Y419605D01*
X2147736Y419727D01*
X2147909Y419846D01*
X2148084Y419960D01*
X2148263Y420070D01*
X2148444Y420175D01*
X2148627Y420276D01*
X2148813Y420373D01*
X2149001Y420465D01*
X2149192Y420552D01*
X2149384Y420634D01*
X2149579Y420712D01*
X2149775Y420785D01*
X2149973Y420853D01*
X2150173Y420917D01*
X2150374Y420975D01*
X2150576Y421028D01*
X2150780Y421077D01*
X2150985Y421120D01*
X2151191Y421158D01*
X2151398Y421192D01*
X2151605Y421220D01*
X2151814Y421243D01*
X2152022Y421261D01*
X2152231Y421274D01*
X2152441Y421281D01*
X2152650Y421284D01*
X2152859Y421281D01*
X2153069Y421274D01*
X2153278Y421261D01*
X2153486Y421243D01*
X2153695Y421220D01*
X2153902Y421192D01*
X2154109Y421158D01*
X2154315Y421120D01*
X2154520Y421077D01*
X2154724Y421028D01*
X2154926Y420975D01*
X2155127Y420917D01*
X2155327Y420853D01*
X2155525Y420785D01*
X2155721Y420712D01*
X2155916Y420634D01*
X2156108Y420552D01*
X2156299Y420465D01*
X2156487Y420373D01*
X2156673Y420276D01*
X2156856Y420175D01*
X2157037Y420070D01*
X2157216Y419960D01*
X2157391Y419846D01*
X2157564Y419727D01*
X2157734Y419605D01*
X2157900Y419478D01*
X2158064Y419347D01*
X2158224Y419212D01*
X2158381Y419073D01*
X2158535Y418931D01*
X2158684Y418784D01*
X2158831Y418635D01*
X2158973Y418481D01*
X2159112Y418324D01*
X2159247Y418164D01*
X2159378Y418000D01*
X2159505Y417834D01*
X2159627Y417664D01*
X2159746Y417491D01*
X2159860Y417316D01*
X2159970Y417137D01*
X2160075Y416956D01*
X2160176Y416773D01*
X2160273Y416587D01*
X2160365Y416399D01*
X2160452Y416208D01*
X2160534Y416016D01*
X2160612Y415821D01*
X2160685Y415625D01*
X2160753Y415427D01*
X2160817Y415227D01*
X2160875Y415026D01*
X2160928Y414824D01*
X2160977Y414620D01*
X2161020Y414415D01*
X2161058Y414209D01*
X2161092Y414002D01*
X2161120Y413795D01*
X2161143Y413586D01*
X2161161Y413378D01*
X2161174Y413169D01*
X2161181Y412959D01*
X2161184Y412750D01*
X2161181Y412541D01*
X2161174Y412331D01*
X2161161Y412122D01*
X2161143Y411914D01*
X2161120Y411705D01*
X2161092Y411498D01*
X2161058Y411291D01*
X2161020Y411085D01*
X2160977Y410880D01*
X2160928Y410676D01*
X2160875Y410474D01*
X2160817Y410273D01*
X2160753Y410073D01*
X2160685Y409875D01*
X2160612Y409679D01*
X2160534Y409484D01*
X2160452Y409292D01*
X2160365Y409101D01*
X2160273Y408913D01*
X2160176Y408727D01*
X2160075Y408544D01*
X2159970Y408363D01*
X2159860Y408184D01*
X2159746Y408009D01*
X2159627Y407836D01*
X2159505Y407666D01*
X2159378Y407500D01*
X2159247Y407336D01*
X2159112Y407176D01*
X2158973Y407019D01*
X2158831Y406865D01*
X2158684Y406716D01*
X2158535Y406569D01*
X2158381Y406427D01*
X2158224Y406288D01*
X2158064Y406153D01*
X2157900Y406022D01*
X2157734Y405895D01*
X2157564Y405773D01*
X2157391Y405654D01*
X2157216Y405540D01*
X2157037Y405430D01*
X2156856Y405325D01*
X2156673Y405224D01*
X2156487Y405127D01*
X2156299Y405035D01*
X2156108Y404948D01*
X2155916Y404866D01*
X2155721Y404788D01*
X2155525Y404715D01*
X2155327Y404647D01*
X2155127Y404583D01*
X2154926Y404525D01*
X2154724Y404472D01*
X2154520Y404423D01*
X2154315Y404380D01*
X2154109Y404342D01*
X2153902Y404308D01*
X2153695Y404280D01*
X2153486Y404257D01*
X2153278Y404239D01*
X2153069Y404226D01*
X2152859Y404219D01*
X2152650Y404216D01*
X2152441Y404219D01*
X2152231Y404226D01*
X2152022Y404239D01*
X2151814Y404257D01*
X2151605Y404280D01*
X2151398Y404308D01*
X2151191Y404342D01*
X2150985Y404380D01*
X2150780Y404423D01*
X2150576Y404472D01*
X2150374Y404525D01*
X2150173Y404583D01*
X2149973Y404647D01*
X2149775Y404715D01*
X2149579Y404788D01*
X2149384Y404866D01*
X2149192Y404948D01*
X2149001Y405035D01*
X2148813Y405127D01*
X2148627Y405224D01*
X2148444Y405325D01*
X2148263Y405430D01*
X2148084Y405540D01*
X2147909Y405654D01*
X2147736Y405773D01*
X2147566Y405895D01*
X2147400Y406022D01*
X2147236Y406153D01*
X2147076Y406288D01*
X2146919Y406427D01*
X2146765Y406569D01*
X2146616Y406716D01*
X2146469Y406865D01*
X2146327Y407019D01*
X2146188Y407176D01*
X2146053Y407336D01*
X2145922Y407500D01*
X2145795Y407666D01*
X2145673Y407836D01*
X2145554Y408009D01*
X2145440Y408184D01*
X2145330Y408363D01*
X2145225Y408544D01*
X2145124Y408727D01*
X2145027Y408913D01*
X2144935Y409101D01*
X2144848Y409292D01*
X2144766Y409484D01*
X2144688Y409679D01*
X2144615Y409875D01*
X2144547Y410073D01*
X2144483Y410273D01*
X2144425Y410474D01*
X2144372Y410676D01*
X2144323Y410880D01*
X2144280Y411085D01*
X2144242Y411291D01*
X2144208Y411498D01*
X2144180Y411705D01*
X2144157Y411914D01*
X2144139Y412122D01*
X2144126Y412331D01*
X2144119Y412541D01*
X2144116Y412750D01*
X2564003Y273050D02*
X2564009Y273552D01*
X2564028Y274053D01*
X2564058Y274554D01*
X2564101Y275054D01*
X2564157Y275553D01*
X2564224Y276050D01*
X2564304Y276546D01*
X2564396Y277039D01*
X2564500Y277530D01*
X2564616Y278018D01*
X2564744Y278503D01*
X2564883Y278985D01*
X2565035Y279464D01*
X2565198Y279938D01*
X2565373Y280409D01*
X2565559Y280875D01*
X2565757Y281336D01*
X2565966Y281792D01*
X2566186Y282243D01*
X2566417Y282689D01*
X2566659Y283128D01*
X2566912Y283562D01*
X2567175Y283989D01*
X2567449Y284410D01*
X2567733Y284824D01*
X2568027Y285230D01*
X2568331Y285630D01*
X2568644Y286021D01*
X2568967Y286405D01*
X2569300Y286781D01*
X2569641Y287149D01*
X2569992Y287508D01*
X2570351Y287859D01*
X2570719Y288200D01*
X2571095Y288533D01*
X2571479Y288856D01*
X2571870Y289169D01*
X2572270Y289473D01*
X2572676Y289767D01*
X2573090Y290051D01*
X2573511Y290325D01*
X2573938Y290588D01*
X2574372Y290841D01*
X2574811Y291083D01*
X2575257Y291314D01*
X2575708Y291534D01*
X2576164Y291743D01*
X2576625Y291941D01*
X2577091Y292127D01*
X2577562Y292302D01*
X2578036Y292465D01*
X2578515Y292617D01*
X2578997Y292756D01*
X2579482Y292884D01*
X2579970Y293000D01*
X2580461Y293104D01*
X2580954Y293196D01*
X2581450Y293276D01*
X2581947Y293343D01*
X2582446Y293399D01*
X2582946Y293442D01*
X2583447Y293472D01*
X2583948Y293491D01*
X2584450Y293497D01*
X2584952Y293491D01*
X2585453Y293472D01*
X2585954Y293442D01*
X2586454Y293399D01*
X2586953Y293343D01*
X2587450Y293276D01*
X2587946Y293196D01*
X2588439Y293104D01*
X2588930Y293000D01*
X2589418Y292884D01*
X2589903Y292756D01*
X2590385Y292617D01*
X2590864Y292465D01*
X2591338Y292302D01*
X2591809Y292127D01*
X2592275Y291941D01*
X2592736Y291743D01*
X2593192Y291534D01*
X2593643Y291314D01*
X2594089Y291083D01*
X2594528Y290841D01*
X2594962Y290588D01*
X2595389Y290325D01*
X2595810Y290051D01*
X2596224Y289767D01*
X2596630Y289473D01*
X2597030Y289169D01*
X2597421Y288856D01*
X2597805Y288533D01*
X2598181Y288200D01*
X2598549Y287859D01*
X2598908Y287508D01*
X2599259Y287149D01*
X2599600Y286781D01*
X2599933Y286405D01*
X2600256Y286021D01*
X2600569Y285630D01*
X2600873Y285230D01*
X2601167Y284824D01*
X2601451Y284410D01*
X2601725Y283989D01*
X2601988Y283562D01*
X2602241Y283128D01*
X2602483Y282689D01*
X2602714Y282243D01*
X2602934Y281792D01*
X2603143Y281336D01*
X2603341Y280875D01*
X2603527Y280409D01*
X2603702Y279938D01*
X2603865Y279464D01*
X2604017Y278985D01*
X2604156Y278503D01*
X2604284Y278018D01*
X2604400Y277530D01*
X2604504Y277039D01*
X2604596Y276546D01*
X2604676Y276050D01*
X2604743Y275553D01*
X2604799Y275054D01*
X2604842Y274554D01*
X2604872Y274053D01*
X2604891Y273552D01*
X2604897Y273050D01*
X2604891Y272548D01*
X2604872Y272047D01*
X2604842Y271546D01*
X2604799Y271046D01*
X2604743Y270547D01*
X2604676Y270050D01*
X2604596Y269554D01*
X2604504Y269061D01*
X2604400Y268570D01*
X2604284Y268082D01*
X2604156Y267597D01*
X2604017Y267115D01*
X2603865Y266636D01*
X2603702Y266162D01*
X2603527Y265691D01*
X2603341Y265225D01*
X2603143Y264764D01*
X2602934Y264308D01*
X2602714Y263857D01*
X2602483Y263411D01*
X2602241Y262972D01*
X2601988Y262538D01*
X2601725Y262111D01*
X2601451Y261690D01*
X2601167Y261276D01*
X2600873Y260870D01*
X2600569Y260470D01*
X2600256Y260079D01*
X2599933Y259695D01*
X2599600Y259319D01*
X2599259Y258951D01*
X2598908Y258592D01*
X2598549Y258241D01*
X2598181Y257900D01*
X2597805Y257567D01*
X2597421Y257244D01*
X2597030Y256931D01*
X2596630Y256627D01*
X2596224Y256333D01*
X2595810Y256049D01*
X2595389Y255775D01*
X2594962Y255512D01*
X2594528Y255259D01*
X2594089Y255017D01*
X2593643Y254786D01*
X2593192Y254566D01*
X2592736Y254357D01*
X2592275Y254159D01*
X2591809Y253973D01*
X2591338Y253798D01*
X2590864Y253635D01*
X2590385Y253483D01*
X2589903Y253344D01*
X2589418Y253216D01*
X2588930Y253100D01*
X2588439Y252996D01*
X2587946Y252904D01*
X2587450Y252824D01*
X2586953Y252757D01*
X2586454Y252701D01*
X2585954Y252658D01*
X2585453Y252628D01*
X2584952Y252609D01*
X2584450Y252603D01*
X2583948Y252609D01*
X2583447Y252628D01*
X2582946Y252658D01*
X2582446Y252701D01*
X2581947Y252757D01*
X2581450Y252824D01*
X2580954Y252904D01*
X2580461Y252996D01*
X2579970Y253100D01*
X2579482Y253216D01*
X2578997Y253344D01*
X2578515Y253483D01*
X2578036Y253635D01*
X2577562Y253798D01*
X2577091Y253973D01*
X2576625Y254159D01*
X2576164Y254357D01*
X2575708Y254566D01*
X2575257Y254786D01*
X2574811Y255017D01*
X2574372Y255259D01*
X2573938Y255512D01*
X2573511Y255775D01*
X2573090Y256049D01*
X2572676Y256333D01*
X2572270Y256627D01*
X2571870Y256931D01*
X2571479Y257244D01*
X2571095Y257567D01*
X2570719Y257900D01*
X2570351Y258241D01*
X2569992Y258592D01*
X2569641Y258951D01*
X2569300Y259319D01*
X2568967Y259695D01*
X2568644Y260079D01*
X2568331Y260470D01*
X2568027Y260870D01*
X2567733Y261276D01*
X2567449Y261690D01*
X2567175Y262111D01*
X2566912Y262538D01*
X2566659Y262972D01*
X2566417Y263411D01*
X2566186Y263857D01*
X2565966Y264308D01*
X2565757Y264764D01*
X2565559Y265225D01*
X2565373Y265691D01*
X2565198Y266162D01*
X2565035Y266636D01*
X2564883Y267115D01*
X2564744Y267597D01*
X2564616Y268082D01*
X2564500Y268570D01*
X2564396Y269061D01*
X2564304Y269554D01*
X2564224Y270050D01*
X2564157Y270547D01*
X2564101Y271046D01*
X2564058Y271546D01*
X2564028Y272047D01*
X2564009Y272548D01*
X2564003Y273050D01*
X2525116Y273050D02*
X2525119Y273259D01*
X2525126Y273469D01*
X2525139Y273678D01*
X2525157Y273886D01*
X2525180Y274095D01*
X2525208Y274302D01*
X2525242Y274509D01*
X2525280Y274715D01*
X2525323Y274920D01*
X2525372Y275124D01*
X2525425Y275326D01*
X2525483Y275527D01*
X2525547Y275727D01*
X2525615Y275925D01*
X2525688Y276121D01*
X2525766Y276316D01*
X2525848Y276508D01*
X2525935Y276699D01*
X2526027Y276887D01*
X2526124Y277073D01*
X2526225Y277256D01*
X2526330Y277437D01*
X2526440Y277616D01*
X2526554Y277791D01*
X2526673Y277964D01*
X2526795Y278134D01*
X2526922Y278300D01*
X2527053Y278464D01*
X2527188Y278624D01*
X2527327Y278781D01*
X2527469Y278935D01*
X2527616Y279084D01*
X2527765Y279231D01*
X2527919Y279373D01*
X2528076Y279512D01*
X2528236Y279647D01*
X2528400Y279778D01*
X2528566Y279905D01*
X2528736Y280027D01*
X2528909Y280146D01*
X2529084Y280260D01*
X2529263Y280370D01*
X2529444Y280475D01*
X2529627Y280576D01*
X2529813Y280673D01*
X2530001Y280765D01*
X2530192Y280852D01*
X2530384Y280934D01*
X2530579Y281012D01*
X2530775Y281085D01*
X2530973Y281153D01*
X2531173Y281217D01*
X2531374Y281275D01*
X2531576Y281328D01*
X2531780Y281377D01*
X2531985Y281420D01*
X2532191Y281458D01*
X2532398Y281492D01*
X2532605Y281520D01*
X2532814Y281543D01*
X2533022Y281561D01*
X2533231Y281574D01*
X2533441Y281581D01*
X2533650Y281584D01*
X2533859Y281581D01*
X2534069Y281574D01*
X2534278Y281561D01*
X2534486Y281543D01*
X2534695Y281520D01*
X2534902Y281492D01*
X2535109Y281458D01*
X2535315Y281420D01*
X2535520Y281377D01*
X2535724Y281328D01*
X2535926Y281275D01*
X2536127Y281217D01*
X2536327Y281153D01*
X2536525Y281085D01*
X2536721Y281012D01*
X2536916Y280934D01*
X2537108Y280852D01*
X2537299Y280765D01*
X2537487Y280673D01*
X2537673Y280576D01*
X2537856Y280475D01*
X2538037Y280370D01*
X2538216Y280260D01*
X2538391Y280146D01*
X2538564Y280027D01*
X2538734Y279905D01*
X2538900Y279778D01*
X2539064Y279647D01*
X2539224Y279512D01*
X2539381Y279373D01*
X2539535Y279231D01*
X2539684Y279084D01*
X2539831Y278935D01*
X2539973Y278781D01*
X2540112Y278624D01*
X2540247Y278464D01*
X2540378Y278300D01*
X2540505Y278134D01*
X2540627Y277964D01*
X2540746Y277791D01*
X2540860Y277616D01*
X2540970Y277437D01*
X2541075Y277256D01*
X2541176Y277073D01*
X2541273Y276887D01*
X2541365Y276699D01*
X2541452Y276508D01*
X2541534Y276316D01*
X2541612Y276121D01*
X2541685Y275925D01*
X2541753Y275727D01*
X2541817Y275527D01*
X2541875Y275326D01*
X2541928Y275124D01*
X2541977Y274920D01*
X2542020Y274715D01*
X2542058Y274509D01*
X2542092Y274302D01*
X2542120Y274095D01*
X2542143Y273886D01*
X2542161Y273678D01*
X2542174Y273469D01*
X2542181Y273259D01*
X2542184Y273050D01*
X2542181Y272841D01*
X2542174Y272631D01*
X2542161Y272422D01*
X2542143Y272214D01*
X2542120Y272005D01*
X2542092Y271798D01*
X2542058Y271591D01*
X2542020Y271385D01*
X2541977Y271180D01*
X2541928Y270976D01*
X2541875Y270774D01*
X2541817Y270573D01*
X2541753Y270373D01*
X2541685Y270175D01*
X2541612Y269979D01*
X2541534Y269784D01*
X2541452Y269592D01*
X2541365Y269401D01*
X2541273Y269213D01*
X2541176Y269027D01*
X2541075Y268844D01*
X2540970Y268663D01*
X2540860Y268484D01*
X2540746Y268309D01*
X2540627Y268136D01*
X2540505Y267966D01*
X2540378Y267800D01*
X2540247Y267636D01*
X2540112Y267476D01*
X2539973Y267319D01*
X2539831Y267165D01*
X2539684Y267016D01*
X2539535Y266869D01*
X2539381Y266727D01*
X2539224Y266588D01*
X2539064Y266453D01*
X2538900Y266322D01*
X2538734Y266195D01*
X2538564Y266073D01*
X2538391Y265954D01*
X2538216Y265840D01*
X2538037Y265730D01*
X2537856Y265625D01*
X2537673Y265524D01*
X2537487Y265427D01*
X2537299Y265335D01*
X2537108Y265248D01*
X2536916Y265166D01*
X2536721Y265088D01*
X2536525Y265015D01*
X2536327Y264947D01*
X2536127Y264883D01*
X2535926Y264825D01*
X2535724Y264772D01*
X2535520Y264723D01*
X2535315Y264680D01*
X2535109Y264642D01*
X2534902Y264608D01*
X2534695Y264580D01*
X2534486Y264557D01*
X2534278Y264539D01*
X2534069Y264526D01*
X2533859Y264519D01*
X2533650Y264516D01*
X2533441Y264519D01*
X2533231Y264526D01*
X2533022Y264539D01*
X2532814Y264557D01*
X2532605Y264580D01*
X2532398Y264608D01*
X2532191Y264642D01*
X2531985Y264680D01*
X2531780Y264723D01*
X2531576Y264772D01*
X2531374Y264825D01*
X2531173Y264883D01*
X2530973Y264947D01*
X2530775Y265015D01*
X2530579Y265088D01*
X2530384Y265166D01*
X2530192Y265248D01*
X2530001Y265335D01*
X2529813Y265427D01*
X2529627Y265524D01*
X2529444Y265625D01*
X2529263Y265730D01*
X2529084Y265840D01*
X2528909Y265954D01*
X2528736Y266073D01*
X2528566Y266195D01*
X2528400Y266322D01*
X2528236Y266453D01*
X2528076Y266588D01*
X2527919Y266727D01*
X2527765Y266869D01*
X2527616Y267016D01*
X2527469Y267165D01*
X2527327Y267319D01*
X2527188Y267476D01*
X2527053Y267636D01*
X2526922Y267800D01*
X2526795Y267966D01*
X2526673Y268136D01*
X2526554Y268309D01*
X2526440Y268484D01*
X2526330Y268663D01*
X2526225Y268844D01*
X2526124Y269027D01*
X2526027Y269213D01*
X2525935Y269401D01*
X2525848Y269592D01*
X2525766Y269784D01*
X2525688Y269979D01*
X2525615Y270175D01*
X2525547Y270373D01*
X2525483Y270573D01*
X2525425Y270774D01*
X2525372Y270976D01*
X2525323Y271180D01*
X2525280Y271385D01*
X2525242Y271591D01*
X2525208Y271798D01*
X2525180Y272005D01*
X2525157Y272214D01*
X2525139Y272422D01*
X2525126Y272631D01*
X2525119Y272841D01*
X2525116Y273050D01*
X2626716Y273050D02*
X2626719Y273259D01*
X2626726Y273469D01*
X2626739Y273678D01*
X2626757Y273886D01*
X2626780Y274095D01*
X2626808Y274302D01*
X2626842Y274509D01*
X2626880Y274715D01*
X2626923Y274920D01*
X2626972Y275124D01*
X2627025Y275326D01*
X2627083Y275527D01*
X2627147Y275727D01*
X2627215Y275925D01*
X2627288Y276121D01*
X2627366Y276316D01*
X2627448Y276508D01*
X2627535Y276699D01*
X2627627Y276887D01*
X2627724Y277073D01*
X2627825Y277256D01*
X2627930Y277437D01*
X2628040Y277616D01*
X2628154Y277791D01*
X2628273Y277964D01*
X2628395Y278134D01*
X2628522Y278300D01*
X2628653Y278464D01*
X2628788Y278624D01*
X2628927Y278781D01*
X2629069Y278935D01*
X2629216Y279084D01*
X2629365Y279231D01*
X2629519Y279373D01*
X2629676Y279512D01*
X2629836Y279647D01*
X2630000Y279778D01*
X2630166Y279905D01*
X2630336Y280027D01*
X2630509Y280146D01*
X2630684Y280260D01*
X2630863Y280370D01*
X2631044Y280475D01*
X2631227Y280576D01*
X2631413Y280673D01*
X2631601Y280765D01*
X2631792Y280852D01*
X2631984Y280934D01*
X2632179Y281012D01*
X2632375Y281085D01*
X2632573Y281153D01*
X2632773Y281217D01*
X2632974Y281275D01*
X2633176Y281328D01*
X2633380Y281377D01*
X2633585Y281420D01*
X2633791Y281458D01*
X2633998Y281492D01*
X2634205Y281520D01*
X2634414Y281543D01*
X2634622Y281561D01*
X2634831Y281574D01*
X2635041Y281581D01*
X2635250Y281584D01*
X2635459Y281581D01*
X2635669Y281574D01*
X2635878Y281561D01*
X2636086Y281543D01*
X2636295Y281520D01*
X2636502Y281492D01*
X2636709Y281458D01*
X2636915Y281420D01*
X2637120Y281377D01*
X2637324Y281328D01*
X2637526Y281275D01*
X2637727Y281217D01*
X2637927Y281153D01*
X2638125Y281085D01*
X2638321Y281012D01*
X2638516Y280934D01*
X2638708Y280852D01*
X2638899Y280765D01*
X2639087Y280673D01*
X2639273Y280576D01*
X2639456Y280475D01*
X2639637Y280370D01*
X2639816Y280260D01*
X2639991Y280146D01*
X2640164Y280027D01*
X2640334Y279905D01*
X2640500Y279778D01*
X2640664Y279647D01*
X2640824Y279512D01*
X2640981Y279373D01*
X2641135Y279231D01*
X2641284Y279084D01*
X2641431Y278935D01*
X2641573Y278781D01*
X2641712Y278624D01*
X2641847Y278464D01*
X2641978Y278300D01*
X2642105Y278134D01*
X2642227Y277964D01*
X2642346Y277791D01*
X2642460Y277616D01*
X2642570Y277437D01*
X2642675Y277256D01*
X2642776Y277073D01*
X2642873Y276887D01*
X2642965Y276699D01*
X2643052Y276508D01*
X2643134Y276316D01*
X2643212Y276121D01*
X2643285Y275925D01*
X2643353Y275727D01*
X2643417Y275527D01*
X2643475Y275326D01*
X2643528Y275124D01*
X2643577Y274920D01*
X2643620Y274715D01*
X2643658Y274509D01*
X2643692Y274302D01*
X2643720Y274095D01*
X2643743Y273886D01*
X2643761Y273678D01*
X2643774Y273469D01*
X2643781Y273259D01*
X2643784Y273050D01*
X2643781Y272841D01*
X2643774Y272631D01*
X2643761Y272422D01*
X2643743Y272214D01*
X2643720Y272005D01*
X2643692Y271798D01*
X2643658Y271591D01*
X2643620Y271385D01*
X2643577Y271180D01*
X2643528Y270976D01*
X2643475Y270774D01*
X2643417Y270573D01*
X2643353Y270373D01*
X2643285Y270175D01*
X2643212Y269979D01*
X2643134Y269784D01*
X2643052Y269592D01*
X2642965Y269401D01*
X2642873Y269213D01*
X2642776Y269027D01*
X2642675Y268844D01*
X2642570Y268663D01*
X2642460Y268484D01*
X2642346Y268309D01*
X2642227Y268136D01*
X2642105Y267966D01*
X2641978Y267800D01*
X2641847Y267636D01*
X2641712Y267476D01*
X2641573Y267319D01*
X2641431Y267165D01*
X2641284Y267016D01*
X2641135Y266869D01*
X2640981Y266727D01*
X2640824Y266588D01*
X2640664Y266453D01*
X2640500Y266322D01*
X2640334Y266195D01*
X2640164Y266073D01*
X2639991Y265954D01*
X2639816Y265840D01*
X2639637Y265730D01*
X2639456Y265625D01*
X2639273Y265524D01*
X2639087Y265427D01*
X2638899Y265335D01*
X2638708Y265248D01*
X2638516Y265166D01*
X2638321Y265088D01*
X2638125Y265015D01*
X2637927Y264947D01*
X2637727Y264883D01*
X2637526Y264825D01*
X2637324Y264772D01*
X2637120Y264723D01*
X2636915Y264680D01*
X2636709Y264642D01*
X2636502Y264608D01*
X2636295Y264580D01*
X2636086Y264557D01*
X2635878Y264539D01*
X2635669Y264526D01*
X2635459Y264519D01*
X2635250Y264516D01*
X2635041Y264519D01*
X2634831Y264526D01*
X2634622Y264539D01*
X2634414Y264557D01*
X2634205Y264580D01*
X2633998Y264608D01*
X2633791Y264642D01*
X2633585Y264680D01*
X2633380Y264723D01*
X2633176Y264772D01*
X2632974Y264825D01*
X2632773Y264883D01*
X2632573Y264947D01*
X2632375Y265015D01*
X2632179Y265088D01*
X2631984Y265166D01*
X2631792Y265248D01*
X2631601Y265335D01*
X2631413Y265427D01*
X2631227Y265524D01*
X2631044Y265625D01*
X2630863Y265730D01*
X2630684Y265840D01*
X2630509Y265954D01*
X2630336Y266073D01*
X2630166Y266195D01*
X2630000Y266322D01*
X2629836Y266453D01*
X2629676Y266588D01*
X2629519Y266727D01*
X2629365Y266869D01*
X2629216Y267016D01*
X2629069Y267165D01*
X2628927Y267319D01*
X2628788Y267476D01*
X2628653Y267636D01*
X2628522Y267800D01*
X2628395Y267966D01*
X2628273Y268136D01*
X2628154Y268309D01*
X2628040Y268484D01*
X2627930Y268663D01*
X2627825Y268844D01*
X2627724Y269027D01*
X2627627Y269213D01*
X2627535Y269401D01*
X2627448Y269592D01*
X2627366Y269784D01*
X2627288Y269979D01*
X2627215Y270175D01*
X2627147Y270373D01*
X2627083Y270573D01*
X2627025Y270774D01*
X2626972Y270976D01*
X2626923Y271180D01*
X2626880Y271385D01*
X2626842Y271591D01*
X2626808Y271798D01*
X2626780Y272005D01*
X2626757Y272214D01*
X2626739Y272422D01*
X2626726Y272631D01*
X2626719Y272841D01*
X2626716Y273050D01*
X2856103Y565150D02*
X2856109Y565652D01*
X2856128Y566153D01*
X2856158Y566654D01*
X2856201Y567154D01*
X2856257Y567653D01*
X2856324Y568150D01*
X2856404Y568646D01*
X2856496Y569139D01*
X2856600Y569630D01*
X2856716Y570118D01*
X2856844Y570603D01*
X2856983Y571085D01*
X2857135Y571564D01*
X2857298Y572038D01*
X2857473Y572509D01*
X2857659Y572975D01*
X2857857Y573436D01*
X2858066Y573892D01*
X2858286Y574343D01*
X2858517Y574789D01*
X2858759Y575228D01*
X2859012Y575662D01*
X2859275Y576089D01*
X2859549Y576510D01*
X2859833Y576924D01*
X2860127Y577330D01*
X2860431Y577730D01*
X2860744Y578121D01*
X2861067Y578505D01*
X2861400Y578881D01*
X2861741Y579249D01*
X2862092Y579608D01*
X2862451Y579959D01*
X2862819Y580300D01*
X2863195Y580633D01*
X2863579Y580956D01*
X2863970Y581269D01*
X2864370Y581573D01*
X2864776Y581867D01*
X2865190Y582151D01*
X2865611Y582425D01*
X2866038Y582688D01*
X2866472Y582941D01*
X2866911Y583183D01*
X2867357Y583414D01*
X2867808Y583634D01*
X2868264Y583843D01*
X2868725Y584041D01*
X2869191Y584227D01*
X2869662Y584402D01*
X2870136Y584565D01*
X2870615Y584717D01*
X2871097Y584856D01*
X2871582Y584984D01*
X2872070Y585100D01*
X2872561Y585204D01*
X2873054Y585296D01*
X2873550Y585376D01*
X2874047Y585443D01*
X2874546Y585499D01*
X2875046Y585542D01*
X2875547Y585572D01*
X2876048Y585591D01*
X2876550Y585597D01*
X2877052Y585591D01*
X2877553Y585572D01*
X2878054Y585542D01*
X2878554Y585499D01*
X2879053Y585443D01*
X2879550Y585376D01*
X2880046Y585296D01*
X2880539Y585204D01*
X2881030Y585100D01*
X2881518Y584984D01*
X2882003Y584856D01*
X2882485Y584717D01*
X2882964Y584565D01*
X2883438Y584402D01*
X2883909Y584227D01*
X2884375Y584041D01*
X2884836Y583843D01*
X2885292Y583634D01*
X2885743Y583414D01*
X2886189Y583183D01*
X2886628Y582941D01*
X2887062Y582688D01*
X2887489Y582425D01*
X2887910Y582151D01*
X2888324Y581867D01*
X2888730Y581573D01*
X2889130Y581269D01*
X2889521Y580956D01*
X2889905Y580633D01*
X2890281Y580300D01*
X2890649Y579959D01*
X2891008Y579608D01*
X2891359Y579249D01*
X2891700Y578881D01*
X2892033Y578505D01*
X2892356Y578121D01*
X2892669Y577730D01*
X2892973Y577330D01*
X2893267Y576924D01*
X2893551Y576510D01*
X2893825Y576089D01*
X2894088Y575662D01*
X2894341Y575228D01*
X2894583Y574789D01*
X2894814Y574343D01*
X2895034Y573892D01*
X2895243Y573436D01*
X2895441Y572975D01*
X2895627Y572509D01*
X2895802Y572038D01*
X2895965Y571564D01*
X2896117Y571085D01*
X2896256Y570603D01*
X2896384Y570118D01*
X2896500Y569630D01*
X2896604Y569139D01*
X2896696Y568646D01*
X2896776Y568150D01*
X2896843Y567653D01*
X2896899Y567154D01*
X2896942Y566654D01*
X2896972Y566153D01*
X2896991Y565652D01*
X2896997Y565150D01*
X2896991Y564648D01*
X2896972Y564147D01*
X2896942Y563646D01*
X2896899Y563146D01*
X2896843Y562647D01*
X2896776Y562150D01*
X2896696Y561654D01*
X2896604Y561161D01*
X2896500Y560670D01*
X2896384Y560182D01*
X2896256Y559697D01*
X2896117Y559215D01*
X2895965Y558736D01*
X2895802Y558262D01*
X2895627Y557791D01*
X2895441Y557325D01*
X2895243Y556864D01*
X2895034Y556408D01*
X2894814Y555957D01*
X2894583Y555511D01*
X2894341Y555072D01*
X2894088Y554638D01*
X2893825Y554211D01*
X2893551Y553790D01*
X2893267Y553376D01*
X2892973Y552970D01*
X2892669Y552570D01*
X2892356Y552179D01*
X2892033Y551795D01*
X2891700Y551419D01*
X2891359Y551051D01*
X2891008Y550692D01*
X2890649Y550341D01*
X2890281Y550000D01*
X2889905Y549667D01*
X2889521Y549344D01*
X2889130Y549031D01*
X2888730Y548727D01*
X2888324Y548433D01*
X2887910Y548149D01*
X2887489Y547875D01*
X2887062Y547612D01*
X2886628Y547359D01*
X2886189Y547117D01*
X2885743Y546886D01*
X2885292Y546666D01*
X2884836Y546457D01*
X2884375Y546259D01*
X2883909Y546073D01*
X2883438Y545898D01*
X2882964Y545735D01*
X2882485Y545583D01*
X2882003Y545444D01*
X2881518Y545316D01*
X2881030Y545200D01*
X2880539Y545096D01*
X2880046Y545004D01*
X2879550Y544924D01*
X2879053Y544857D01*
X2878554Y544801D01*
X2878054Y544758D01*
X2877553Y544728D01*
X2877052Y544709D01*
X2876550Y544703D01*
X2876048Y544709D01*
X2875547Y544728D01*
X2875046Y544758D01*
X2874546Y544801D01*
X2874047Y544857D01*
X2873550Y544924D01*
X2873054Y545004D01*
X2872561Y545096D01*
X2872070Y545200D01*
X2871582Y545316D01*
X2871097Y545444D01*
X2870615Y545583D01*
X2870136Y545735D01*
X2869662Y545898D01*
X2869191Y546073D01*
X2868725Y546259D01*
X2868264Y546457D01*
X2867808Y546666D01*
X2867357Y546886D01*
X2866911Y547117D01*
X2866472Y547359D01*
X2866038Y547612D01*
X2865611Y547875D01*
X2865190Y548149D01*
X2864776Y548433D01*
X2864370Y548727D01*
X2863970Y549031D01*
X2863579Y549344D01*
X2863195Y549667D01*
X2862819Y550000D01*
X2862451Y550341D01*
X2862092Y550692D01*
X2861741Y551051D01*
X2861400Y551419D01*
X2861067Y551795D01*
X2860744Y552179D01*
X2860431Y552570D01*
X2860127Y552970D01*
X2859833Y553376D01*
X2859549Y553790D01*
X2859275Y554211D01*
X2859012Y554638D01*
X2858759Y555072D01*
X2858517Y555511D01*
X2858286Y555957D01*
X2858066Y556408D01*
X2857857Y556864D01*
X2857659Y557325D01*
X2857473Y557791D01*
X2857298Y558262D01*
X2857135Y558736D01*
X2856983Y559215D01*
X2856844Y559697D01*
X2856716Y560182D01*
X2856600Y560670D01*
X2856496Y561161D01*
X2856404Y561654D01*
X2856324Y562150D01*
X2856257Y562647D01*
X2856201Y563146D01*
X2856158Y563646D01*
X2856128Y564147D01*
X2856109Y564648D01*
X2856103Y565150D01*
X2817216Y565150D02*
X2817219Y565359D01*
X2817226Y565569D01*
X2817239Y565778D01*
X2817257Y565986D01*
X2817280Y566195D01*
X2817308Y566402D01*
X2817342Y566609D01*
X2817380Y566815D01*
X2817423Y567020D01*
X2817472Y567224D01*
X2817525Y567426D01*
X2817583Y567627D01*
X2817647Y567827D01*
X2817715Y568025D01*
X2817788Y568221D01*
X2817866Y568416D01*
X2817948Y568608D01*
X2818035Y568799D01*
X2818127Y568987D01*
X2818224Y569173D01*
X2818325Y569356D01*
X2818430Y569537D01*
X2818540Y569716D01*
X2818654Y569891D01*
X2818773Y570064D01*
X2818895Y570234D01*
X2819022Y570400D01*
X2819153Y570564D01*
X2819288Y570724D01*
X2819427Y570881D01*
X2819569Y571035D01*
X2819716Y571184D01*
X2819865Y571331D01*
X2820019Y571473D01*
X2820176Y571612D01*
X2820336Y571747D01*
X2820500Y571878D01*
X2820666Y572005D01*
X2820836Y572127D01*
X2821009Y572246D01*
X2821184Y572360D01*
X2821363Y572470D01*
X2821544Y572575D01*
X2821727Y572676D01*
X2821913Y572773D01*
X2822101Y572865D01*
X2822292Y572952D01*
X2822484Y573034D01*
X2822679Y573112D01*
X2822875Y573185D01*
X2823073Y573253D01*
X2823273Y573317D01*
X2823474Y573375D01*
X2823676Y573428D01*
X2823880Y573477D01*
X2824085Y573520D01*
X2824291Y573558D01*
X2824498Y573592D01*
X2824705Y573620D01*
X2824914Y573643D01*
X2825122Y573661D01*
X2825331Y573674D01*
X2825541Y573681D01*
X2825750Y573684D01*
X2825959Y573681D01*
X2826169Y573674D01*
X2826378Y573661D01*
X2826586Y573643D01*
X2826795Y573620D01*
X2827002Y573592D01*
X2827209Y573558D01*
X2827415Y573520D01*
X2827620Y573477D01*
X2827824Y573428D01*
X2828026Y573375D01*
X2828227Y573317D01*
X2828427Y573253D01*
X2828625Y573185D01*
X2828821Y573112D01*
X2829016Y573034D01*
X2829208Y572952D01*
X2829399Y572865D01*
X2829587Y572773D01*
X2829773Y572676D01*
X2829956Y572575D01*
X2830137Y572470D01*
X2830316Y572360D01*
X2830491Y572246D01*
X2830664Y572127D01*
X2830834Y572005D01*
X2831000Y571878D01*
X2831164Y571747D01*
X2831324Y571612D01*
X2831481Y571473D01*
X2831635Y571331D01*
X2831784Y571184D01*
X2831931Y571035D01*
X2832073Y570881D01*
X2832212Y570724D01*
X2832347Y570564D01*
X2832478Y570400D01*
X2832605Y570234D01*
X2832727Y570064D01*
X2832846Y569891D01*
X2832960Y569716D01*
X2833070Y569537D01*
X2833175Y569356D01*
X2833276Y569173D01*
X2833373Y568987D01*
X2833465Y568799D01*
X2833552Y568608D01*
X2833634Y568416D01*
X2833712Y568221D01*
X2833785Y568025D01*
X2833853Y567827D01*
X2833917Y567627D01*
X2833975Y567426D01*
X2834028Y567224D01*
X2834077Y567020D01*
X2834120Y566815D01*
X2834158Y566609D01*
X2834192Y566402D01*
X2834220Y566195D01*
X2834243Y565986D01*
X2834261Y565778D01*
X2834274Y565569D01*
X2834281Y565359D01*
X2834284Y565150D01*
X2834281Y564941D01*
X2834274Y564731D01*
X2834261Y564522D01*
X2834243Y564314D01*
X2834220Y564105D01*
X2834192Y563898D01*
X2834158Y563691D01*
X2834120Y563485D01*
X2834077Y563280D01*
X2834028Y563076D01*
X2833975Y562874D01*
X2833917Y562673D01*
X2833853Y562473D01*
X2833785Y562275D01*
X2833712Y562079D01*
X2833634Y561884D01*
X2833552Y561692D01*
X2833465Y561501D01*
X2833373Y561313D01*
X2833276Y561127D01*
X2833175Y560944D01*
X2833070Y560763D01*
X2832960Y560584D01*
X2832846Y560409D01*
X2832727Y560236D01*
X2832605Y560066D01*
X2832478Y559900D01*
X2832347Y559736D01*
X2832212Y559576D01*
X2832073Y559419D01*
X2831931Y559265D01*
X2831784Y559116D01*
X2831635Y558969D01*
X2831481Y558827D01*
X2831324Y558688D01*
X2831164Y558553D01*
X2831000Y558422D01*
X2830834Y558295D01*
X2830664Y558173D01*
X2830491Y558054D01*
X2830316Y557940D01*
X2830137Y557830D01*
X2829956Y557725D01*
X2829773Y557624D01*
X2829587Y557527D01*
X2829399Y557435D01*
X2829208Y557348D01*
X2829016Y557266D01*
X2828821Y557188D01*
X2828625Y557115D01*
X2828427Y557047D01*
X2828227Y556983D01*
X2828026Y556925D01*
X2827824Y556872D01*
X2827620Y556823D01*
X2827415Y556780D01*
X2827209Y556742D01*
X2827002Y556708D01*
X2826795Y556680D01*
X2826586Y556657D01*
X2826378Y556639D01*
X2826169Y556626D01*
X2825959Y556619D01*
X2825750Y556616D01*
X2825541Y556619D01*
X2825331Y556626D01*
X2825122Y556639D01*
X2824914Y556657D01*
X2824705Y556680D01*
X2824498Y556708D01*
X2824291Y556742D01*
X2824085Y556780D01*
X2823880Y556823D01*
X2823676Y556872D01*
X2823474Y556925D01*
X2823273Y556983D01*
X2823073Y557047D01*
X2822875Y557115D01*
X2822679Y557188D01*
X2822484Y557266D01*
X2822292Y557348D01*
X2822101Y557435D01*
X2821913Y557527D01*
X2821727Y557624D01*
X2821544Y557725D01*
X2821363Y557830D01*
X2821184Y557940D01*
X2821009Y558054D01*
X2820836Y558173D01*
X2820666Y558295D01*
X2820500Y558422D01*
X2820336Y558553D01*
X2820176Y558688D01*
X2820019Y558827D01*
X2819865Y558969D01*
X2819716Y559116D01*
X2819569Y559265D01*
X2819427Y559419D01*
X2819288Y559576D01*
X2819153Y559736D01*
X2819022Y559900D01*
X2818895Y560066D01*
X2818773Y560236D01*
X2818654Y560409D01*
X2818540Y560584D01*
X2818430Y560763D01*
X2818325Y560944D01*
X2818224Y561127D01*
X2818127Y561313D01*
X2818035Y561501D01*
X2817948Y561692D01*
X2817866Y561884D01*
X2817788Y562079D01*
X2817715Y562275D01*
X2817647Y562473D01*
X2817583Y562673D01*
X2817525Y562874D01*
X2817472Y563076D01*
X2817423Y563280D01*
X2817380Y563485D01*
X2817342Y563691D01*
X2817308Y563898D01*
X2817280Y564105D01*
X2817257Y564314D01*
X2817239Y564522D01*
X2817226Y564731D01*
X2817219Y564941D01*
X2817216Y565150D01*
X2918816Y565150D02*
X2918819Y565359D01*
X2918826Y565569D01*
X2918839Y565778D01*
X2918857Y565986D01*
X2918880Y566195D01*
X2918908Y566402D01*
X2918942Y566609D01*
X2918980Y566815D01*
X2919023Y567020D01*
X2919072Y567224D01*
X2919125Y567426D01*
X2919183Y567627D01*
X2919247Y567827D01*
X2919315Y568025D01*
X2919388Y568221D01*
X2919466Y568416D01*
X2919548Y568608D01*
X2919635Y568799D01*
X2919727Y568987D01*
X2919824Y569173D01*
X2919925Y569356D01*
X2920030Y569537D01*
X2920140Y569716D01*
X2920254Y569891D01*
X2920373Y570064D01*
X2920495Y570234D01*
X2920622Y570400D01*
X2920753Y570564D01*
X2920888Y570724D01*
X2921027Y570881D01*
X2921169Y571035D01*
X2921316Y571184D01*
X2921465Y571331D01*
X2921619Y571473D01*
X2921776Y571612D01*
X2921936Y571747D01*
X2922100Y571878D01*
X2922266Y572005D01*
X2922436Y572127D01*
X2922609Y572246D01*
X2922784Y572360D01*
X2922963Y572470D01*
X2923144Y572575D01*
X2923327Y572676D01*
X2923513Y572773D01*
X2923701Y572865D01*
X2923892Y572952D01*
X2924084Y573034D01*
X2924279Y573112D01*
X2924475Y573185D01*
X2924673Y573253D01*
X2924873Y573317D01*
X2925074Y573375D01*
X2925276Y573428D01*
X2925480Y573477D01*
X2925685Y573520D01*
X2925891Y573558D01*
X2926098Y573592D01*
X2926305Y573620D01*
X2926514Y573643D01*
X2926722Y573661D01*
X2926931Y573674D01*
X2927141Y573681D01*
X2927350Y573684D01*
X2927559Y573681D01*
X2927769Y573674D01*
X2927978Y573661D01*
X2928186Y573643D01*
X2928395Y573620D01*
X2928602Y573592D01*
X2928809Y573558D01*
X2929015Y573520D01*
X2929220Y573477D01*
X2929424Y573428D01*
X2929626Y573375D01*
X2929827Y573317D01*
X2930027Y573253D01*
X2930225Y573185D01*
X2930421Y573112D01*
X2930616Y573034D01*
X2930808Y572952D01*
X2930999Y572865D01*
X2931187Y572773D01*
X2931373Y572676D01*
X2931556Y572575D01*
X2931737Y572470D01*
X2931916Y572360D01*
X2932091Y572246D01*
X2932264Y572127D01*
X2932434Y572005D01*
X2932600Y571878D01*
X2932764Y571747D01*
X2932924Y571612D01*
X2933081Y571473D01*
X2933235Y571331D01*
X2933384Y571184D01*
X2933531Y571035D01*
X2933673Y570881D01*
X2933812Y570724D01*
X2933947Y570564D01*
X2934078Y570400D01*
X2934205Y570234D01*
X2934327Y570064D01*
X2934446Y569891D01*
X2934560Y569716D01*
X2934670Y569537D01*
X2934775Y569356D01*
X2934876Y569173D01*
X2934973Y568987D01*
X2935065Y568799D01*
X2935152Y568608D01*
X2935234Y568416D01*
X2935312Y568221D01*
X2935385Y568025D01*
X2935453Y567827D01*
X2935517Y567627D01*
X2935575Y567426D01*
X2935628Y567224D01*
X2935677Y567020D01*
X2935720Y566815D01*
X2935758Y566609D01*
X2935792Y566402D01*
X2935820Y566195D01*
X2935843Y565986D01*
X2935861Y565778D01*
X2935874Y565569D01*
X2935881Y565359D01*
X2935884Y565150D01*
X2935881Y564941D01*
X2935874Y564731D01*
X2935861Y564522D01*
X2935843Y564314D01*
X2935820Y564105D01*
X2935792Y563898D01*
X2935758Y563691D01*
X2935720Y563485D01*
X2935677Y563280D01*
X2935628Y563076D01*
X2935575Y562874D01*
X2935517Y562673D01*
X2935453Y562473D01*
X2935385Y562275D01*
X2935312Y562079D01*
X2935234Y561884D01*
X2935152Y561692D01*
X2935065Y561501D01*
X2934973Y561313D01*
X2934876Y561127D01*
X2934775Y560944D01*
X2934670Y560763D01*
X2934560Y560584D01*
X2934446Y560409D01*
X2934327Y560236D01*
X2934205Y560066D01*
X2934078Y559900D01*
X2933947Y559736D01*
X2933812Y559576D01*
X2933673Y559419D01*
X2933531Y559265D01*
X2933384Y559116D01*
X2933235Y558969D01*
X2933081Y558827D01*
X2932924Y558688D01*
X2932764Y558553D01*
X2932600Y558422D01*
X2932434Y558295D01*
X2932264Y558173D01*
X2932091Y558054D01*
X2931916Y557940D01*
X2931737Y557830D01*
X2931556Y557725D01*
X2931373Y557624D01*
X2931187Y557527D01*
X2930999Y557435D01*
X2930808Y557348D01*
X2930616Y557266D01*
X2930421Y557188D01*
X2930225Y557115D01*
X2930027Y557047D01*
X2929827Y556983D01*
X2929626Y556925D01*
X2929424Y556872D01*
X2929220Y556823D01*
X2929015Y556780D01*
X2928809Y556742D01*
X2928602Y556708D01*
X2928395Y556680D01*
X2928186Y556657D01*
X2927978Y556639D01*
X2927769Y556626D01*
X2927559Y556619D01*
X2927350Y556616D01*
X2927141Y556619D01*
X2926931Y556626D01*
X2926722Y556639D01*
X2926514Y556657D01*
X2926305Y556680D01*
X2926098Y556708D01*
X2925891Y556742D01*
X2925685Y556780D01*
X2925480Y556823D01*
X2925276Y556872D01*
X2925074Y556925D01*
X2924873Y556983D01*
X2924673Y557047D01*
X2924475Y557115D01*
X2924279Y557188D01*
X2924084Y557266D01*
X2923892Y557348D01*
X2923701Y557435D01*
X2923513Y557527D01*
X2923327Y557624D01*
X2923144Y557725D01*
X2922963Y557830D01*
X2922784Y557940D01*
X2922609Y558054D01*
X2922436Y558173D01*
X2922266Y558295D01*
X2922100Y558422D01*
X2921936Y558553D01*
X2921776Y558688D01*
X2921619Y558827D01*
X2921465Y558969D01*
X2921316Y559116D01*
X2921169Y559265D01*
X2921027Y559419D01*
X2920888Y559576D01*
X2920753Y559736D01*
X2920622Y559900D01*
X2920495Y560066D01*
X2920373Y560236D01*
X2920254Y560409D01*
X2920140Y560584D01*
X2920030Y560763D01*
X2919925Y560944D01*
X2919824Y561127D01*
X2919727Y561313D01*
X2919635Y561501D01*
X2919548Y561692D01*
X2919466Y561884D01*
X2919388Y562079D01*
X2919315Y562275D01*
X2919247Y562473D01*
X2919183Y562673D01*
X2919125Y562874D01*
X2919072Y563076D01*
X2919023Y563280D01*
X2918980Y563485D01*
X2918942Y563691D01*
X2918908Y563898D01*
X2918880Y564105D01*
X2918857Y564314D01*
X2918839Y564522D01*
X2918826Y564731D01*
X2918819Y564941D01*
X2918816Y565150D01*
X2856103Y273050D02*
X2856109Y273552D01*
X2856128Y274053D01*
X2856158Y274554D01*
X2856201Y275054D01*
X2856257Y275553D01*
X2856324Y276050D01*
X2856404Y276546D01*
X2856496Y277039D01*
X2856600Y277530D01*
X2856716Y278018D01*
X2856844Y278503D01*
X2856983Y278985D01*
X2857135Y279464D01*
X2857298Y279938D01*
X2857473Y280409D01*
X2857659Y280875D01*
X2857857Y281336D01*
X2858066Y281792D01*
X2858286Y282243D01*
X2858517Y282689D01*
X2858759Y283128D01*
X2859012Y283562D01*
X2859275Y283989D01*
X2859549Y284410D01*
X2859833Y284824D01*
X2860127Y285230D01*
X2860431Y285630D01*
X2860744Y286021D01*
X2861067Y286405D01*
X2861400Y286781D01*
X2861741Y287149D01*
X2862092Y287508D01*
X2862451Y287859D01*
X2862819Y288200D01*
X2863195Y288533D01*
X2863579Y288856D01*
X2863970Y289169D01*
X2864370Y289473D01*
X2864776Y289767D01*
X2865190Y290051D01*
X2865611Y290325D01*
X2866038Y290588D01*
X2866472Y290841D01*
X2866911Y291083D01*
X2867357Y291314D01*
X2867808Y291534D01*
X2868264Y291743D01*
X2868725Y291941D01*
X2869191Y292127D01*
X2869662Y292302D01*
X2870136Y292465D01*
X2870615Y292617D01*
X2871097Y292756D01*
X2871582Y292884D01*
X2872070Y293000D01*
X2872561Y293104D01*
X2873054Y293196D01*
X2873550Y293276D01*
X2874047Y293343D01*
X2874546Y293399D01*
X2875046Y293442D01*
X2875547Y293472D01*
X2876048Y293491D01*
X2876550Y293497D01*
X2877052Y293491D01*
X2877553Y293472D01*
X2878054Y293442D01*
X2878554Y293399D01*
X2879053Y293343D01*
X2879550Y293276D01*
X2880046Y293196D01*
X2880539Y293104D01*
X2881030Y293000D01*
X2881518Y292884D01*
X2882003Y292756D01*
X2882485Y292617D01*
X2882964Y292465D01*
X2883438Y292302D01*
X2883909Y292127D01*
X2884375Y291941D01*
X2884836Y291743D01*
X2885292Y291534D01*
X2885743Y291314D01*
X2886189Y291083D01*
X2886628Y290841D01*
X2887062Y290588D01*
X2887489Y290325D01*
X2887910Y290051D01*
X2888324Y289767D01*
X2888730Y289473D01*
X2889130Y289169D01*
X2889521Y288856D01*
X2889905Y288533D01*
X2890281Y288200D01*
X2890649Y287859D01*
X2891008Y287508D01*
X2891359Y287149D01*
X2891700Y286781D01*
X2892033Y286405D01*
X2892356Y286021D01*
X2892669Y285630D01*
X2892973Y285230D01*
X2893267Y284824D01*
X2893551Y284410D01*
X2893825Y283989D01*
X2894088Y283562D01*
X2894341Y283128D01*
X2894583Y282689D01*
X2894814Y282243D01*
X2895034Y281792D01*
X2895243Y281336D01*
X2895441Y280875D01*
X2895627Y280409D01*
X2895802Y279938D01*
X2895965Y279464D01*
X2896117Y278985D01*
X2896256Y278503D01*
X2896384Y278018D01*
X2896500Y277530D01*
X2896604Y277039D01*
X2896696Y276546D01*
X2896776Y276050D01*
X2896843Y275553D01*
X2896899Y275054D01*
X2896942Y274554D01*
X2896972Y274053D01*
X2896991Y273552D01*
X2896997Y273050D01*
X2896991Y272548D01*
X2896972Y272047D01*
X2896942Y271546D01*
X2896899Y271046D01*
X2896843Y270547D01*
X2896776Y270050D01*
X2896696Y269554D01*
X2896604Y269061D01*
X2896500Y268570D01*
X2896384Y268082D01*
X2896256Y267597D01*
X2896117Y267115D01*
X2895965Y266636D01*
X2895802Y266162D01*
X2895627Y265691D01*
X2895441Y265225D01*
X2895243Y264764D01*
X2895034Y264308D01*
X2894814Y263857D01*
X2894583Y263411D01*
X2894341Y262972D01*
X2894088Y262538D01*
X2893825Y262111D01*
X2893551Y261690D01*
X2893267Y261276D01*
X2892973Y260870D01*
X2892669Y260470D01*
X2892356Y260079D01*
X2892033Y259695D01*
X2891700Y259319D01*
X2891359Y258951D01*
X2891008Y258592D01*
X2890649Y258241D01*
X2890281Y257900D01*
X2889905Y257567D01*
X2889521Y257244D01*
X2889130Y256931D01*
X2888730Y256627D01*
X2888324Y256333D01*
X2887910Y256049D01*
X2887489Y255775D01*
X2887062Y255512D01*
X2886628Y255259D01*
X2886189Y255017D01*
X2885743Y254786D01*
X2885292Y254566D01*
X2884836Y254357D01*
X2884375Y254159D01*
X2883909Y253973D01*
X2883438Y253798D01*
X2882964Y253635D01*
X2882485Y253483D01*
X2882003Y253344D01*
X2881518Y253216D01*
X2881030Y253100D01*
X2880539Y252996D01*
X2880046Y252904D01*
X2879550Y252824D01*
X2879053Y252757D01*
X2878554Y252701D01*
X2878054Y252658D01*
X2877553Y252628D01*
X2877052Y252609D01*
X2876550Y252603D01*
X2876048Y252609D01*
X2875547Y252628D01*
X2875046Y252658D01*
X2874546Y252701D01*
X2874047Y252757D01*
X2873550Y252824D01*
X2873054Y252904D01*
X2872561Y252996D01*
X2872070Y253100D01*
X2871582Y253216D01*
X2871097Y253344D01*
X2870615Y253483D01*
X2870136Y253635D01*
X2869662Y253798D01*
X2869191Y253973D01*
X2868725Y254159D01*
X2868264Y254357D01*
X2867808Y254566D01*
X2867357Y254786D01*
X2866911Y255017D01*
X2866472Y255259D01*
X2866038Y255512D01*
X2865611Y255775D01*
X2865190Y256049D01*
X2864776Y256333D01*
X2864370Y256627D01*
X2863970Y256931D01*
X2863579Y257244D01*
X2863195Y257567D01*
X2862819Y257900D01*
X2862451Y258241D01*
X2862092Y258592D01*
X2861741Y258951D01*
X2861400Y259319D01*
X2861067Y259695D01*
X2860744Y260079D01*
X2860431Y260470D01*
X2860127Y260870D01*
X2859833Y261276D01*
X2859549Y261690D01*
X2859275Y262111D01*
X2859012Y262538D01*
X2858759Y262972D01*
X2858517Y263411D01*
X2858286Y263857D01*
X2858066Y264308D01*
X2857857Y264764D01*
X2857659Y265225D01*
X2857473Y265691D01*
X2857298Y266162D01*
X2857135Y266636D01*
X2856983Y267115D01*
X2856844Y267597D01*
X2856716Y268082D01*
X2856600Y268570D01*
X2856496Y269061D01*
X2856404Y269554D01*
X2856324Y270050D01*
X2856257Y270547D01*
X2856201Y271046D01*
X2856158Y271546D01*
X2856128Y272047D01*
X2856109Y272548D01*
X2856103Y273050D01*
X2817216Y273050D02*
X2817219Y273259D01*
X2817226Y273469D01*
X2817239Y273678D01*
X2817257Y273886D01*
X2817280Y274095D01*
X2817308Y274302D01*
X2817342Y274509D01*
X2817380Y274715D01*
X2817423Y274920D01*
X2817472Y275124D01*
X2817525Y275326D01*
X2817583Y275527D01*
X2817647Y275727D01*
X2817715Y275925D01*
X2817788Y276121D01*
X2817866Y276316D01*
X2817948Y276508D01*
X2818035Y276699D01*
X2818127Y276887D01*
X2818224Y277073D01*
X2818325Y277256D01*
X2818430Y277437D01*
X2818540Y277616D01*
X2818654Y277791D01*
X2818773Y277964D01*
X2818895Y278134D01*
X2819022Y278300D01*
X2819153Y278464D01*
X2819288Y278624D01*
X2819427Y278781D01*
X2819569Y278935D01*
X2819716Y279084D01*
X2819865Y279231D01*
X2820019Y279373D01*
X2820176Y279512D01*
X2820336Y279647D01*
X2820500Y279778D01*
X2820666Y279905D01*
X2820836Y280027D01*
X2821009Y280146D01*
X2821184Y280260D01*
X2821363Y280370D01*
X2821544Y280475D01*
X2821727Y280576D01*
X2821913Y280673D01*
X2822101Y280765D01*
X2822292Y280852D01*
X2822484Y280934D01*
X2822679Y281012D01*
X2822875Y281085D01*
X2823073Y281153D01*
X2823273Y281217D01*
X2823474Y281275D01*
X2823676Y281328D01*
X2823880Y281377D01*
X2824085Y281420D01*
X2824291Y281458D01*
X2824498Y281492D01*
X2824705Y281520D01*
X2824914Y281543D01*
X2825122Y281561D01*
X2825331Y281574D01*
X2825541Y281581D01*
X2825750Y281584D01*
X2825959Y281581D01*
X2826169Y281574D01*
X2826378Y281561D01*
X2826586Y281543D01*
X2826795Y281520D01*
X2827002Y281492D01*
X2827209Y281458D01*
X2827415Y281420D01*
X2827620Y281377D01*
X2827824Y281328D01*
X2828026Y281275D01*
X2828227Y281217D01*
X2828427Y281153D01*
X2828625Y281085D01*
X2828821Y281012D01*
X2829016Y280934D01*
X2829208Y280852D01*
X2829399Y280765D01*
X2829587Y280673D01*
X2829773Y280576D01*
X2829956Y280475D01*
X2830137Y280370D01*
X2830316Y280260D01*
X2830491Y280146D01*
X2830664Y280027D01*
X2830834Y279905D01*
X2831000Y279778D01*
X2831164Y279647D01*
X2831324Y279512D01*
X2831481Y279373D01*
X2831635Y279231D01*
X2831784Y279084D01*
X2831931Y278935D01*
X2832073Y278781D01*
X2832212Y278624D01*
X2832347Y278464D01*
X2832478Y278300D01*
X2832605Y278134D01*
X2832727Y277964D01*
X2832846Y277791D01*
X2832960Y277616D01*
X2833070Y277437D01*
X2833175Y277256D01*
X2833276Y277073D01*
X2833373Y276887D01*
X2833465Y276699D01*
X2833552Y276508D01*
X2833634Y276316D01*
X2833712Y276121D01*
X2833785Y275925D01*
X2833853Y275727D01*
X2833917Y275527D01*
X2833975Y275326D01*
X2834028Y275124D01*
X2834077Y274920D01*
X2834120Y274715D01*
X2834158Y274509D01*
X2834192Y274302D01*
X2834220Y274095D01*
X2834243Y273886D01*
X2834261Y273678D01*
X2834274Y273469D01*
X2834281Y273259D01*
X2834284Y273050D01*
X2834281Y272841D01*
X2834274Y272631D01*
X2834261Y272422D01*
X2834243Y272214D01*
X2834220Y272005D01*
X2834192Y271798D01*
X2834158Y271591D01*
X2834120Y271385D01*
X2834077Y271180D01*
X2834028Y270976D01*
X2833975Y270774D01*
X2833917Y270573D01*
X2833853Y270373D01*
X2833785Y270175D01*
X2833712Y269979D01*
X2833634Y269784D01*
X2833552Y269592D01*
X2833465Y269401D01*
X2833373Y269213D01*
X2833276Y269027D01*
X2833175Y268844D01*
X2833070Y268663D01*
X2832960Y268484D01*
X2832846Y268309D01*
X2832727Y268136D01*
X2832605Y267966D01*
X2832478Y267800D01*
X2832347Y267636D01*
X2832212Y267476D01*
X2832073Y267319D01*
X2831931Y267165D01*
X2831784Y267016D01*
X2831635Y266869D01*
X2831481Y266727D01*
X2831324Y266588D01*
X2831164Y266453D01*
X2831000Y266322D01*
X2830834Y266195D01*
X2830664Y266073D01*
X2830491Y265954D01*
X2830316Y265840D01*
X2830137Y265730D01*
X2829956Y265625D01*
X2829773Y265524D01*
X2829587Y265427D01*
X2829399Y265335D01*
X2829208Y265248D01*
X2829016Y265166D01*
X2828821Y265088D01*
X2828625Y265015D01*
X2828427Y264947D01*
X2828227Y264883D01*
X2828026Y264825D01*
X2827824Y264772D01*
X2827620Y264723D01*
X2827415Y264680D01*
X2827209Y264642D01*
X2827002Y264608D01*
X2826795Y264580D01*
X2826586Y264557D01*
X2826378Y264539D01*
X2826169Y264526D01*
X2825959Y264519D01*
X2825750Y264516D01*
X2825541Y264519D01*
X2825331Y264526D01*
X2825122Y264539D01*
X2824914Y264557D01*
X2824705Y264580D01*
X2824498Y264608D01*
X2824291Y264642D01*
X2824085Y264680D01*
X2823880Y264723D01*
X2823676Y264772D01*
X2823474Y264825D01*
X2823273Y264883D01*
X2823073Y264947D01*
X2822875Y265015D01*
X2822679Y265088D01*
X2822484Y265166D01*
X2822292Y265248D01*
X2822101Y265335D01*
X2821913Y265427D01*
X2821727Y265524D01*
X2821544Y265625D01*
X2821363Y265730D01*
X2821184Y265840D01*
X2821009Y265954D01*
X2820836Y266073D01*
X2820666Y266195D01*
X2820500Y266322D01*
X2820336Y266453D01*
X2820176Y266588D01*
X2820019Y266727D01*
X2819865Y266869D01*
X2819716Y267016D01*
X2819569Y267165D01*
X2819427Y267319D01*
X2819288Y267476D01*
X2819153Y267636D01*
X2819022Y267800D01*
X2818895Y267966D01*
X2818773Y268136D01*
X2818654Y268309D01*
X2818540Y268484D01*
X2818430Y268663D01*
X2818325Y268844D01*
X2818224Y269027D01*
X2818127Y269213D01*
X2818035Y269401D01*
X2817948Y269592D01*
X2817866Y269784D01*
X2817788Y269979D01*
X2817715Y270175D01*
X2817647Y270373D01*
X2817583Y270573D01*
X2817525Y270774D01*
X2817472Y270976D01*
X2817423Y271180D01*
X2817380Y271385D01*
X2817342Y271591D01*
X2817308Y271798D01*
X2817280Y272005D01*
X2817257Y272214D01*
X2817239Y272422D01*
X2817226Y272631D01*
X2817219Y272841D01*
X2817216Y273050D01*
X2918816Y273050D02*
X2918819Y273259D01*
X2918826Y273469D01*
X2918839Y273678D01*
X2918857Y273886D01*
X2918880Y274095D01*
X2918908Y274302D01*
X2918942Y274509D01*
X2918980Y274715D01*
X2919023Y274920D01*
X2919072Y275124D01*
X2919125Y275326D01*
X2919183Y275527D01*
X2919247Y275727D01*
X2919315Y275925D01*
X2919388Y276121D01*
X2919466Y276316D01*
X2919548Y276508D01*
X2919635Y276699D01*
X2919727Y276887D01*
X2919824Y277073D01*
X2919925Y277256D01*
X2920030Y277437D01*
X2920140Y277616D01*
X2920254Y277791D01*
X2920373Y277964D01*
X2920495Y278134D01*
X2920622Y278300D01*
X2920753Y278464D01*
X2920888Y278624D01*
X2921027Y278781D01*
X2921169Y278935D01*
X2921316Y279084D01*
X2921465Y279231D01*
X2921619Y279373D01*
X2921776Y279512D01*
X2921936Y279647D01*
X2922100Y279778D01*
X2922266Y279905D01*
X2922436Y280027D01*
X2922609Y280146D01*
X2922784Y280260D01*
X2922963Y280370D01*
X2923144Y280475D01*
X2923327Y280576D01*
X2923513Y280673D01*
X2923701Y280765D01*
X2923892Y280852D01*
X2924084Y280934D01*
X2924279Y281012D01*
X2924475Y281085D01*
X2924673Y281153D01*
X2924873Y281217D01*
X2925074Y281275D01*
X2925276Y281328D01*
X2925480Y281377D01*
X2925685Y281420D01*
X2925891Y281458D01*
X2926098Y281492D01*
X2926305Y281520D01*
X2926514Y281543D01*
X2926722Y281561D01*
X2926931Y281574D01*
X2927141Y281581D01*
X2927350Y281584D01*
X2927559Y281581D01*
X2927769Y281574D01*
X2927978Y281561D01*
X2928186Y281543D01*
X2928395Y281520D01*
X2928602Y281492D01*
X2928809Y281458D01*
X2929015Y281420D01*
X2929220Y281377D01*
X2929424Y281328D01*
X2929626Y281275D01*
X2929827Y281217D01*
X2930027Y281153D01*
X2930225Y281085D01*
X2930421Y281012D01*
X2930616Y280934D01*
X2930808Y280852D01*
X2930999Y280765D01*
X2931187Y280673D01*
X2931373Y280576D01*
X2931556Y280475D01*
X2931737Y280370D01*
X2931916Y280260D01*
X2932091Y280146D01*
X2932264Y280027D01*
X2932434Y279905D01*
X2932600Y279778D01*
X2932764Y279647D01*
X2932924Y279512D01*
X2933081Y279373D01*
X2933235Y279231D01*
X2933384Y279084D01*
X2933531Y278935D01*
X2933673Y278781D01*
X2933812Y278624D01*
X2933947Y278464D01*
X2934078Y278300D01*
X2934205Y278134D01*
X2934327Y277964D01*
X2934446Y277791D01*
X2934560Y277616D01*
X2934670Y277437D01*
X2934775Y277256D01*
X2934876Y277073D01*
X2934973Y276887D01*
X2935065Y276699D01*
X2935152Y276508D01*
X2935234Y276316D01*
X2935312Y276121D01*
X2935385Y275925D01*
X2935453Y275727D01*
X2935517Y275527D01*
X2935575Y275326D01*
X2935628Y275124D01*
X2935677Y274920D01*
X2935720Y274715D01*
X2935758Y274509D01*
X2935792Y274302D01*
X2935820Y274095D01*
X2935843Y273886D01*
X2935861Y273678D01*
X2935874Y273469D01*
X2935881Y273259D01*
X2935884Y273050D01*
X2935881Y272841D01*
X2935874Y272631D01*
X2935861Y272422D01*
X2935843Y272214D01*
X2935820Y272005D01*
X2935792Y271798D01*
X2935758Y271591D01*
X2935720Y271385D01*
X2935677Y271180D01*
X2935628Y270976D01*
X2935575Y270774D01*
X2935517Y270573D01*
X2935453Y270373D01*
X2935385Y270175D01*
X2935312Y269979D01*
X2935234Y269784D01*
X2935152Y269592D01*
X2935065Y269401D01*
X2934973Y269213D01*
X2934876Y269027D01*
X2934775Y268844D01*
X2934670Y268663D01*
X2934560Y268484D01*
X2934446Y268309D01*
X2934327Y268136D01*
X2934205Y267966D01*
X2934078Y267800D01*
X2933947Y267636D01*
X2933812Y267476D01*
X2933673Y267319D01*
X2933531Y267165D01*
X2933384Y267016D01*
X2933235Y266869D01*
X2933081Y266727D01*
X2932924Y266588D01*
X2932764Y266453D01*
X2932600Y266322D01*
X2932434Y266195D01*
X2932264Y266073D01*
X2932091Y265954D01*
X2931916Y265840D01*
X2931737Y265730D01*
X2931556Y265625D01*
X2931373Y265524D01*
X2931187Y265427D01*
X2930999Y265335D01*
X2930808Y265248D01*
X2930616Y265166D01*
X2930421Y265088D01*
X2930225Y265015D01*
X2930027Y264947D01*
X2929827Y264883D01*
X2929626Y264825D01*
X2929424Y264772D01*
X2929220Y264723D01*
X2929015Y264680D01*
X2928809Y264642D01*
X2928602Y264608D01*
X2928395Y264580D01*
X2928186Y264557D01*
X2927978Y264539D01*
X2927769Y264526D01*
X2927559Y264519D01*
X2927350Y264516D01*
X2927141Y264519D01*
X2926931Y264526D01*
X2926722Y264539D01*
X2926514Y264557D01*
X2926305Y264580D01*
X2926098Y264608D01*
X2925891Y264642D01*
X2925685Y264680D01*
X2925480Y264723D01*
X2925276Y264772D01*
X2925074Y264825D01*
X2924873Y264883D01*
X2924673Y264947D01*
X2924475Y265015D01*
X2924279Y265088D01*
X2924084Y265166D01*
X2923892Y265248D01*
X2923701Y265335D01*
X2923513Y265427D01*
X2923327Y265524D01*
X2923144Y265625D01*
X2922963Y265730D01*
X2922784Y265840D01*
X2922609Y265954D01*
X2922436Y266073D01*
X2922266Y266195D01*
X2922100Y266322D01*
X2921936Y266453D01*
X2921776Y266588D01*
X2921619Y266727D01*
X2921465Y266869D01*
X2921316Y267016D01*
X2921169Y267165D01*
X2921027Y267319D01*
X2920888Y267476D01*
X2920753Y267636D01*
X2920622Y267800D01*
X2920495Y267966D01*
X2920373Y268136D01*
X2920254Y268309D01*
X2920140Y268484D01*
X2920030Y268663D01*
X2919925Y268844D01*
X2919824Y269027D01*
X2919727Y269213D01*
X2919635Y269401D01*
X2919548Y269592D01*
X2919466Y269784D01*
X2919388Y269979D01*
X2919315Y270175D01*
X2919247Y270373D01*
X2919183Y270573D01*
X2919125Y270774D01*
X2919072Y270976D01*
X2919023Y271180D01*
X2918980Y271385D01*
X2918942Y271591D01*
X2918908Y271798D01*
X2918880Y272005D01*
X2918857Y272214D01*
X2918839Y272422D01*
X2918826Y272631D01*
X2918819Y272841D01*
X2918816Y273050D01*
D12*
X0Y0D02*
X4826000Y0D01*
X4826000Y889000D01*
X0Y889000D01*
X0Y0D01*
X113030Y666037D02*
X112950Y664614D01*
X112791Y663198D01*
X112552Y661793D01*
X112235Y660403D01*
X111840Y659034D01*
X111369Y657688D01*
X110824Y656371D01*
X110205Y655087D01*
X109516Y653840D01*
X108758Y652633D01*
X107933Y651471D01*
X107044Y650356D01*
X106094Y649293D01*
X105087Y648286D01*
X104024Y647336D01*
X102909Y646447D01*
X101747Y645622D01*
X100540Y644864D01*
X99293Y644175D01*
X98009Y643556D01*
X96692Y643011D01*
X95346Y642540D01*
X93977Y642145D01*
X92587Y641828D01*
X91182Y641590D01*
X89766Y641430D01*
X88343Y641350D01*
X86917Y641350D01*
X85494Y641430D01*
X84078Y641590D01*
X82673Y641828D01*
X81283Y642145D01*
X79914Y642540D01*
X78568Y643011D01*
X77251Y643556D01*
X75967Y644175D01*
X74720Y644864D01*
X73513Y645622D01*
X72351Y646447D01*
X71236Y647336D01*
X70173Y648286D01*
X69166Y649293D01*
X68216Y650356D01*
X67327Y651471D01*
X66502Y652633D01*
X65744Y653840D01*
X65055Y655087D01*
X64436Y656371D01*
X63891Y657688D01*
X63420Y659034D01*
X63025Y660403D01*
X62708Y661793D01*
X62470Y663198D01*
X62310Y664614D01*
X62230Y666037D01*
X62230Y667463D01*
X62310Y668886D01*
X62470Y670302D01*
X62708Y671707D01*
X63025Y673097D01*
X63420Y674466D01*
X63891Y675812D01*
X64436Y677129D01*
X65055Y678413D01*
X65744Y679660D01*
X66502Y680867D01*
X67327Y682029D01*
X68216Y683144D01*
X69166Y684207D01*
X70173Y685214D01*
X71236Y686164D01*
X72351Y687053D01*
X73513Y687878D01*
X74720Y688636D01*
X75967Y689325D01*
X77251Y689944D01*
X78568Y690489D01*
X79914Y690960D01*
X81283Y691355D01*
X82673Y691672D01*
X84078Y691911D01*
X85494Y692070D01*
X86917Y692150D01*
X88343Y692150D01*
X89766Y692070D01*
X91182Y691911D01*
X92587Y691672D01*
X93977Y691355D01*
X95346Y690960D01*
X96692Y690489D01*
X98009Y689944D01*
X99293Y689325D01*
X100540Y688636D01*
X101747Y687878D01*
X102909Y687053D01*
X104024Y686164D01*
X105087Y685214D01*
X106094Y684207D01*
X107044Y683144D01*
X107933Y682029D01*
X108758Y680867D01*
X109516Y679660D01*
X110205Y678413D01*
X110824Y677129D01*
X111369Y675812D01*
X111840Y674466D01*
X112235Y673097D01*
X112552Y671707D01*
X112791Y670302D01*
X112950Y668886D01*
X113030Y667463D01*
X113030Y666037D01*
X113030Y221537D02*
X112950Y220114D01*
X112791Y218698D01*
X112552Y217293D01*
X112235Y215903D01*
X111840Y214534D01*
X111369Y213188D01*
X110824Y211871D01*
X110205Y210587D01*
X109516Y209340D01*
X108758Y208133D01*
X107933Y206971D01*
X107044Y205856D01*
X106094Y204793D01*
X105087Y203786D01*
X104024Y202836D01*
X102909Y201947D01*
X101747Y201122D01*
X100540Y200364D01*
X99293Y199675D01*
X98009Y199056D01*
X96692Y198511D01*
X95346Y198040D01*
X93977Y197645D01*
X92587Y197328D01*
X91182Y197090D01*
X89766Y196930D01*
X88343Y196850D01*
X86917Y196850D01*
X85494Y196930D01*
X84078Y197090D01*
X82673Y197328D01*
X81283Y197645D01*
X79914Y198040D01*
X78568Y198511D01*
X77251Y199056D01*
X75967Y199675D01*
X74720Y200364D01*
X73513Y201122D01*
X72351Y201947D01*
X71236Y202836D01*
X70173Y203786D01*
X69166Y204793D01*
X68216Y205856D01*
X67327Y206971D01*
X66502Y208133D01*
X65744Y209340D01*
X65055Y210587D01*
X64436Y211871D01*
X63891Y213188D01*
X63420Y214534D01*
X63025Y215903D01*
X62708Y217293D01*
X62470Y218698D01*
X62310Y220114D01*
X62230Y221537D01*
X62230Y222963D01*
X62310Y224386D01*
X62470Y225802D01*
X62708Y227207D01*
X63025Y228597D01*
X63420Y229966D01*
X63891Y231312D01*
X64436Y232629D01*
X65055Y233913D01*
X65744Y235160D01*
X66502Y236367D01*
X67327Y237529D01*
X68216Y238644D01*
X69166Y239707D01*
X70173Y240714D01*
X71236Y241664D01*
X72351Y242553D01*
X73513Y243378D01*
X74720Y244136D01*
X75967Y244825D01*
X77251Y245444D01*
X78568Y245989D01*
X79914Y246460D01*
X81283Y246855D01*
X82673Y247172D01*
X84078Y247411D01*
X85494Y247570D01*
X86917Y247650D01*
X88343Y247650D01*
X89766Y247570D01*
X91182Y247411D01*
X92587Y247172D01*
X93977Y246855D01*
X95346Y246460D01*
X96692Y245989D01*
X98009Y245444D01*
X99293Y244825D01*
X100540Y244136D01*
X101747Y243378D01*
X102909Y242553D01*
X104024Y241664D01*
X105087Y240714D01*
X106094Y239707D01*
X107044Y238644D01*
X107933Y237529D01*
X108758Y236367D01*
X109516Y235160D01*
X110205Y233913D01*
X110824Y232629D01*
X111369Y231312D01*
X111840Y229966D01*
X112235Y228597D01*
X112552Y227207D01*
X112791Y225802D01*
X112950Y224386D01*
X113030Y222963D01*
X113030Y221537D01*
X4763770Y666037D02*
X4763690Y664614D01*
X4763531Y663198D01*
X4763292Y661793D01*
X4762975Y660403D01*
X4762580Y659034D01*
X4762109Y657688D01*
X4761564Y656371D01*
X4760945Y655087D01*
X4760256Y653840D01*
X4759498Y652633D01*
X4758673Y651471D01*
X4757784Y650356D01*
X4756834Y649293D01*
X4755827Y648286D01*
X4754764Y647336D01*
X4753649Y646447D01*
X4752487Y645622D01*
X4751280Y644864D01*
X4750033Y644175D01*
X4748749Y643556D01*
X4747432Y643011D01*
X4746086Y642540D01*
X4744717Y642145D01*
X4743327Y641828D01*
X4741922Y641590D01*
X4740506Y641430D01*
X4739083Y641350D01*
X4737657Y641350D01*
X4736234Y641430D01*
X4734818Y641590D01*
X4733413Y641828D01*
X4732023Y642145D01*
X4730654Y642540D01*
X4729308Y643011D01*
X4727991Y643556D01*
X4726707Y644175D01*
X4725460Y644864D01*
X4724253Y645622D01*
X4723091Y646447D01*
X4721976Y647336D01*
X4720913Y648286D01*
X4719906Y649293D01*
X4718956Y650356D01*
X4718067Y651471D01*
X4717242Y652633D01*
X4716484Y653840D01*
X4715795Y655087D01*
X4715176Y656371D01*
X4714631Y657688D01*
X4714160Y659034D01*
X4713765Y660403D01*
X4713448Y661793D01*
X4713210Y663198D01*
X4713050Y664614D01*
X4712970Y666037D01*
X4712970Y667463D01*
X4713050Y668886D01*
X4713210Y670302D01*
X4713448Y671707D01*
X4713765Y673097D01*
X4714160Y674466D01*
X4714631Y675812D01*
X4715176Y677129D01*
X4715795Y678413D01*
X4716484Y679660D01*
X4717242Y680867D01*
X4718067Y682029D01*
X4718956Y683144D01*
X4719906Y684207D01*
X4720913Y685214D01*
X4721976Y686164D01*
X4723091Y687053D01*
X4724253Y687878D01*
X4725460Y688636D01*
X4726707Y689325D01*
X4727991Y689944D01*
X4729308Y690489D01*
X4730654Y690960D01*
X4732023Y691355D01*
X4733413Y691672D01*
X4734818Y691911D01*
X4736234Y692070D01*
X4737657Y692150D01*
X4739083Y692150D01*
X4740506Y692070D01*
X4741922Y691911D01*
X4743327Y691672D01*
X4744717Y691355D01*
X4746086Y690960D01*
X4747432Y690489D01*
X4748749Y689944D01*
X4750033Y689325D01*
X4751280Y688636D01*
X4752487Y687878D01*
X4753649Y687053D01*
X4754764Y686164D01*
X4755827Y685214D01*
X4756834Y684207D01*
X4757784Y683144D01*
X4758673Y682029D01*
X4759498Y680867D01*
X4760256Y679660D01*
X4760945Y678413D01*
X4761564Y677129D01*
X4762109Y675812D01*
X4762580Y674466D01*
X4762975Y673097D01*
X4763292Y671707D01*
X4763531Y670302D01*
X4763690Y668886D01*
X4763770Y667463D01*
X4763770Y666037D01*
X4763770Y221537D02*
X4763690Y220114D01*
X4763531Y218698D01*
X4763292Y217293D01*
X4762975Y215903D01*
X4762580Y214534D01*
X4762109Y213188D01*
X4761564Y211871D01*
X4760945Y210587D01*
X4760256Y209340D01*
X4759498Y208133D01*
X4758673Y206971D01*
X4757784Y205856D01*
X4756834Y204793D01*
X4755827Y203786D01*
X4754764Y202836D01*
X4753649Y201947D01*
X4752487Y201122D01*
X4751280Y200364D01*
X4750033Y199675D01*
X4748749Y199056D01*
X4747432Y198511D01*
X4746086Y198040D01*
X4744717Y197645D01*
X4743327Y197328D01*
X4741922Y197090D01*
X4740506Y196930D01*
X4739083Y196850D01*
X4737657Y196850D01*
X4736234Y196930D01*
X4734818Y197090D01*
X4733413Y197328D01*
X4732023Y197645D01*
X4730654Y198040D01*
X4729308Y198511D01*
X4727991Y199056D01*
X4726707Y199675D01*
X4725460Y200364D01*
X4724253Y201122D01*
X4723091Y201947D01*
X4721976Y202836D01*
X4720913Y203786D01*
X4719906Y204793D01*
X4718956Y205856D01*
X4718067Y206971D01*
X4717242Y208133D01*
X4716484Y209340D01*
X4715795Y210587D01*
X4715176Y211871D01*
X4714631Y213188D01*
X4714160Y214534D01*
X4713765Y215903D01*
X4713448Y217293D01*
X4713210Y218698D01*
X4713050Y220114D01*
X4712970Y221537D01*
X4712970Y222963D01*
X4713050Y224386D01*
X4713210Y225802D01*
X4713448Y227207D01*
X4713765Y228597D01*
X4714160Y229966D01*
X4714631Y231312D01*
X4715176Y232629D01*
X4715795Y233913D01*
X4716484Y235160D01*
X4717242Y236367D01*
X4718067Y237529D01*
X4718956Y238644D01*
X4719906Y239707D01*
X4720913Y240714D01*
X4721976Y241664D01*
X4723091Y242553D01*
X4724253Y243378D01*
X4725460Y244136D01*
X4726707Y244825D01*
X4727991Y245444D01*
X4729308Y245989D01*
X4730654Y246460D01*
X4732023Y246855D01*
X4733413Y247172D01*
X4734818Y247411D01*
X4736234Y247570D01*
X4737657Y247650D01*
X4739083Y247650D01*
X4740506Y247570D01*
X4741922Y247411D01*
X4743327Y247172D01*
X4744717Y246855D01*
X4746086Y246460D01*
X4747432Y245989D01*
X4748749Y245444D01*
X4750033Y244825D01*
X4751280Y244136D01*
X4752487Y243378D01*
X4753649Y242553D01*
X4754764Y241664D01*
X4755827Y240714D01*
X4756834Y239707D01*
X4757784Y238644D01*
X4758673Y237529D01*
X4759498Y236367D01*
X4760256Y235160D01*
X4760945Y233913D01*
X4761564Y232629D01*
X4762109Y231312D01*
X4762580Y229966D01*
X4762975Y228597D01*
X4763292Y227207D01*
X4763531Y225802D01*
X4763690Y224386D01*
X4763770Y222963D01*
X4763770Y221537D01*
X1055497Y564532D02*
X1055422Y563299D01*
X1055273Y562072D01*
X1055051Y560857D01*
X1054755Y559657D01*
X1054387Y558477D01*
X1053949Y557322D01*
X1053442Y556195D01*
X1052868Y555101D01*
X1052229Y554043D01*
X1051527Y553026D01*
X1050765Y552054D01*
X1049945Y551129D01*
X1049071Y550255D01*
X1048146Y549436D01*
X1047174Y548673D01*
X1046157Y547971D01*
X1045099Y547332D01*
X1044005Y546758D01*
X1042878Y546251D01*
X1041723Y545813D01*
X1040543Y545445D01*
X1039343Y545149D01*
X1038128Y544927D01*
X1036901Y544778D01*
X1035668Y544703D01*
X1034432Y544703D01*
X1033199Y544778D01*
X1031972Y544927D01*
X1030757Y545149D01*
X1029557Y545445D01*
X1028377Y545813D01*
X1027222Y546251D01*
X1026095Y546758D01*
X1025001Y547332D01*
X1023943Y547971D01*
X1022926Y548673D01*
X1021954Y549436D01*
X1021029Y550255D01*
X1020155Y551129D01*
X1019336Y552054D01*
X1018573Y553026D01*
X1017871Y554043D01*
X1017232Y555101D01*
X1016658Y556195D01*
X1016151Y557322D01*
X1015713Y558477D01*
X1015345Y559657D01*
X1015049Y560857D01*
X1014827Y562072D01*
X1014678Y563299D01*
X1014603Y564532D01*
X1014603Y565768D01*
X1014678Y567001D01*
X1014827Y568228D01*
X1015049Y569443D01*
X1015345Y570643D01*
X1015713Y571823D01*
X1016151Y572978D01*
X1016658Y574105D01*
X1017232Y575199D01*
X1017871Y576257D01*
X1018573Y577274D01*
X1019336Y578246D01*
X1020155Y579171D01*
X1021029Y580045D01*
X1021954Y580865D01*
X1022926Y581627D01*
X1023943Y582329D01*
X1025001Y582968D01*
X1026095Y583542D01*
X1027222Y584049D01*
X1028377Y584487D01*
X1029557Y584855D01*
X1030757Y585151D01*
X1031972Y585373D01*
X1033199Y585522D01*
X1034432Y585597D01*
X1035668Y585597D01*
X1036901Y585522D01*
X1038128Y585373D01*
X1039343Y585151D01*
X1040543Y584855D01*
X1041723Y584487D01*
X1042878Y584049D01*
X1044005Y583542D01*
X1045099Y582968D01*
X1046157Y582329D01*
X1047174Y581627D01*
X1048146Y580865D01*
X1049071Y580045D01*
X1049945Y579171D01*
X1050765Y578246D01*
X1051527Y577274D01*
X1052229Y576257D01*
X1052868Y575199D01*
X1053442Y574105D01*
X1053949Y572978D01*
X1054387Y571823D01*
X1054755Y570643D01*
X1055051Y569443D01*
X1055273Y568228D01*
X1055422Y567001D01*
X1055497Y565768D01*
X1055497Y564532D01*
X992784Y564777D02*
X992719Y564035D01*
X992590Y563301D01*
X992397Y562581D01*
X992142Y561881D01*
X991827Y561206D01*
X991455Y560560D01*
X991027Y559950D01*
X990548Y559379D01*
X990021Y558852D01*
X989450Y558373D01*
X988840Y557945D01*
X988195Y557573D01*
X987519Y557258D01*
X986819Y557003D01*
X986099Y556810D01*
X985365Y556681D01*
X984623Y556616D01*
X983877Y556616D01*
X983135Y556681D01*
X982401Y556810D01*
X981681Y557003D01*
X980981Y557258D01*
X980306Y557573D01*
X979660Y557945D01*
X979050Y558373D01*
X978479Y558852D01*
X977952Y559379D01*
X977473Y559950D01*
X977045Y560560D01*
X976673Y561206D01*
X976358Y561881D01*
X976103Y562581D01*
X975910Y563301D01*
X975781Y564035D01*
X975716Y564777D01*
X975716Y565523D01*
X975781Y566265D01*
X975910Y566999D01*
X976103Y567719D01*
X976358Y568419D01*
X976673Y569095D01*
X977045Y569740D01*
X977473Y570350D01*
X977952Y570921D01*
X978479Y571448D01*
X979050Y571927D01*
X979660Y572355D01*
X980306Y572727D01*
X980981Y573042D01*
X981681Y573297D01*
X982401Y573490D01*
X983135Y573619D01*
X983877Y573684D01*
X984623Y573684D01*
X985365Y573619D01*
X986099Y573490D01*
X986819Y573297D01*
X987519Y573042D01*
X988195Y572727D01*
X988840Y572355D01*
X989450Y571927D01*
X990021Y571448D01*
X990548Y570921D01*
X991027Y570350D01*
X991455Y569740D01*
X991827Y569095D01*
X992142Y568419D01*
X992397Y567719D01*
X992590Y566999D01*
X992719Y566265D01*
X992784Y565523D01*
X992784Y564777D01*
X1094384Y564777D02*
X1094319Y564035D01*
X1094190Y563301D01*
X1093997Y562581D01*
X1093742Y561881D01*
X1093427Y561206D01*
X1093055Y560560D01*
X1092627Y559950D01*
X1092148Y559379D01*
X1091621Y558852D01*
X1091050Y558373D01*
X1090440Y557945D01*
X1089795Y557573D01*
X1089119Y557258D01*
X1088419Y557003D01*
X1087699Y556810D01*
X1086965Y556681D01*
X1086223Y556616D01*
X1085477Y556616D01*
X1084735Y556681D01*
X1084001Y556810D01*
X1083281Y557003D01*
X1082581Y557258D01*
X1081906Y557573D01*
X1081260Y557945D01*
X1080650Y558373D01*
X1080079Y558852D01*
X1079552Y559379D01*
X1079073Y559950D01*
X1078645Y560560D01*
X1078273Y561206D01*
X1077958Y561881D01*
X1077703Y562581D01*
X1077510Y563301D01*
X1077381Y564035D01*
X1077316Y564777D01*
X1077316Y565523D01*
X1077381Y566265D01*
X1077510Y566999D01*
X1077703Y567719D01*
X1077958Y568419D01*
X1078273Y569095D01*
X1078645Y569740D01*
X1079073Y570350D01*
X1079552Y570921D01*
X1080079Y571448D01*
X1080650Y571927D01*
X1081260Y572355D01*
X1081906Y572727D01*
X1082581Y573042D01*
X1083281Y573297D01*
X1084001Y573490D01*
X1084735Y573619D01*
X1085477Y573684D01*
X1086223Y573684D01*
X1086965Y573619D01*
X1087699Y573490D01*
X1088419Y573297D01*
X1089119Y573042D01*
X1089795Y572727D01*
X1090440Y572355D01*
X1091050Y571927D01*
X1091621Y571448D01*
X1092148Y570921D01*
X1092627Y570350D01*
X1093055Y569740D01*
X1093427Y569095D01*
X1093742Y568419D01*
X1093997Y567719D01*
X1094190Y566999D01*
X1094319Y566265D01*
X1094384Y565523D01*
X1094384Y564777D01*
X1055497Y272432D02*
X1055422Y271199D01*
X1055273Y269972D01*
X1055051Y268757D01*
X1054755Y267557D01*
X1054387Y266377D01*
X1053949Y265222D01*
X1053442Y264095D01*
X1052868Y263001D01*
X1052229Y261943D01*
X1051527Y260926D01*
X1050765Y259954D01*
X1049945Y259029D01*
X1049071Y258155D01*
X1048146Y257336D01*
X1047174Y256573D01*
X1046157Y255871D01*
X1045099Y255232D01*
X1044005Y254658D01*
X1042878Y254151D01*
X1041723Y253713D01*
X1040543Y253345D01*
X1039343Y253049D01*
X1038128Y252827D01*
X1036901Y252678D01*
X1035668Y252603D01*
X1034432Y252603D01*
X1033199Y252678D01*
X1031972Y252827D01*
X1030757Y253049D01*
X1029557Y253345D01*
X1028377Y253713D01*
X1027222Y254151D01*
X1026095Y254658D01*
X1025001Y255232D01*
X1023943Y255871D01*
X1022926Y256573D01*
X1021954Y257336D01*
X1021029Y258155D01*
X1020155Y259029D01*
X1019336Y259954D01*
X1018573Y260926D01*
X1017871Y261943D01*
X1017232Y263001D01*
X1016658Y264095D01*
X1016151Y265222D01*
X1015713Y266377D01*
X1015345Y267557D01*
X1015049Y268757D01*
X1014827Y269972D01*
X1014678Y271199D01*
X1014603Y272432D01*
X1014603Y273668D01*
X1014678Y274901D01*
X1014827Y276128D01*
X1015049Y277343D01*
X1015345Y278543D01*
X1015713Y279723D01*
X1016151Y280878D01*
X1016658Y282005D01*
X1017232Y283099D01*
X1017871Y284157D01*
X1018573Y285174D01*
X1019336Y286146D01*
X1020155Y287071D01*
X1021029Y287945D01*
X1021954Y288765D01*
X1022926Y289527D01*
X1023943Y290229D01*
X1025001Y290868D01*
X1026095Y291442D01*
X1027222Y291949D01*
X1028377Y292387D01*
X1029557Y292755D01*
X1030757Y293051D01*
X1031972Y293273D01*
X1033199Y293422D01*
X1034432Y293497D01*
X1035668Y293497D01*
X1036901Y293422D01*
X1038128Y293273D01*
X1039343Y293051D01*
X1040543Y292755D01*
X1041723Y292387D01*
X1042878Y291949D01*
X1044005Y291442D01*
X1045099Y290868D01*
X1046157Y290229D01*
X1047174Y289527D01*
X1048146Y288765D01*
X1049071Y287945D01*
X1049945Y287071D01*
X1050765Y286146D01*
X1051527Y285174D01*
X1052229Y284157D01*
X1052868Y283099D01*
X1053442Y282005D01*
X1053949Y280878D01*
X1054387Y279723D01*
X1054755Y278543D01*
X1055051Y277343D01*
X1055273Y276128D01*
X1055422Y274901D01*
X1055497Y273668D01*
X1055497Y272432D01*
X992784Y272677D02*
X992719Y271935D01*
X992590Y271201D01*
X992397Y270481D01*
X992142Y269781D01*
X991827Y269106D01*
X991455Y268460D01*
X991027Y267850D01*
X990548Y267279D01*
X990021Y266752D01*
X989450Y266273D01*
X988840Y265845D01*
X988195Y265473D01*
X987519Y265158D01*
X986819Y264903D01*
X986099Y264710D01*
X985365Y264581D01*
X984623Y264516D01*
X983877Y264516D01*
X983135Y264581D01*
X982401Y264710D01*
X981681Y264903D01*
X980981Y265158D01*
X980306Y265473D01*
X979660Y265845D01*
X979050Y266273D01*
X978479Y266752D01*
X977952Y267279D01*
X977473Y267850D01*
X977045Y268460D01*
X976673Y269106D01*
X976358Y269781D01*
X976103Y270481D01*
X975910Y271201D01*
X975781Y271935D01*
X975716Y272677D01*
X975716Y273423D01*
X975781Y274165D01*
X975910Y274899D01*
X976103Y275619D01*
X976358Y276319D01*
X976673Y276995D01*
X977045Y277640D01*
X977473Y278250D01*
X977952Y278821D01*
X978479Y279348D01*
X979050Y279827D01*
X979660Y280255D01*
X980306Y280627D01*
X980981Y280942D01*
X981681Y281197D01*
X982401Y281390D01*
X983135Y281519D01*
X983877Y281584D01*
X984623Y281584D01*
X985365Y281519D01*
X986099Y281390D01*
X986819Y281197D01*
X987519Y280942D01*
X988195Y280627D01*
X988840Y280255D01*
X989450Y279827D01*
X990021Y279348D01*
X990548Y278821D01*
X991027Y278250D01*
X991455Y277640D01*
X991827Y276995D01*
X992142Y276319D01*
X992397Y275619D01*
X992590Y274899D01*
X992719Y274165D01*
X992784Y273423D01*
X992784Y272677D01*
X1094384Y272677D02*
X1094319Y271935D01*
X1094190Y271201D01*
X1093997Y270481D01*
X1093742Y269781D01*
X1093427Y269106D01*
X1093055Y268460D01*
X1092627Y267850D01*
X1092148Y267279D01*
X1091621Y266752D01*
X1091050Y266273D01*
X1090440Y265845D01*
X1089795Y265473D01*
X1089119Y265158D01*
X1088419Y264903D01*
X1087699Y264710D01*
X1086965Y264581D01*
X1086223Y264516D01*
X1085477Y264516D01*
X1084735Y264581D01*
X1084001Y264710D01*
X1083281Y264903D01*
X1082581Y265158D01*
X1081906Y265473D01*
X1081260Y265845D01*
X1080650Y266273D01*
X1080079Y266752D01*
X1079552Y267279D01*
X1079073Y267850D01*
X1078645Y268460D01*
X1078273Y269106D01*
X1077958Y269781D01*
X1077703Y270481D01*
X1077510Y271201D01*
X1077381Y271935D01*
X1077316Y272677D01*
X1077316Y273423D01*
X1077381Y274165D01*
X1077510Y274899D01*
X1077703Y275619D01*
X1077958Y276319D01*
X1078273Y276995D01*
X1078645Y277640D01*
X1079073Y278250D01*
X1079552Y278821D01*
X1080079Y279348D01*
X1080650Y279827D01*
X1081260Y280255D01*
X1081906Y280627D01*
X1082581Y280942D01*
X1083281Y281197D01*
X1084001Y281390D01*
X1084735Y281519D01*
X1085477Y281584D01*
X1086223Y281584D01*
X1086965Y281519D01*
X1087699Y281390D01*
X1088419Y281197D01*
X1089119Y280942D01*
X1089795Y280627D01*
X1090440Y280255D01*
X1091050Y279827D01*
X1091621Y279348D01*
X1092148Y278821D01*
X1092627Y278250D01*
X1093055Y277640D01*
X1093427Y276995D01*
X1093742Y276319D01*
X1093997Y275619D01*
X1094190Y274899D01*
X1094319Y274165D01*
X1094384Y273423D01*
X1094384Y272677D01*
X2604897Y564532D02*
X2604822Y563299D01*
X2604673Y562072D01*
X2604451Y560857D01*
X2604155Y559657D01*
X2603787Y558477D01*
X2603349Y557322D01*
X2602842Y556195D01*
X2602268Y555101D01*
X2601629Y554043D01*
X2600927Y553026D01*
X2600165Y552054D01*
X2599345Y551129D01*
X2598471Y550255D01*
X2597546Y549436D01*
X2596574Y548673D01*
X2595557Y547971D01*
X2594499Y547332D01*
X2593405Y546758D01*
X2592278Y546251D01*
X2591123Y545813D01*
X2589943Y545445D01*
X2588743Y545149D01*
X2587528Y544927D01*
X2586301Y544778D01*
X2585068Y544703D01*
X2583832Y544703D01*
X2582599Y544778D01*
X2581372Y544927D01*
X2580157Y545149D01*
X2578957Y545445D01*
X2577777Y545813D01*
X2576622Y546251D01*
X2575495Y546758D01*
X2574401Y547332D01*
X2573343Y547971D01*
X2572326Y548673D01*
X2571354Y549436D01*
X2570429Y550255D01*
X2569555Y551129D01*
X2568736Y552054D01*
X2567973Y553026D01*
X2567271Y554043D01*
X2566632Y555101D01*
X2566058Y556195D01*
X2565551Y557322D01*
X2565113Y558477D01*
X2564745Y559657D01*
X2564449Y560857D01*
X2564227Y562072D01*
X2564078Y563299D01*
X2564003Y564532D01*
X2564003Y565768D01*
X2564078Y567001D01*
X2564227Y568228D01*
X2564449Y569443D01*
X2564745Y570643D01*
X2565113Y571823D01*
X2565551Y572978D01*
X2566058Y574105D01*
X2566632Y575199D01*
X2567271Y576257D01*
X2567973Y577274D01*
X2568736Y578246D01*
X2569555Y579171D01*
X2570429Y580045D01*
X2571354Y580865D01*
X2572326Y581627D01*
X2573343Y582329D01*
X2574401Y582968D01*
X2575495Y583542D01*
X2576622Y584049D01*
X2577777Y584487D01*
X2578957Y584855D01*
X2580157Y585151D01*
X2581372Y585373D01*
X2582599Y585522D01*
X2583832Y585597D01*
X2585068Y585597D01*
X2586301Y585522D01*
X2587528Y585373D01*
X2588743Y585151D01*
X2589943Y584855D01*
X2591123Y584487D01*
X2592278Y584049D01*
X2593405Y583542D01*
X2594499Y582968D01*
X2595557Y582329D01*
X2596574Y581627D01*
X2597546Y580865D01*
X2598471Y580045D01*
X2599345Y579171D01*
X2600165Y578246D01*
X2600927Y577274D01*
X2601629Y576257D01*
X2602268Y575199D01*
X2602842Y574105D01*
X2603349Y572978D01*
X2603787Y571823D01*
X2604155Y570643D01*
X2604451Y569443D01*
X2604673Y568228D01*
X2604822Y567001D01*
X2604897Y565768D01*
X2604897Y564532D01*
X2542184Y564777D02*
X2542119Y564035D01*
X2541990Y563301D01*
X2541797Y562581D01*
X2541542Y561881D01*
X2541227Y561206D01*
X2540855Y560560D01*
X2540427Y559950D01*
X2539948Y559379D01*
X2539421Y558852D01*
X2538850Y558373D01*
X2538240Y557945D01*
X2537595Y557573D01*
X2536919Y557258D01*
X2536219Y557003D01*
X2535499Y556810D01*
X2534765Y556681D01*
X2534023Y556616D01*
X2533277Y556616D01*
X2532535Y556681D01*
X2531801Y556810D01*
X2531081Y557003D01*
X2530381Y557258D01*
X2529706Y557573D01*
X2529060Y557945D01*
X2528450Y558373D01*
X2527879Y558852D01*
X2527352Y559379D01*
X2526873Y559950D01*
X2526445Y560560D01*
X2526073Y561206D01*
X2525758Y561881D01*
X2525503Y562581D01*
X2525310Y563301D01*
X2525181Y564035D01*
X2525116Y564777D01*
X2525116Y565523D01*
X2525181Y566265D01*
X2525310Y566999D01*
X2525503Y567719D01*
X2525758Y568419D01*
X2526073Y569095D01*
X2526445Y569740D01*
X2526873Y570350D01*
X2527352Y570921D01*
X2527879Y571448D01*
X2528450Y571927D01*
X2529060Y572355D01*
X2529706Y572727D01*
X2530381Y573042D01*
X2531081Y573297D01*
X2531801Y573490D01*
X2532535Y573619D01*
X2533277Y573684D01*
X2534023Y573684D01*
X2534765Y573619D01*
X2535499Y573490D01*
X2536219Y573297D01*
X2536919Y573042D01*
X2537595Y572727D01*
X2538240Y572355D01*
X2538850Y571927D01*
X2539421Y571448D01*
X2539948Y570921D01*
X2540427Y570350D01*
X2540855Y569740D01*
X2541227Y569095D01*
X2541542Y568419D01*
X2541797Y567719D01*
X2541990Y566999D01*
X2542119Y566265D01*
X2542184Y565523D01*
X2542184Y564777D01*
X2643784Y564777D02*
X2643719Y564035D01*
X2643590Y563301D01*
X2643397Y562581D01*
X2643142Y561881D01*
X2642827Y561206D01*
X2642455Y560560D01*
X2642027Y559950D01*
X2641548Y559379D01*
X2641021Y558852D01*
X2640450Y558373D01*
X2639840Y557945D01*
X2639195Y557573D01*
X2638519Y557258D01*
X2637819Y557003D01*
X2637099Y556810D01*
X2636365Y556681D01*
X2635623Y556616D01*
X2634877Y556616D01*
X2634135Y556681D01*
X2633401Y556810D01*
X2632681Y557003D01*
X2631981Y557258D01*
X2631306Y557573D01*
X2630660Y557945D01*
X2630050Y558373D01*
X2629479Y558852D01*
X2628952Y559379D01*
X2628473Y559950D01*
X2628045Y560560D01*
X2627673Y561206D01*
X2627358Y561881D01*
X2627103Y562581D01*
X2626910Y563301D01*
X2626781Y564035D01*
X2626716Y564777D01*
X2626716Y565523D01*
X2626781Y566265D01*
X2626910Y566999D01*
X2627103Y567719D01*
X2627358Y568419D01*
X2627673Y569095D01*
X2628045Y569740D01*
X2628473Y570350D01*
X2628952Y570921D01*
X2629479Y571448D01*
X2630050Y571927D01*
X2630660Y572355D01*
X2631306Y572727D01*
X2631981Y573042D01*
X2632681Y573297D01*
X2633401Y573490D01*
X2634135Y573619D01*
X2634877Y573684D01*
X2635623Y573684D01*
X2636365Y573619D01*
X2637099Y573490D01*
X2637819Y573297D01*
X2638519Y573042D01*
X2639195Y572727D01*
X2639840Y572355D01*
X2640450Y571927D01*
X2641021Y571448D01*
X2641548Y570921D01*
X2642027Y570350D01*
X2642455Y569740D01*
X2642827Y569095D01*
X2643142Y568419D01*
X2643397Y567719D01*
X2643590Y566999D01*
X2643719Y566265D01*
X2643784Y565523D01*
X2643784Y564777D01*
X2122297Y412132D02*
X2122222Y410899D01*
X2122073Y409672D01*
X2121851Y408457D01*
X2121555Y407257D01*
X2121187Y406077D01*
X2120749Y404922D01*
X2120242Y403795D01*
X2119668Y402701D01*
X2119029Y401643D01*
X2118327Y400626D01*
X2117565Y399654D01*
X2116745Y398729D01*
X2115871Y397855D01*
X2114946Y397036D01*
X2113974Y396273D01*
X2112957Y395571D01*
X2111899Y394932D01*
X2110805Y394358D01*
X2109678Y393851D01*
X2108523Y393413D01*
X2107343Y393045D01*
X2106143Y392749D01*
X2104928Y392527D01*
X2103701Y392378D01*
X2102468Y392303D01*
X2101232Y392303D01*
X2099999Y392378D01*
X2098772Y392527D01*
X2097557Y392749D01*
X2096357Y393045D01*
X2095177Y393413D01*
X2094022Y393851D01*
X2092895Y394358D01*
X2091801Y394932D01*
X2090743Y395571D01*
X2089726Y396273D01*
X2088754Y397036D01*
X2087829Y397855D01*
X2086955Y398729D01*
X2086136Y399654D01*
X2085373Y400626D01*
X2084671Y401643D01*
X2084032Y402701D01*
X2083458Y403795D01*
X2082951Y404922D01*
X2082513Y406077D01*
X2082145Y407257D01*
X2081849Y408457D01*
X2081627Y409672D01*
X2081478Y410899D01*
X2081403Y412132D01*
X2081403Y413368D01*
X2081478Y414601D01*
X2081627Y415828D01*
X2081849Y417043D01*
X2082145Y418243D01*
X2082513Y419423D01*
X2082951Y420578D01*
X2083458Y421705D01*
X2084032Y422799D01*
X2084671Y423857D01*
X2085373Y424874D01*
X2086136Y425846D01*
X2086955Y426771D01*
X2087829Y427645D01*
X2088754Y428465D01*
X2089726Y429227D01*
X2090743Y429929D01*
X2091801Y430568D01*
X2092895Y431142D01*
X2094022Y431649D01*
X2095177Y432087D01*
X2096357Y432455D01*
X2097557Y432751D01*
X2098772Y432973D01*
X2099999Y433122D01*
X2101232Y433197D01*
X2102468Y433197D01*
X2103701Y433122D01*
X2104928Y432973D01*
X2106143Y432751D01*
X2107343Y432455D01*
X2108523Y432087D01*
X2109678Y431649D01*
X2110805Y431142D01*
X2111899Y430568D01*
X2112957Y429929D01*
X2113974Y429227D01*
X2114946Y428465D01*
X2115871Y427645D01*
X2116745Y426771D01*
X2117565Y425846D01*
X2118327Y424874D01*
X2119029Y423857D01*
X2119668Y422799D01*
X2120242Y421705D01*
X2120749Y420578D01*
X2121187Y419423D01*
X2121555Y418243D01*
X2121851Y417043D01*
X2122073Y415828D01*
X2122222Y414601D01*
X2122297Y413368D01*
X2122297Y412132D01*
X2059584Y412377D02*
X2059519Y411635D01*
X2059390Y410901D01*
X2059197Y410181D01*
X2058942Y409481D01*
X2058627Y408806D01*
X2058255Y408160D01*
X2057827Y407550D01*
X2057348Y406979D01*
X2056821Y406452D01*
X2056250Y405973D01*
X2055640Y405545D01*
X2054995Y405173D01*
X2054319Y404858D01*
X2053619Y404603D01*
X2052899Y404410D01*
X2052165Y404281D01*
X2051423Y404216D01*
X2050677Y404216D01*
X2049935Y404281D01*
X2049201Y404410D01*
X2048481Y404603D01*
X2047781Y404858D01*
X2047106Y405173D01*
X2046460Y405545D01*
X2045850Y405973D01*
X2045279Y406452D01*
X2044752Y406979D01*
X2044273Y407550D01*
X2043845Y408160D01*
X2043473Y408806D01*
X2043158Y409481D01*
X2042903Y410181D01*
X2042710Y410901D01*
X2042581Y411635D01*
X2042516Y412377D01*
X2042516Y413123D01*
X2042581Y413865D01*
X2042710Y414599D01*
X2042903Y415319D01*
X2043158Y416019D01*
X2043473Y416695D01*
X2043845Y417340D01*
X2044273Y417950D01*
X2044752Y418521D01*
X2045279Y419048D01*
X2045850Y419527D01*
X2046460Y419955D01*
X2047106Y420327D01*
X2047781Y420642D01*
X2048481Y420897D01*
X2049201Y421090D01*
X2049935Y421219D01*
X2050677Y421284D01*
X2051423Y421284D01*
X2052165Y421219D01*
X2052899Y421090D01*
X2053619Y420897D01*
X2054319Y420642D01*
X2054995Y420327D01*
X2055640Y419955D01*
X2056250Y419527D01*
X2056821Y419048D01*
X2057348Y418521D01*
X2057827Y417950D01*
X2058255Y417340D01*
X2058627Y416695D01*
X2058942Y416019D01*
X2059197Y415319D01*
X2059390Y414599D01*
X2059519Y413865D01*
X2059584Y413123D01*
X2059584Y412377D01*
X2161184Y412377D02*
X2161119Y411635D01*
X2160990Y410901D01*
X2160797Y410181D01*
X2160542Y409481D01*
X2160227Y408806D01*
X2159855Y408160D01*
X2159427Y407550D01*
X2158948Y406979D01*
X2158421Y406452D01*
X2157850Y405973D01*
X2157240Y405545D01*
X2156595Y405173D01*
X2155919Y404858D01*
X2155219Y404603D01*
X2154499Y404410D01*
X2153765Y404281D01*
X2153023Y404216D01*
X2152277Y404216D01*
X2151535Y404281D01*
X2150801Y404410D01*
X2150081Y404603D01*
X2149381Y404858D01*
X2148706Y405173D01*
X2148060Y405545D01*
X2147450Y405973D01*
X2146879Y406452D01*
X2146352Y406979D01*
X2145873Y407550D01*
X2145445Y408160D01*
X2145073Y408806D01*
X2144758Y409481D01*
X2144503Y410181D01*
X2144310Y410901D01*
X2144181Y411635D01*
X2144116Y412377D01*
X2144116Y413123D01*
X2144181Y413865D01*
X2144310Y414599D01*
X2144503Y415319D01*
X2144758Y416019D01*
X2145073Y416695D01*
X2145445Y417340D01*
X2145873Y417950D01*
X2146352Y418521D01*
X2146879Y419048D01*
X2147450Y419527D01*
X2148060Y419955D01*
X2148706Y420327D01*
X2149381Y420642D01*
X2150081Y420897D01*
X2150801Y421090D01*
X2151535Y421219D01*
X2152277Y421284D01*
X2153023Y421284D01*
X2153765Y421219D01*
X2154499Y421090D01*
X2155219Y420897D01*
X2155919Y420642D01*
X2156595Y420327D01*
X2157240Y419955D01*
X2157850Y419527D01*
X2158421Y419048D01*
X2158948Y418521D01*
X2159427Y417950D01*
X2159855Y417340D01*
X2160227Y416695D01*
X2160542Y416019D01*
X2160797Y415319D01*
X2160990Y414599D01*
X2161119Y413865D01*
X2161184Y413123D01*
X2161184Y412377D01*
X2604897Y272432D02*
X2604822Y271199D01*
X2604673Y269972D01*
X2604451Y268757D01*
X2604155Y267557D01*
X2603787Y266377D01*
X2603349Y265222D01*
X2602842Y264095D01*
X2602268Y263001D01*
X2601629Y261943D01*
X2600927Y260926D01*
X2600165Y259954D01*
X2599345Y259029D01*
X2598471Y258155D01*
X2597546Y257336D01*
X2596574Y256573D01*
X2595557Y255871D01*
X2594499Y255232D01*
X2593405Y254658D01*
X2592278Y254151D01*
X2591123Y253713D01*
X2589943Y253345D01*
X2588743Y253049D01*
X2587528Y252827D01*
X2586301Y252678D01*
X2585068Y252603D01*
X2583832Y252603D01*
X2582599Y252678D01*
X2581372Y252827D01*
X2580157Y253049D01*
X2578957Y253345D01*
X2577777Y253713D01*
X2576622Y254151D01*
X2575495Y254658D01*
X2574401Y255232D01*
X2573343Y255871D01*
X2572326Y256573D01*
X2571354Y257336D01*
X2570429Y258155D01*
X2569555Y259029D01*
X2568736Y259954D01*
X2567973Y260926D01*
X2567271Y261943D01*
X2566632Y263001D01*
X2566058Y264095D01*
X2565551Y265222D01*
X2565113Y266377D01*
X2564745Y267557D01*
X2564449Y268757D01*
X2564227Y269972D01*
X2564078Y271199D01*
X2564003Y272432D01*
X2564003Y273668D01*
X2564078Y274901D01*
X2564227Y276128D01*
X2564449Y277343D01*
X2564745Y278543D01*
X2565113Y279723D01*
X2565551Y280878D01*
X2566058Y282005D01*
X2566632Y283099D01*
X2567271Y284157D01*
X2567973Y285174D01*
X2568736Y286146D01*
X2569555Y287071D01*
X2570429Y287945D01*
X2571354Y288765D01*
X2572326Y289527D01*
X2573343Y290229D01*
X2574401Y290868D01*
X2575495Y291442D01*
X2576622Y291949D01*
X2577777Y292387D01*
X2578957Y292755D01*
X2580157Y293051D01*
X2581372Y293273D01*
X2582599Y293422D01*
X2583832Y293497D01*
X2585068Y293497D01*
X2586301Y293422D01*
X2587528Y293273D01*
X2588743Y293051D01*
X2589943Y292755D01*
X2591123Y292387D01*
X2592278Y291949D01*
X2593405Y291442D01*
X2594499Y290868D01*
X2595557Y290229D01*
X2596574Y289527D01*
X2597546Y288765D01*
X2598471Y287945D01*
X2599345Y287071D01*
X2600165Y286146D01*
X2600927Y285174D01*
X2601629Y284157D01*
X2602268Y283099D01*
X2602842Y282005D01*
X2603349Y280878D01*
X2603787Y279723D01*
X2604155Y278543D01*
X2604451Y277343D01*
X2604673Y276128D01*
X2604822Y274901D01*
X2604897Y273668D01*
X2604897Y272432D01*
X2542184Y272677D02*
X2542119Y271935D01*
X2541990Y271201D01*
X2541797Y270481D01*
X2541542Y269781D01*
X2541227Y269106D01*
X2540855Y268460D01*
X2540427Y267850D01*
X2539948Y267279D01*
X2539421Y266752D01*
X2538850Y266273D01*
X2538240Y265845D01*
X2537595Y265473D01*
X2536919Y265158D01*
X2536219Y264903D01*
X2535499Y264710D01*
X2534765Y264581D01*
X2534023Y264516D01*
X2533277Y264516D01*
X2532535Y264581D01*
X2531801Y264710D01*
X2531081Y264903D01*
X2530381Y265158D01*
X2529706Y265473D01*
X2529060Y265845D01*
X2528450Y266273D01*
X2527879Y266752D01*
X2527352Y267279D01*
X2526873Y267850D01*
X2526445Y268460D01*
X2526073Y269106D01*
X2525758Y269781D01*
X2525503Y270481D01*
X2525310Y271201D01*
X2525181Y271935D01*
X2525116Y272677D01*
X2525116Y273423D01*
X2525181Y274165D01*
X2525310Y274899D01*
X2525503Y275619D01*
X2525758Y276319D01*
X2526073Y276995D01*
X2526445Y277640D01*
X2526873Y278250D01*
X2527352Y278821D01*
X2527879Y279348D01*
X2528450Y279827D01*
X2529060Y280255D01*
X2529706Y280627D01*
X2530381Y280942D01*
X2531081Y281197D01*
X2531801Y281390D01*
X2532535Y281519D01*
X2533277Y281584D01*
X2534023Y281584D01*
X2534765Y281519D01*
X2535499Y281390D01*
X2536219Y281197D01*
X2536919Y280942D01*
X2537595Y280627D01*
X2538240Y280255D01*
X2538850Y279827D01*
X2539421Y279348D01*
X2539948Y278821D01*
X2540427Y278250D01*
X2540855Y277640D01*
X2541227Y276995D01*
X2541542Y276319D01*
X2541797Y275619D01*
X2541990Y274899D01*
X2542119Y274165D01*
X2542184Y273423D01*
X2542184Y272677D01*
X2643784Y272677D02*
X2643719Y271935D01*
X2643590Y271201D01*
X2643397Y270481D01*
X2643142Y269781D01*
X2642827Y269106D01*
X2642455Y268460D01*
X2642027Y267850D01*
X2641548Y267279D01*
X2641021Y266752D01*
X2640450Y266273D01*
X2639840Y265845D01*
X2639195Y265473D01*
X2638519Y265158D01*
X2637819Y264903D01*
X2637099Y264710D01*
X2636365Y264581D01*
X2635623Y264516D01*
X2634877Y264516D01*
X2634135Y264581D01*
X2633401Y264710D01*
X2632681Y264903D01*
X2631981Y265158D01*
X2631306Y265473D01*
X2630660Y265845D01*
X2630050Y266273D01*
X2629479Y266752D01*
X2628952Y267279D01*
X2628473Y267850D01*
X2628045Y268460D01*
X2627673Y269106D01*
X2627358Y269781D01*
X2627103Y270481D01*
X2626910Y271201D01*
X2626781Y271935D01*
X2626716Y272677D01*
X2626716Y273423D01*
X2626781Y274165D01*
X2626910Y274899D01*
X2627103Y275619D01*
X2627358Y276319D01*
X2627673Y276995D01*
X2628045Y277640D01*
X2628473Y278250D01*
X2628952Y278821D01*
X2629479Y279348D01*
X2630050Y279827D01*
X2630660Y280255D01*
X2631306Y280627D01*
X2631981Y280942D01*
X2632681Y281197D01*
X2633401Y281390D01*
X2634135Y281519D01*
X2634877Y281584D01*
X2635623Y281584D01*
X2636365Y281519D01*
X2637099Y281390D01*
X2637819Y281197D01*
X2638519Y280942D01*
X2639195Y280627D01*
X2639840Y280255D01*
X2640450Y279827D01*
X2641021Y279348D01*
X2641548Y278821D01*
X2642027Y278250D01*
X2642455Y277640D01*
X2642827Y276995D01*
X2643142Y276319D01*
X2643397Y275619D01*
X2643590Y274899D01*
X2643719Y274165D01*
X2643784Y273423D01*
X2643784Y272677D01*
X2896997Y564532D02*
X2896922Y563299D01*
X2896773Y562072D01*
X2896551Y560857D01*
X2896255Y559657D01*
X2895887Y558477D01*
X2895449Y557322D01*
X2894942Y556195D01*
X2894368Y555101D01*
X2893729Y554043D01*
X2893027Y553026D01*
X2892265Y552054D01*
X2891445Y551129D01*
X2890571Y550255D01*
X2889646Y549436D01*
X2888674Y548673D01*
X2887657Y547971D01*
X2886599Y547332D01*
X2885505Y546758D01*
X2884378Y546251D01*
X2883223Y545813D01*
X2882043Y545445D01*
X2880843Y545149D01*
X2879628Y544927D01*
X2878401Y544778D01*
X2877168Y544703D01*
X2875932Y544703D01*
X2874699Y544778D01*
X2873472Y544927D01*
X2872257Y545149D01*
X2871057Y545445D01*
X2869877Y545813D01*
X2868722Y546251D01*
X2867595Y546758D01*
X2866501Y547332D01*
X2865443Y547971D01*
X2864426Y548673D01*
X2863454Y549436D01*
X2862529Y550255D01*
X2861655Y551129D01*
X2860836Y552054D01*
X2860073Y553026D01*
X2859371Y554043D01*
X2858732Y555101D01*
X2858158Y556195D01*
X2857651Y557322D01*
X2857213Y558477D01*
X2856845Y559657D01*
X2856549Y560857D01*
X2856327Y562072D01*
X2856178Y563299D01*
X2856103Y564532D01*
X2856103Y565768D01*
X2856178Y567001D01*
X2856327Y568228D01*
X2856549Y569443D01*
X2856845Y570643D01*
X2857213Y571823D01*
X2857651Y572978D01*
X2858158Y574105D01*
X2858732Y575199D01*
X2859371Y576257D01*
X2860073Y577274D01*
X2860836Y578246D01*
X2861655Y579171D01*
X2862529Y580045D01*
X2863454Y580865D01*
X2864426Y581627D01*
X2865443Y582329D01*
X2866501Y582968D01*
X2867595Y583542D01*
X2868722Y584049D01*
X2869877Y584487D01*
X2871057Y584855D01*
X2872257Y585151D01*
X2873472Y585373D01*
X2874699Y585522D01*
X2875932Y585597D01*
X2877168Y585597D01*
X2878401Y585522D01*
X2879628Y585373D01*
X2880843Y585151D01*
X2882043Y584855D01*
X2883223Y584487D01*
X2884378Y584049D01*
X2885505Y583542D01*
X2886599Y582968D01*
X2887657Y582329D01*
X2888674Y581627D01*
X2889646Y580865D01*
X2890571Y580045D01*
X2891445Y579171D01*
X2892265Y578246D01*
X2893027Y577274D01*
X2893729Y576257D01*
X2894368Y575199D01*
X2894942Y574105D01*
X2895449Y572978D01*
X2895887Y571823D01*
X2896255Y570643D01*
X2896551Y569443D01*
X2896773Y568228D01*
X2896922Y567001D01*
X2896997Y565768D01*
X2896997Y564532D01*
X2834284Y564777D02*
X2834219Y564035D01*
X2834090Y563301D01*
X2833897Y562581D01*
X2833642Y561881D01*
X2833327Y561206D01*
X2832955Y560560D01*
X2832527Y559950D01*
X2832048Y559379D01*
X2831521Y558852D01*
X2830950Y558373D01*
X2830340Y557945D01*
X2829695Y557573D01*
X2829019Y557258D01*
X2828319Y557003D01*
X2827599Y556810D01*
X2826865Y556681D01*
X2826123Y556616D01*
X2825377Y556616D01*
X2824635Y556681D01*
X2823901Y556810D01*
X2823181Y557003D01*
X2822481Y557258D01*
X2821806Y557573D01*
X2821160Y557945D01*
X2820550Y558373D01*
X2819979Y558852D01*
X2819452Y559379D01*
X2818973Y559950D01*
X2818545Y560560D01*
X2818173Y561206D01*
X2817858Y561881D01*
X2817603Y562581D01*
X2817410Y563301D01*
X2817281Y564035D01*
X2817216Y564777D01*
X2817216Y565523D01*
X2817281Y566265D01*
X2817410Y566999D01*
X2817603Y567719D01*
X2817858Y568419D01*
X2818173Y569095D01*
X2818545Y569740D01*
X2818973Y570350D01*
X2819452Y570921D01*
X2819979Y571448D01*
X2820550Y571927D01*
X2821160Y572355D01*
X2821806Y572727D01*
X2822481Y573042D01*
X2823181Y573297D01*
X2823901Y573490D01*
X2824635Y573619D01*
X2825377Y573684D01*
X2826123Y573684D01*
X2826865Y573619D01*
X2827599Y573490D01*
X2828319Y573297D01*
X2829019Y573042D01*
X2829695Y572727D01*
X2830340Y572355D01*
X2830950Y571927D01*
X2831521Y571448D01*
X2832048Y570921D01*
X2832527Y570350D01*
X2832955Y569740D01*
X2833327Y569095D01*
X2833642Y568419D01*
X2833897Y567719D01*
X2834090Y566999D01*
X2834219Y566265D01*
X2834284Y565523D01*
X2834284Y564777D01*
X2935884Y564777D02*
X2935819Y564035D01*
X2935690Y563301D01*
X2935497Y562581D01*
X2935242Y561881D01*
X2934927Y561206D01*
X2934555Y560560D01*
X2934127Y559950D01*
X2933648Y559379D01*
X2933121Y558852D01*
X2932550Y558373D01*
X2931940Y557945D01*
X2931295Y557573D01*
X2930619Y557258D01*
X2929919Y557003D01*
X2929199Y556810D01*
X2928465Y556681D01*
X2927723Y556616D01*
X2926977Y556616D01*
X2926235Y556681D01*
X2925501Y556810D01*
X2924781Y557003D01*
X2924081Y557258D01*
X2923406Y557573D01*
X2922760Y557945D01*
X2922150Y558373D01*
X2921579Y558852D01*
X2921052Y559379D01*
X2920573Y559950D01*
X2920145Y560560D01*
X2919773Y561206D01*
X2919458Y561881D01*
X2919203Y562581D01*
X2919010Y563301D01*
X2918881Y564035D01*
X2918816Y564777D01*
X2918816Y565523D01*
X2918881Y566265D01*
X2919010Y566999D01*
X2919203Y567719D01*
X2919458Y568419D01*
X2919773Y569095D01*
X2920145Y569740D01*
X2920573Y570350D01*
X2921052Y570921D01*
X2921579Y571448D01*
X2922150Y571927D01*
X2922760Y572355D01*
X2923406Y572727D01*
X2924081Y573042D01*
X2924781Y573297D01*
X2925501Y573490D01*
X2926235Y573619D01*
X2926977Y573684D01*
X2927723Y573684D01*
X2928465Y573619D01*
X2929199Y573490D01*
X2929919Y573297D01*
X2930619Y573042D01*
X2931295Y572727D01*
X2931940Y572355D01*
X2932550Y571927D01*
X2933121Y571448D01*
X2933648Y570921D01*
X2934127Y570350D01*
X2934555Y569740D01*
X2934927Y569095D01*
X2935242Y568419D01*
X2935497Y567719D01*
X2935690Y566999D01*
X2935819Y566265D01*
X2935884Y565523D01*
X2935884Y564777D01*
X2896997Y272432D02*
X2896922Y271199D01*
X2896773Y269972D01*
X2896551Y268757D01*
X2896255Y267557D01*
X2895887Y266377D01*
X2895449Y265222D01*
X2894942Y264095D01*
X2894368Y263001D01*
X2893729Y261943D01*
X2893027Y260926D01*
X2892265Y259954D01*
X2891445Y259029D01*
X2890571Y258155D01*
X2889646Y257336D01*
X2888674Y256573D01*
X2887657Y255871D01*
X2886599Y255232D01*
X2885505Y254658D01*
X2884378Y254151D01*
X2883223Y253713D01*
X2882043Y253345D01*
X2880843Y253049D01*
X2879628Y252827D01*
X2878401Y252678D01*
X2877168Y252603D01*
X2875932Y252603D01*
X2874699Y252678D01*
X2873472Y252827D01*
X2872257Y253049D01*
X2871057Y253345D01*
X2869877Y253713D01*
X2868722Y254151D01*
X2867595Y254658D01*
X2866501Y255232D01*
X2865443Y255871D01*
X2864426Y256573D01*
X2863454Y257336D01*
X2862529Y258155D01*
X2861655Y259029D01*
X2860836Y259954D01*
X2860073Y260926D01*
X2859371Y261943D01*
X2858732Y263001D01*
X2858158Y264095D01*
X2857651Y265222D01*
X2857213Y266377D01*
X2856845Y267557D01*
X2856549Y268757D01*
X2856327Y269972D01*
X2856178Y271199D01*
X2856103Y272432D01*
X2856103Y273668D01*
X2856178Y274901D01*
X2856327Y276128D01*
X2856549Y277343D01*
X2856845Y278543D01*
X2857213Y279723D01*
X2857651Y280878D01*
X2858158Y282005D01*
X2858732Y283099D01*
X2859371Y284157D01*
X2860073Y285174D01*
X2860836Y286146D01*
X2861655Y287071D01*
X2862529Y287945D01*
X2863454Y288765D01*
X2864426Y289527D01*
X2865443Y290229D01*
X2866501Y290868D01*
X2867595Y291442D01*
X2868722Y291949D01*
X2869877Y292387D01*
X2871057Y292755D01*
X2872257Y293051D01*
X2873472Y293273D01*
X2874699Y293422D01*
X2875932Y293497D01*
X2877168Y293497D01*
X2878401Y293422D01*
X2879628Y293273D01*
X2880843Y293051D01*
X2882043Y292755D01*
X2883223Y292387D01*
X2884378Y291949D01*
X2885505Y291442D01*
X2886599Y290868D01*
X2887657Y290229D01*
X2888674Y289527D01*
X2889646Y288765D01*
X2890571Y287945D01*
X2891445Y287071D01*
X2892265Y286146D01*
X2893027Y285174D01*
X2893729Y284157D01*
X2894368Y283099D01*
X2894942Y282005D01*
X2895449Y280878D01*
X2895887Y279723D01*
X2896255Y278543D01*
X2896551Y277343D01*
X2896773Y276128D01*
X2896922Y274901D01*
X2896997Y273668D01*
X2896997Y272432D01*
X2834284Y272677D02*
X2834219Y271935D01*
X2834090Y271201D01*
X2833897Y270481D01*
X2833642Y269781D01*
X2833327Y269106D01*
X2832955Y268460D01*
X2832527Y267850D01*
X2832048Y267279D01*
X2831521Y266752D01*
X2830950Y266273D01*
X2830340Y265845D01*
X2829695Y265473D01*
X2829019Y265158D01*
X2828319Y264903D01*
X2827599Y264710D01*
X2826865Y264581D01*
X2826123Y264516D01*
X2825377Y264516D01*
X2824635Y264581D01*
X2823901Y264710D01*
X2823181Y264903D01*
X2822481Y265158D01*
X2821806Y265473D01*
X2821160Y265845D01*
X2820550Y266273D01*
X2819979Y266752D01*
X2819452Y267279D01*
X2818973Y267850D01*
X2818545Y268460D01*
X2818173Y269106D01*
X2817858Y269781D01*
X2817603Y270481D01*
X2817410Y271201D01*
X2817281Y271935D01*
X2817216Y272677D01*
X2817216Y273423D01*
X2817281Y274165D01*
X2817410Y274899D01*
X2817603Y275619D01*
X2817858Y276319D01*
X2818173Y276995D01*
X2818545Y277640D01*
X2818973Y278250D01*
X2819452Y278821D01*
X2819979Y279348D01*
X2820550Y279827D01*
X2821160Y280255D01*
X2821806Y280627D01*
X2822481Y280942D01*
X2823181Y281197D01*
X2823901Y281390D01*
X2824635Y281519D01*
X2825377Y281584D01*
X2826123Y281584D01*
X2826865Y281519D01*
X2827599Y281390D01*
X2828319Y281197D01*
X2829019Y280942D01*
X2829695Y280627D01*
X2830340Y280255D01*
X2830950Y279827D01*
X2831521Y279348D01*
X2832048Y278821D01*
X2832527Y278250D01*
X2832955Y277640D01*
X2833327Y276995D01*
X2833642Y276319D01*
X2833897Y275619D01*
X2834090Y274899D01*
X2834219Y274165D01*
X2834284Y273423D01*
X2834284Y272677D01*
X2935884Y272677D02*
X2935819Y271935D01*
X2935690Y271201D01*
X2935497Y270481D01*
X2935242Y269781D01*
X2934927Y269106D01*
X2934555Y268460D01*
X2934127Y267850D01*
X2933648Y267279D01*
X2933121Y266752D01*
X2932550Y266273D01*
X2931940Y265845D01*
X2931295Y265473D01*
X2930619Y265158D01*
X2929919Y264903D01*
X2929199Y264710D01*
X2928465Y264581D01*
X2927723Y264516D01*
X2926977Y264516D01*
X2926235Y264581D01*
X2925501Y264710D01*
X2924781Y264903D01*
X2924081Y265158D01*
X2923406Y265473D01*
X2922760Y265845D01*
X2922150Y266273D01*
X2921579Y266752D01*
X2921052Y267279D01*
X2920573Y267850D01*
X2920145Y268460D01*
X2919773Y269106D01*
X2919458Y269781D01*
X2919203Y270481D01*
X2919010Y271201D01*
X2918881Y271935D01*
X2918816Y272677D01*
X2918816Y273423D01*
X2918881Y274165D01*
X2919010Y274899D01*
X2919203Y275619D01*
X2919458Y276319D01*
X2919773Y276995D01*
X2920145Y277640D01*
X2920573Y278250D01*
X2921052Y278821D01*
X2921579Y279348D01*
X2922150Y279827D01*
X2922760Y280255D01*
X2923406Y280627D01*
X2924081Y280942D01*
X2924781Y281197D01*
X2925501Y281390D01*
X2926235Y281519D01*
X2926977Y281584D01*
X2927723Y281584D01*
X2928465Y281519D01*
X2929199Y281390D01*
X2929919Y281197D01*
X2930619Y280942D01*
X2931295Y280627D01*
X2931940Y280255D01*
X2932550Y279827D01*
X2933121Y279348D01*
X2933648Y278821D01*
X2934127Y278250D01*
X2934555Y277640D01*
X2934927Y276995D01*
X2935242Y276319D01*
X2935497Y275619D01*
X2935690Y274899D01*
X2935819Y274165D01*
X2935884Y273423D01*
X2935884Y272677D01*
M02*
